NewsreaderText-ExtraBold.ufo
<glyph name="exclam" format="2">
	<unicode hex="0021"/>
	<advance width="577"/>
	<outline>
		<contour>
			<point x="508" y="1221" type="line" smooth="yes"/>
			<point x="508" y="1321"/>
			<point x="398" y="1370"/>
			<point x="288" y="1370" type="curve" smooth="yes"/>
			<point x="178" y="1370"/>
			<point x="68" y="1321"/>
			<point x="68" y="1221" type="curve" smooth="yes"/>
			<point x="68" y="1206" type="line" smooth="yes"/>
			<point x="68" y="1129"/>
			<point x="126" y="1000"/>
			<point x="252" y="502" type="curve"/>
			<point x="324" y="502" type="line"/>
			<point x="450" y="1000"/>
			<point x="508" y="1129"/>
			<point x="508" y="1206" type="curve" smooth="yes"/>
		</contour>
		<contour>
			<point x="290" y="349" type="curve" smooth="yes"/>
			<point x="179" y="349"/>
			<point x="99" y="266"/>
			<point x="99" y="163" type="curve" smooth="yes"/>
			<point x="99" y="59"/>
			<point x="179" y="-24"/>
			<point x="290" y="-24" type="curve" smooth="yes"/>
			<point x="401" y="-24"/>
			<point x="481" y="59"/>
			<point x="481" y="163" type="curve" smooth="yes"/>
			<point x="481" y="266"/>
			<point x="401" y="349"/>
		</contour>
	</outline>
</glyph>
<glyph name="quotesingle" format="2">
	<unicode hex="0027"/>
	<advance width="430"/>
	<outline>
		<contour>
			<point x="158" y="783" type="line"/>
			<point x="270" y="783" type="line"/>
			<point x="376" y="1282" type="line"/>
			<point x="376" y="1340" type="line"/>
			<point x="56" y="1340" type="line"/>
			<point x="56" y="1282" type="line"/>
		</contour>
	</outline>
</glyph>
<glyph name="parenleft" format="2">
	<unicode hex="0028"/>
	<advance width="593"/>
	<outline>
		<contour>
			<point x="307" y="574" type="curve" smooth="yes"/>
			<point x="307" y="838"/>
			<point x="360" y="1039"/>
			<point x="559" y="1374" type="curve"/>
			<point x="488" y="1429" type="line"/>
			<point x="112" y="1015"/>
			<point x="59" y="847"/>
			<point x="59" y="574" type="curve" smooth="yes"/>
			<point x="59" y="301"/>
			<point x="112" y="133"/>
			<point x="488" y="-281" type="curve"/>
			<point x="559" y="-226" type="line"/>
			<point x="360" y="109"/>
			<point x="307" y="310"/>
		</contour>
	</outline>
</glyph>
<glyph name="parenright" format="2">
	<unicode hex="0029"/>
	<advance width="593"/>
	<outline>
		<contour>
			<point x="286" y="574" type="curve" smooth="yes"/>
			<point x="286" y="310"/>
			<point x="233" y="109"/>
			<point x="34" y="-226" type="curve"/>
			<point x="105" y="-281" type="line"/>
			<point x="481" y="133"/>
			<point x="534" y="301"/>
			<point x="534" y="574" type="curve" smooth="yes"/>
			<point x="534" y="847"/>
			<point x="481" y="1015"/>
			<point x="105" y="1429" type="curve"/>
			<point x="34" y="1374" type="line"/>
			<point x="233" y="1039"/>
			<point x="286" y="838"/>
		</contour>
	</outline>
</glyph>
<glyph name="asterisk" format="2">
	<unicode hex="002A"/>
	<advance width="833"/>
	<outline>
		<contour>
			<point x="581" y="721" type="line"/>
			<point x="512" y="960" type="line"/>
			<point x="757" y="1010" type="line"/>
			<point x="749" y="1091" type="line"/>
			<point x="501" y="1098" type="line"/>
			<point x="533" y="1346" type="line"/>
			<point x="455" y="1364" type="line"/>
			<point x="369" y="1131" type="line"/>
			<point x="143" y="1237" type="line"/>
			<point x="102" y="1168" type="line"/>
			<point x="296" y="1014" type="line"/>
			<point x="124" y="833" type="line"/>
			<point x="177" y="772" type="line"/>
			<point x="385" y="908" type="line"/>
			<point x="506" y="689" type="line"/>
		</contour>
	</outline>
</glyph>
<glyph name="plus" format="2">
	<unicode hex="002B"/>
	<advance width="1000"/>
	<outline>
		<contour>
			<point x="428" y="823" type="line"/>
			<point x="428" y="49" type="line"/>
			<point x="572" y="49" type="line"/>
			<point x="572" y="823" type="line"/>
		</contour>
		<contour>
			<point x="887" y="508" type="line"/>
			<point x="113" y="508" type="line"/>
			<point x="113" y="364" type="line"/>
			<point x="887" y="364" type="line"/>
		</contour>
	</outline>
</glyph>
<glyph name="comma" format="2">
	<unicode hex="002C"/>
	<advance width="519"/>
	<outline>
		<contour>
			<point x="68" y="-309" type="curve"/>
			<point x="139" y="-380" type="line"/>
			<point x="389" y="-165"/>
			<point x="444" y="-11"/>
			<point x="444" y="137" type="curve" smooth="yes"/>
			<point x="444" y="271"/>
			<point x="376" y="349"/>
			<point x="253" y="349" type="curve" smooth="yes"/>
			<point x="142" y="349"/>
			<point x="62" y="266"/>
			<point x="62" y="163" type="curve" smooth="yes"/>
			<point x="62" y="103"/>
			<point x="225" y="62"/>
			<point x="225" y="-60" type="curve" smooth="yes"/>
			<point x="225" y="-120"/>
			<point x="186" y="-199"/>
		</contour>
	</outline>
</glyph>
<glyph name="hyphen" format="2">
  <advance width="708.0"/>
  <unicode hex="002D"/>
  <outline>
    <contour>
      <point x="99.0" y="545.0" type="line"/>
      <point x="99.0" y="348.0" type="line"/>
      <point x="609.0" y="348.0" type="line"/>
      <point x="609.0" y="545.0" type="line"/>
    </contour>
  </outline>
</glyph>
<glyph name="period" format="2">
	<unicode hex="002E"/>
	<advance width="514"/>
	<outline>
		<contour>
			<point x="257" y="349" type="curve" smooth="yes"/>
			<point x="146" y="349"/>
			<point x="66" y="266"/>
			<point x="66" y="163" type="curve" smooth="yes"/>
			<point x="66" y="59"/>
			<point x="146" y="-24"/>
			<point x="257" y="-24" type="curve" smooth="yes"/>
			<point x="368" y="-24"/>
			<point x="448" y="59"/>
			<point x="448" y="163" type="curve" smooth="yes"/>
			<point x="448" y="266"/>
			<point x="368" y="349"/>
		</contour>
	</outline>
</glyph>
<glyph name="slash" format="2">
	<unicode hex="002F"/>
	<advance width="780"/>
	<outline>
		<contour>
			<point x="41" y="0" type="line"/>
			<point x="175" y="0" type="line"/>
			<point x="739" y="1340" type="line"/>
			<point x="606" y="1340" type="line"/>
		</contour>
	</outline>
</glyph>
<glyph name="zero" format="2">
	<unicode hex="0030"/>
	<advance width="1300"/>
	<outline>
		<contour>
			<point x="656" y="101" type="curve" smooth="yes"/>
			<point x="525.1502590674" y="101"/>
			<point x="473" y="290"/>
			<point x="473" y="718" type="curve" smooth="yes"/>
			<point x="473" y="1079"/>
			<point x="529.6850828729" y="1239"/>
			<point x="644" y="1239" type="curve" smooth="yes"/>
			<point x="774.8497409326" y="1239"/>
			<point x="827" y="1050"/>
			<point x="827" y="622" type="curve" smooth="yes"/>
			<point x="827" y="261"/>
			<point x="770.3149171271" y="101"/>
		</contour>
		<contour>
			<point x="650" y="1370" type="curve" smooth="yes"/>
			<point x="287.3511187608" y="1370"/>
			<point x="79" y="1113"/>
			<point x="79" y="668" type="curve" smooth="yes"/>
			<point x="79" y="225"/>
			<point x="287.3511187608" y="-30"/>
			<point x="650" y="-30" type="curve" smooth="yes"/>
			<point x="1012.6488812392" y="-30"/>
			<point x="1221" y="227"/>
			<point x="1221" y="672" type="curve" smooth="yes"/>
			<point x="1221" y="1115"/>
			<point x="1012.6488812392" y="1370"/>
		</contour>
	</outline>
</glyph>
<glyph name="one" format="2">
  <advance width="1300.0"/>
  <unicode hex="0031"/>
  <outline>
    <contour>
      <point x="541.0" y="122.0" type="line"/>
      <point x="278.0" y="51.0" type="line"/>
      <point x="278.0" y="0.0" type="line"/>
      <point x="1166.0" y="0.0" type="line"/>
      <point x="1166.0" y="51.0" type="line"/>
      <point x="921.0" y="122.0" type="line"/>
      <point x="921.0" y="1340.0" type="line"/>
      <point x="706.0" y="1340.0" type="line"/>
      <point x="142.0" y="1040.0" type="line"/>
      <point x="177.0" y="955.0" type="line"/>
      <point x="619.0" y="1102.0" type="line"/>
      <point x="541.0" y="1149.0" type="line"/>
    </contour>
  </outline>
</glyph>
<glyph name="colon" format="2">
	<unicode hex="003A"/>
	<advance width="554"/>
	<outline>
		<contour>
			<point x="277" y="349" type="curve" smooth="yes"/>
			<point x="166" y="349"/>
			<point x="86" y="266"/>
			<point x="86" y="163" type="curve" smooth="yes"/>
			<point x="86" y="59"/>
			<point x="166" y="-24"/>
			<point x="277" y="-24" type="curve" smooth="yes"/>
			<point x="388" y="-24"/>
			<point x="468" y="59"/>
			<point x="468" y="163" type="curve" smooth="yes"/>
			<point x="468" y="266"/>
			<point x="388" y="349"/>
		</contour>
		<contour>
			<point x="277" y="896" type="curve" smooth="yes"/>
			<point x="166" y="896"/>
			<point x="86" y="813"/>
			<point x="86" y="710" type="curve" smooth="yes"/>
			<point x="86" y="606"/>
			<point x="166" y="523"/>
			<point x="277" y="523" type="curve" smooth="yes"/>
			<point x="388" y="523"/>
			<point x="468" y="606"/>
			<point x="468" y="710" type="curve" smooth="yes"/>
			<point x="468" y="813"/>
			<point x="388" y="896"/>
		</contour>
	</outline>
</glyph>
<glyph name="semicolon" format="2">
  <advance width="555.0"/>
  <unicode hex="003B"/>
  <outline>
    <contour>
      <point x="89.0" y="-309.0" type="curve"/>
      <point x="160.0" y="-380.0" type="line"/>
      <point x="410.0" y="-165.0"/>
      <point x="465.0" y="-11.0"/>
      <point x="465.0" y="137.0" type="curve" smooth="yes"/>
      <point x="465.0" y="271.0"/>
      <point x="397.0" y="349.0"/>
      <point x="274.0" y="349.0" type="curve" smooth="yes"/>
      <point x="163.0" y="349.0"/>
      <point x="83.0" y="266.0"/>
      <point x="83.0" y="163.0" type="curve" smooth="yes"/>
      <point x="83.0" y="103.0"/>
      <point x="246.0" y="62.0"/>
      <point x="246.0" y="-60.0" type="curve" smooth="yes"/>
      <point x="246.0" y="-120.0"/>
      <point x="207.0" y="-199.0"/>
    </contour>
    <contour>
      <point x="274.0" y="896.0" type="curve" smooth="yes"/>
      <point x="163.0" y="896.0"/>
      <point x="83.0" y="813.0"/>
      <point x="83.0" y="710.0" type="curve" smooth="yes"/>
      <point x="83.0" y="606.0"/>
      <point x="163.0" y="523.0"/>
      <point x="274.0" y="523.0" type="curve" smooth="yes"/>
      <point x="385.0" y="523.0"/>
      <point x="465.0" y="606.0"/>
      <point x="465.0" y="710.0" type="curve" smooth="yes"/>
      <point x="465.0" y="813.0"/>
      <point x="385.0" y="896.0"/>
    </contour>
  </outline>
</glyph>
<glyph name="less" format="2">
	<unicode hex="003C"/>
	<advance width="1000"/>
	<outline>
		<contour>
			<point x="135" y="380" type="line"/>
			<point x="942" y="737" type="line"/>
			<point x="942" y="899" type="line"/>
			<point x="42" y="492" type="line"/>
			<point x="42" y="380" type="line"/>
			<point x="942" y="-27" type="line"/>
			<point x="942" y="135" type="line"/>
			<point x="135" y="492" type="line"/>
		</contour>
	</outline>
</glyph>
<glyph name="greater" format="2">
	<unicode hex="003E"/>
	<advance width="1000"/>
	<outline>
		<contour>
			<point x="865" y="380" type="line"/>
			<point x="865" y="492" type="line"/>
			<point x="58" y="135" type="line"/>
			<point x="58" y="-27" type="line"/>
			<point x="958" y="380" type="line"/>
			<point x="958" y="492" type="line"/>
			<point x="58" y="899" type="line"/>
			<point x="58" y="737" type="line"/>
		</contour>
	</outline>
</glyph>
<glyph name="question" format="2">
	<unicode hex="003F"/>
	<advance width="991"/>
	<outline>
		<contour>
			<point x="331" y="1370" type="curve" smooth="yes"/>
			<point x="123" y="1370"/>
			<point x="48" y="1306"/>
			<point x="48" y="1228" type="curve" smooth="yes"/>
			<point x="48" y="1151"/>
			<point x="103" y="1095"/>
			<point x="170" y="1095" type="curve" smooth="yes"/>
			<point x="312.2249322493" y="1095"/>
			<point x="408.6991869919" y="1228"/>
			<point x="537" y="1228" type="curve" smooth="yes"/>
			<point x="638" y="1228"/>
			<point x="686" y="1179"/>
			<point x="686" y="1092" type="curve" smooth="yes"/>
			<point x="686" y="971"/>
			<point x="586" y="891"/>
			<point x="311" y="892" type="curve"/>
			<point x="416" y="502" type="line"/>
			<point x="478" y="502" type="line"/>
			<point x="518" y="793" type="line"/>
			<point x="442" y="612" type="line"/>
			<point x="780" y="612"/>
			<point x="908" y="722"/>
			<point x="908" y="940" type="curve" smooth="yes"/>
			<point x="908" y="1192"/>
			<point x="728" y="1370"/>
		</contour>
		<contour>
			<point x="449" y="359" type="curve" smooth="yes"/>
			<point x="338" y="359"/>
			<point x="258" y="276"/>
			<point x="258" y="173" type="curve" smooth="yes"/>
			<point x="258" y="69"/>
			<point x="338" y="-14"/>
			<point x="449" y="-14" type="curve" smooth="yes"/>
			<point x="560" y="-14"/>
			<point x="640" y="69"/>
			<point x="640" y="173" type="curve" smooth="yes"/>
			<point x="640" y="276"/>
			<point x="560" y="359"/>
		</contour>
	</outline>
</glyph>
<glyph name="at" format="2">
	<unicode hex="0040"/>
	<advance width="1776"/>
	<outline>
		<contour>
			<point x="1223" y="172" type="curve" smooth="yes"/>
			<point x="1540" y="172"/>
			<point x="1749" y="405"/>
			<point x="1749" y="738" type="curve" smooth="yes"/>
			<point x="1749" y="1121"/>
			<point x="1471" y="1370"/>
			<point x="999" y="1370" type="curve" smooth="yes"/>
			<point x="454" y="1370"/>
			<point x="56" y="958"/>
			<point x="56" y="470" type="curve" smooth="yes"/>
			<point x="56" y="71"/>
			<point x="300" y="-266"/>
			<point x="890" y="-266" type="curve" smooth="yes"/>
			<point x="1149" y="-266"/>
			<point x="1369" y="-196"/>
			<point x="1549" y="-78" type="curve"/>
			<point x="1500" y="13" type="line"/>
			<point x="1305" y="-101"/>
			<point x="1109" y="-142"/>
			<point x="920" y="-142" type="curve" smooth="yes"/>
			<point x="418" y="-142"/>
			<point x="235" y="144"/>
			<point x="235" y="468" type="curve" smooth="yes"/>
			<point x="235" y="952"/>
			<point x="562" y="1266"/>
			<point x="1004" y="1266" type="curve" smooth="yes"/>
			<point x="1383" y="1266"/>
			<point x="1591" y="1040"/>
			<point x="1591" y="716" type="curve" smooth="yes"/>
			<point x="1591" y="463"/>
			<point x="1435" y="284"/>
			<point x="1321" y="284" type="curve" smooth="yes"/>
			<point x="1287" y="284"/>
			<point x="1266" y="300"/>
			<point x="1266" y="351" type="curve" smooth="yes"/>
			<point x="1266" y="373"/>
			<point x="1271" y="401"/>
			<point x="1281" y="438" type="curve" smooth="yes"/>
			<point x="1429" y="982" type="line"/>
			<point x="1176" y="982" type="line"/>
			<point x="1090" y="883" type="line"/>
			<point x="980" y="600" type="line" smooth="yes"/>
			<point x="924" y="457"/>
			<point x="845" y="384"/>
			<point x="799" y="384" type="curve" smooth="yes"/>
			<point x="767" y="384"/>
			<point x="755" y="396"/>
			<point x="755" y="441" type="curve" smooth="yes"/>
			<point x="755" y="573"/>
			<point x="894" y="866"/>
			<point x="1005" y="866" type="curve" smooth="yes"/>
			<point x="1064" y="866"/>
			<point x="1077" y="833"/>
			<point x="1092" y="795" type="curve"/>
			<point x="1147" y="879" type="line"/>
			<point x="1079" y="974"/>
			<point x="1011" y="1005"/>
			<point x="916" y="1005" type="curve" smooth="yes"/>
			<point x="647" y="1005"/>
			<point x="423" y="654"/>
			<point x="423" y="392" type="curve" smooth="yes"/>
			<point x="423" y="277"/>
			<point x="478" y="181"/>
			<point x="628" y="181" type="curve" smooth="yes"/>
			<point x="757" y="181"/>
			<point x="865" y="242"/>
			<point x="1045" y="577" type="curve"/>
			<point x="1021" y="577" type="line"/>
			<point x="981" y="439" type="line" smooth="yes"/>
			<point x="972" y="408"/>
			<point x="971" y="378"/>
			<point x="971" y="351" type="curve" smooth="yes"/>
			<point x="971" y="215"/>
			<point x="1073" y="172"/>
		</contour>
	</outline>
</glyph>
<glyph name="A" format="2">
  <advance width="1570.0"/>
  <unicode hex="0041"/>
  <guideline x="883.0" y="1340" angle="181.0836779048566" identifier="EePtCRzMyq"/>
  <anchor x="757.0" y="1340.0" name="UCtop"/>
  <anchor x="737.0" y="0" name="bottom"/>
  <anchor x="1412.0" y="0" name="right"/>
  <outline>
    <contour>
      <point x="336.0" y="414.0" type="line"/>
      <point x="1024.0" y="414.0" type="line"/>
      <point x="1024.0" y="548.0" type="line"/>
      <point x="336.0" y="548.0" type="line"/>
    </contour>
    <contour>
      <point x="1454.0" y="111.0" type="line"/>
      <point x="914.0" y="1340.0" type="line"/>
      <point x="637.0" y="1340.0" type="line"/>
      <point x="124.0" y="109.0" type="line"/>
      <point x="-29.0" y="46.0" type="line"/>
      <point x="-29.0" y="0.0" type="line"/>
      <point x="430.0" y="0.0" type="line"/>
      <point x="430.0" y="46.0" type="line"/>
      <point x="279.0" y="109.0" type="line"/>
      <point x="661.0" y="1056.0" type="line"/>
      <point x="633.0" y="1056.0" type="line"/>
      <point x="1035.0" y="109.0" type="line"/>
      <point x="874.0" y="46.0" type="line"/>
      <point x="874.0" y="0.0" type="line"/>
      <point x="1602.0" y="0.0" type="line"/>
      <point x="1602.0" y="46.0" type="line"/>
    </contour>
  </outline>
</glyph>
<glyph name="B" format="2">
	<unicode hex="0042"/>
	<advance width="1448"/>
	<outline>
		<contour>
			<point x="407" y="1202" type="line"/>
			<point x="697" y="1202" type="line" smooth="yes"/>
			<point x="845" y="1202"/>
			<point x="915" y="1119"/>
			<point x="915" y="999" type="curve" smooth="yes"/>
			<point x="915" y="853"/>
			<point x="839" y="780"/>
			<point x="716" y="780" type="curve" smooth="yes"/>
			<point x="407" y="780" type="line"/>
			<point x="403" y="642" type="line"/>
			<point x="723" y="642" type="line" smooth="yes"/>
			<point x="904" y="642"/>
			<point x="984" y="542"/>
			<point x="984" y="398" type="curve" smooth="yes"/>
			<point x="984" y="217"/>
			<point x="883" y="138"/>
			<point x="715" y="138" type="curve" smooth="yes"/>
			<point x="404" y="138" type="line"/>
			<point x="428" y="0" type="line"/>
			<point x="863" y="0" type="line" smooth="yes"/>
			<point x="1236" y="0"/>
			<point x="1394" y="162"/>
			<point x="1394" y="379" type="curve" smooth="yes"/>
			<point x="1394" y="578"/>
			<point x="1238" y="718"/>
			<point x="986" y="732" type="curve"/>
			<point x="983" y="717" type="line"/>
			<point x="1183" y="734"/>
			<point x="1309" y="858"/>
			<point x="1309" y="1024" type="curve" smooth="yes"/>
			<point x="1309" y="1203"/>
			<point x="1178" y="1340"/>
			<point x="859" y="1340" type="curve" smooth="yes"/>
			<point x="427" y="1340" type="line"/>
		</contour>
		<contour>
			<point x="59" y="0" type="line"/>
			<point x="587" y="0" type="line"/>
			<point x="587" y="1340" type="line"/>
			<point x="59" y="1340" type="line"/>
			<point x="59" y="1294" type="line"/>
			<point x="197" y="1232" type="line"/>
			<point x="197" y="108" type="line"/>
			<point x="59" y="46" type="line"/>
		</contour>
	</outline>
	<anchor name="UCtop" x="707" y="1340"/>
	<anchor name="bottom" x="747" y="0"/>
</glyph>
<glyph name="C" format="2">
	<unicode hex="0043"/>
	<advance width="1428"/>
	<outline>
		<contour>
			<point x="962" y="120" type="curve" smooth="yes"/>
			<point x="670" y="120"/>
			<point x="466" y="324"/>
			<point x="466" y="769" type="curve" smooth="yes"/>
			<point x="466" y="1080"/>
			<point x="608" y="1223"/>
			<point x="845" y="1223" type="curve" smooth="yes"/>
			<point x="949" y="1223"/>
			<point x="1043" y="1196"/>
			<point x="1146" y="1116" type="curve"/>
			<point x="1038" y="1233" type="line"/>
			<point x="1276" y="878" type="line"/>
			<point x="1348" y="895" type="line"/>
			<point x="1271" y="1418" type="line"/>
			<point x="1222" y="1418" type="line"/>
			<point x="1083" y="1311" type="line"/>
			<point x="1176" y="1335" type="line"/>
			<point x="1057" y="1362"/>
			<point x="979" y="1370"/>
			<point x="892" y="1370" type="curve" smooth="yes"/>
			<point x="383" y="1370"/>
			<point x="64" y="1077"/>
			<point x="64" y="658" type="curve" smooth="yes"/>
			<point x="64" y="210"/>
			<point x="344" y="-30"/>
			<point x="851" y="-30" type="curve" smooth="yes"/>
			<point x="1027" y="-30"/>
			<point x="1176" y="-6"/>
			<point x="1315" y="45" type="curve"/>
			<point x="1365" y="435" type="line"/>
			<point x="1306" y="435" type="line"/>
			<point x="1103" y="116" type="line"/>
			<point x="1181" y="170" type="line"/>
			<point x="1087" y="130"/>
			<point x="1032" y="120"/>
		</contour>
	</outline>
	<anchor name="UCtop" x="775" y="1340"/>
	<anchor name="bottom" x="818" y="0"/>
	<anchor name="right" x="1305" y="0"/>
</glyph>
<glyph name="D" format="2">
	<unicode hex="0044"/>
	<advance width="1587"/>
	<outline>
		<contour>
			<point x="1117" y="687" type="curve" smooth="yes"/>
			<point x="1117" y="298"/>
			<point x="953" y="138"/>
			<point x="709" y="138" type="curve" smooth="yes"/>
			<point x="414" y="138" type="line"/>
			<point x="375" y="0" type="line"/>
			<point x="743" y="0" type="line" smooth="yes"/>
			<point x="1187" y="0"/>
			<point x="1522" y="260"/>
			<point x="1522" y="710" type="curve" smooth="yes"/>
			<point x="1522" y="1134"/>
			<point x="1265" y="1340"/>
			<point x="741" y="1340" type="curve" smooth="yes"/>
			<point x="375" y="1340" type="line"/>
			<point x="414" y="1202" type="line"/>
			<point x="694" y="1202" type="line" smooth="yes"/>
			<point x="956" y="1202"/>
			<point x="1117" y="1046"/>
		</contour>
		<contour>
			<point x="59" y="0" type="line"/>
			<point x="587" y="0" type="line"/>
			<point x="587" y="1340" type="line"/>
			<point x="59" y="1340" type="line"/>
			<point x="59" y="1294" type="line"/>
			<point x="197" y="1232" type="line"/>
			<point x="197" y="108" type="line"/>
			<point x="59" y="46" type="line"/>
		</contour>
	</outline>
	<anchor name="UCtop" x="791" y="1340"/>
	<anchor name="bottom" x="791" y="0"/>
</glyph>
<glyph name="E" format="2">
	<unicode hex="0045"/>
	<advance width="1365"/>
	<outline>
		<contour>
			<point x="996" y="965" type="line"/>
			<point x="885" y="965" type="line"/>
			<point x="863" y="772" type="line"/>
			<point x="395" y="772" type="line"/>
			<point x="395" y="634" type="line"/>
			<point x="863" y="634" type="line"/>
			<point x="885" y="441" type="line"/>
			<point x="996" y="441" type="line"/>
			<point x="996" y="703" type="line"/>
		</contour>
		<contour>
			<point x="1283" y="945" type="line"/>
			<point x="1194" y="1416" type="line"/>
			<point x="1156" y="1416" type="line"/>
			<point x="1027" y="1340" type="line"/>
			<point x="395" y="1340" type="line"/>
			<point x="395" y="1202" type="line"/>
			<point x="1072" y="1202" type="line"/>
			<point x="975" y="1262" type="line"/>
			<point x="1220" y="929" type="line"/>
		</contour>
		<contour>
			<point x="1018" y="82" type="line"/>
			<point x="1090" y="138" type="line"/>
			<point x="395" y="138" type="line"/>
			<point x="395" y="0" type="line"/>
			<point x="1054" y="0" type="line"/>
			<point x="1199" y="-81" type="line"/>
			<point x="1242" y="-81" type="line"/>
			<point x="1333" y="444" type="line"/>
			<point x="1277" y="458" type="line"/>
		</contour>
		<contour>
			<point x="59" y="0" type="line"/>
			<point x="587" y="0" type="line"/>
			<point x="587" y="1340" type="line"/>
			<point x="59" y="1340" type="line"/>
			<point x="59" y="1294" type="line"/>
			<point x="197" y="1232" type="line"/>
			<point x="197" y="108" type="line"/>
			<point x="59" y="46" type="line"/>
		</contour>
	</outline>
	<anchor name="UCtop" x="676" y="1340"/>
	<anchor name="right" x="1203" y="0"/>
	<anchor name="bottom" x="716" y="0"/>
</glyph>
<glyph name="F" format="2">
	<unicode hex="0046"/>
	<advance width="1264"/>
	<outline>
		<contour>
			<point x="976" y="925" type="line"/>
			<point x="865" y="925" type="line"/>
			<point x="843" y="732" type="line"/>
			<point x="395" y="732" type="line"/>
			<point x="395" y="594" type="line"/>
			<point x="843" y="594" type="line"/>
			<point x="865" y="401" type="line"/>
			<point x="976" y="401" type="line"/>
			<point x="976" y="663" type="line"/>
		</contour>
		<contour>
			<point x="1136" y="1416" type="line"/>
			<point x="1007" y="1340" type="line"/>
			<point x="395" y="1340" type="line"/>
			<point x="395" y="1202" type="line"/>
			<point x="1052" y="1202" type="line"/>
			<point x="955" y="1262" type="line"/>
			<point x="1200" y="929" type="line"/>
			<point x="1263" y="945" type="line"/>
			<point x="1174" y="1416" type="line"/>
		</contour>
		<contour>
			<point x="587" y="1340" type="line"/>
			<point x="59" y="1340" type="line"/>
			<point x="59" y="1294" type="line"/>
			<point x="197" y="1232" type="line"/>
			<point x="197" y="108" type="line"/>
			<point x="59" y="46" type="line"/>
			<point x="59" y="0" type="line"/>
			<point x="725" y="0" type="line"/>
			<point x="725" y="46" type="line"/>
			<point x="587" y="108" type="line"/>
		</contour>
	</outline>
	<anchor name="UCtop" x="651" y="1340"/>
	<anchor name="bottom" x="392" y="0"/>
</glyph>
<glyph name="G" format="2">
	<unicode hex="0047"/>
	<advance width="1554"/>
	<outline>
		<contour>
			<point x="1408" y="177" type="line"/>
			<point x="1408" y="491" type="line"/>
			<point x="1546" y="553" type="line"/>
			<point x="1546" y="599" type="line"/>
			<point x="880" y="599" type="line"/>
			<point x="880" y="553" type="line"/>
			<point x="1018" y="491" type="line"/>
			<point x="1018" y="37" type="line"/>
			<point x="1167" y="205" type="line"/>
			<point x="1095" y="147"/>
			<point x="1009" y="120"/>
			<point x="904" y="120" type="curve" smooth="yes"/>
			<point x="656" y="120"/>
			<point x="465" y="319"/>
			<point x="465" y="745" type="curve" smooth="yes"/>
			<point x="465" y="1080"/>
			<point x="606" y="1223"/>
			<point x="857" y="1223" type="curve" smooth="yes"/>
			<point x="978" y="1223"/>
			<point x="1073" y="1189"/>
			<point x="1168" y="1116" type="curve"/>
			<point x="1060" y="1233" type="line"/>
			<point x="1298" y="878" type="line"/>
			<point x="1370" y="895" type="line"/>
			<point x="1293" y="1418" type="line"/>
			<point x="1244" y="1418" type="line"/>
			<point x="1105" y="1311" type="line"/>
			<point x="1198" y="1335" type="line"/>
			<point x="1075" y="1363"/>
			<point x="994" y="1370"/>
			<point x="904" y="1370" type="curve" smooth="yes"/>
			<point x="382" y="1370"/>
			<point x="63" y="1077"/>
			<point x="63" y="658" type="curve" smooth="yes"/>
			<point x="63" y="231"/>
			<point x="314" y="-30"/>
			<point x="840" y="-30" type="curve" smooth="yes"/>
			<point x="1072" y="-30"/>
			<point x="1269" y="-2"/>
			<point x="1451" y="65" type="curve"/>
			<point x="1451" y="80" type="line"/>
		</contour>
	</outline>
	<anchor name="UCtop" x="794" y="1340"/>
	<anchor name="bottom" x="844" y="0"/>
</glyph>
<glyph name="H" format="2">
	<unicode hex="0048"/>
	<advance width="1708"/>
	<outline>
		<contour>
			<point x="587" y="108" type="line"/>
			<point x="587" y="1232" type="line"/>
			<point x="725" y="1294" type="line"/>
			<point x="725" y="1340" type="line"/>
			<point x="59" y="1340" type="line"/>
			<point x="59" y="1294" type="line"/>
			<point x="197" y="1232" type="line"/>
			<point x="197" y="108" type="line"/>
			<point x="59" y="46" type="line"/>
			<point x="59" y="0" type="line"/>
			<point x="725" y="0" type="line"/>
			<point x="725" y="46" type="line"/>
		</contour>
		<contour>
			<point x="1511" y="108" type="line"/>
			<point x="1511" y="1232" type="line"/>
			<point x="1649" y="1294" type="line"/>
			<point x="1649" y="1340" type="line"/>
			<point x="983" y="1340" type="line"/>
			<point x="983" y="1294" type="line"/>
			<point x="1121" y="1232" type="line"/>
			<point x="1121" y="108" type="line"/>
			<point x="983" y="46" type="line"/>
			<point x="983" y="0" type="line"/>
			<point x="1649" y="0" type="line"/>
			<point x="1649" y="46" type="line"/>
		</contour>
		<contour>
			<point x="378" y="616" type="line"/>
			<point x="1331" y="616" type="line"/>
			<point x="1331" y="754" type="line"/>
			<point x="378" y="754" type="line"/>
		</contour>
	</outline>
	<anchor name="UCtop" x="854" y="1340"/>
	<anchor name="bottom" x="854" y="0"/>
</glyph>
<glyph name="I" format="2">
	<unicode hex="0049"/>
	<advance width="784"/>
	<outline>
		<contour>
			<point x="725" y="46" type="line"/>
			<point x="587" y="108" type="line"/>
			<point x="587" y="1232" type="line"/>
			<point x="725" y="1294" type="line"/>
			<point x="725" y="1340" type="line"/>
			<point x="59" y="1340" type="line"/>
			<point x="59" y="1294" type="line"/>
			<point x="197" y="1232" type="line"/>
			<point x="197" y="108" type="line"/>
			<point x="59" y="46" type="line"/>
			<point x="59" y="0" type="line"/>
			<point x="725" y="0" type="line"/>
		</contour>
	</outline>
	<anchor name="UCtop" x="392" y="1340"/>
	<anchor name="right" x="582" y="0"/>
	<anchor name="bottom" x="392" y="0"/>
</glyph>
<glyph name="J" format="2">
	<unicode hex="004A"/>
	<advance width="958"/>
	<outline>
		<contour>
			<point x="793" y="472" type="curve" smooth="yes"/>
			<point x="793" y="1232" type="line"/>
			<point x="931" y="1294" type="line"/>
			<point x="931" y="1340" type="line"/>
			<point x="250" y="1340" type="line"/>
			<point x="250" y="1294" type="line"/>
			<point x="403" y="1232" type="line"/>
			<point x="403" y="315" type="line" smooth="yes"/>
			<point x="403" y="168"/>
			<point x="368" y="114"/>
			<point x="300" y="114" type="curve" smooth="yes"/>
			<point x="242" y="114"/>
			<point x="151" y="239"/>
			<point x="99" y="239" type="curve" smooth="yes"/>
			<point x="37" y="239"/>
			<point x="-5" y="185"/>
			<point x="-5" y="127" type="curve" smooth="yes"/>
			<point x="-5" y="30"/>
			<point x="74" y="-29"/>
			<point x="223" y="-29" type="curve" smooth="yes"/>
			<point x="544" y="-29"/>
			<point x="793" y="188"/>
		</contour>
	</outline>
	<anchor name="UCtop" x="598" y="1340"/>
	<anchor name="bottom" x="483" y="0"/>
</glyph>
<glyph name="K" format="2">
  <advance width="1611.0"/>
  <unicode hex="004B"/>
  <guideline x="1521.0" y="111" angle="355.1254432790204" identifier="7Tie9nUKaW"/>
  <anchor x="827.0" y="1340.0" name="UCtop"/>
  <anchor x="817.0" y="0" name="bottom"/>
  <outline>
    <contour>
      <point x="1521.0" y="111.0" type="line"/>
      <point x="963.0" y="892.0" type="line"/>
      <point x="860.0" y="718.0" type="line"/>
      <point x="1400.0" y="1244.0" type="line"/>
      <point x="1537.0" y="1294.0" type="line"/>
      <point x="1537.0" y="1340.0" type="line"/>
      <point x="1064.0" y="1340.0" type="line"/>
      <point x="1064.0" y="1294.0" type="line"/>
      <point x="1211.0" y="1239.0" type="line"/>
      <point x="735.0" y="763.0" type="line"/>
      <point x="449.0" y="763.0" type="line"/>
      <point x="449.0" y="627.0" type="line"/>
      <point x="686.0" y="627.0" type="line"/>
      <point x="1051.0" y="99.0" type="line"/>
      <point x="929.0" y="46.0" type="line"/>
      <point x="929.0" y="0.0" type="line"/>
      <point x="1656.0" y="0.0" type="line"/>
      <point x="1656.0" y="46.0" type="line"/>
    </contour>
    <contour>
      <point x="587.0" y="1232.0" type="line"/>
      <point x="725.0" y="1294.0" type="line"/>
      <point x="725.0" y="1340.0" type="line"/>
      <point x="59.0" y="1340.0" type="line"/>
      <point x="59.0" y="1294.0" type="line"/>
      <point x="197.0" y="1232.0" type="line"/>
      <point x="197.0" y="108.0" type="line"/>
      <point x="59.0" y="46.0" type="line"/>
      <point x="59.0" y="0.0" type="line"/>
      <point x="713.0" y="0.0" type="line"/>
      <point x="713.0" y="46.0" type="line"/>
      <point x="587.0" y="108.0" type="line"/>
    </contour>
  </outline>
</glyph>
<glyph name="L" format="2">
	<unicode hex="004C"/>
	<advance width="1320"/>
	<outline>
		<contour>
			<point x="1199" y="-92" type="line"/>
			<point x="1306" y="475" type="line"/>
			<point x="1242" y="491" type="line"/>
			<point x="953" y="88" type="line"/>
			<point x="1014" y="138" type="line"/>
			<point x="395" y="138" type="line"/>
			<point x="395" y="0" type="line"/>
			<point x="990" y="0" type="line"/>
			<point x="1147" y="-92" type="line"/>
		</contour>
		<contour>
			<point x="587" y="1232" type="line"/>
			<point x="725" y="1294" type="line"/>
			<point x="725" y="1340" type="line"/>
			<point x="59" y="1340" type="line"/>
			<point x="59" y="1294" type="line"/>
			<point x="197" y="1232" type="line"/>
			<point x="197" y="108" type="line"/>
			<point x="59" y="46" type="line"/>
			<point x="59" y="0" type="line"/>
			<point x="587" y="0" type="line"/>
		</contour>
	</outline>
	<anchor name="UCtop" x="392" y="1340"/>
	<anchor name="right" x="758" y="1340"/>
	<anchor name="bottom" x="653" y="0"/>
	<anchor name="mid" x="1057" y="702"/>
</glyph>
<glyph name="M" format="2">
  <advance width="2092.0"/>
  <unicode hex="004D"/>
  <guideline x="430.0" y="1079" angle="180.0" identifier="aTSoVYbBUN"/>
  <anchor x="999.0" y="1340.0" name="UCtop"/>
  <anchor x="939.0" y="0" name="bottom"/>
  <outline>
    <contour>
      <point x="1934.0" y="113.0" type="line"/>
      <point x="1836.0" y="1232.0" type="line"/>
      <point x="1979.0" y="1294.0" type="line"/>
      <point x="1979.0" y="1340.0" type="line"/>
      <point x="1403.0" y="1340.0" type="line"/>
      <point x="1044.0" y="353.0" type="line"/>
      <point x="1065.0" y="353.0" type="line"/>
      <point x="695.0" y="1340.0" type="line"/>
      <point x="84.0" y="1340.0" type="line"/>
      <point x="84.0" y="1294.0" type="line"/>
      <point x="245.0" y="1220.0" type="line"/>
      <point x="173.0" y="115.0" type="line"/>
      <point x="15.0" y="46.0" type="line"/>
      <point x="15.0" y="0.0" type="line"/>
      <point x="476.0" y="0.0" type="line"/>
      <point x="476.0" y="46.0" type="line"/>
      <point x="319.0" y="115.0" type="line"/>
      <point x="377.0" y="1105.0" type="line"/>
      <point x="364.0" y="1103.0" type="line"/>
      <point x="789.0" y="0.0" type="line"/>
      <point x="1063.0" y="0.0" type="line"/>
      <point x="1468.0" y="1097.0" type="line"/>
      <point x="1456.0" y="1099.0" type="line"/>
      <point x="1535.0" y="98.0" type="line"/>
      <point x="1378.0" y="46.0" type="line"/>
      <point x="1378.0" y="0.0" type="line"/>
      <point x="2082.0" y="0.0" type="line"/>
      <point x="2082.0" y="46.0" type="line"/>
    </contour>
  </outline>
</glyph>
<glyph name="N" format="2">
	<unicode hex="004E"/>
	<advance width="1522"/>
	<outline>
		<contour>
			<point x="201" y="108" type="line"/>
			<point x="63" y="46" type="line"/>
			<point x="63" y="0" type="line"/>
			<point x="486" y="0" type="line"/>
			<point x="486" y="46" type="line"/>
			<point x="331" y="108" type="line"/>
			<point x="331" y="1230" type="line"/>
			<point x="273" y="1194" type="line"/>
			<point x="1070" y="0" type="line"/>
			<point x="1339" y="0" type="line"/>
			<point x="1339" y="1232" type="line"/>
			<point x="1477" y="1294" type="line"/>
			<point x="1477" y="1340" type="line"/>
			<point x="1054" y="1340" type="line"/>
			<point x="1054" y="1294" type="line"/>
			<point x="1209" y="1232" type="line"/>
			<point x="1209" y="335" type="line"/>
			<point x="1309" y="360" type="line"/>
			<point x="637" y="1340" type="line"/>
			<point x="38" y="1340" type="line"/>
			<point x="38" y="1301" type="line"/>
			<point x="201" y="1211" type="line"/>
		</contour>
	</outline>
	<anchor name="UCtop" x="797" y="1340"/>
	<anchor name="bottom" x="797" y="0"/>
</glyph>
<glyph name="O" format="2">
	<unicode hex="004F"/>
	<advance width="1577"/>
	<outline>
		<contour>
			<point x="810" y="1370" type="curve" smooth="yes"/>
			<point x="371" y="1370"/>
			<point x="64" y="1087"/>
			<point x="64" y="668" type="curve" smooth="yes"/>
			<point x="64" y="243"/>
			<point x="341" y="-30"/>
			<point x="767" y="-30" type="curve" smooth="yes"/>
			<point x="1206" y="-30"/>
			<point x="1513" y="253"/>
			<point x="1513" y="672" type="curve" smooth="yes"/>
			<point x="1513" y="1097"/>
			<point x="1236" y="1370"/>
		</contour>
		<contour>
			<point x="799" y="124" type="curve" smooth="yes"/>
			<point x="604" y="124"/>
			<point x="468" y="324"/>
			<point x="468" y="743" type="curve" smooth="yes"/>
			<point x="468" y="1078"/>
			<point x="605" y="1216"/>
			<point x="778" y="1216" type="curve" smooth="yes"/>
			<point x="973" y="1216"/>
			<point x="1109" y="1016"/>
			<point x="1109" y="597" type="curve" smooth="yes"/>
			<point x="1109" y="262"/>
			<point x="972" y="124"/>
		</contour>
	</outline>
	<anchor name="UCtop" x="789" y="1340"/>
	<anchor name="bottom" x="789" y="0"/>
	<anchor name="right" x="1009" y="0"/>
	<anchor name="horn" x="1073" y="1340"/>
</glyph>
<glyph name="P" format="2">
	<unicode hex="0050"/>
	<advance width="1358"/>
	<outline>
		<contour>
			<point x="962" y="940" type="curve" smooth="yes"/>
			<point x="962" y="770"/>
			<point x="863" y="679"/>
			<point x="713" y="679" type="curve" smooth="yes"/>
			<point x="359" y="679" type="line"/>
			<point x="359" y="541" type="line"/>
			<point x="812" y="541" type="line" smooth="yes"/>
			<point x="1183" y="541"/>
			<point x="1343" y="723"/>
			<point x="1343" y="944" type="curve" smooth="yes"/>
			<point x="1343" y="1162"/>
			<point x="1192" y="1340"/>
			<point x="812" y="1340" type="curve" smooth="yes"/>
			<point x="359" y="1340" type="line"/>
			<point x="359" y="1202" type="line"/>
			<point x="688" y="1202" type="line" smooth="yes"/>
			<point x="881" y="1202"/>
			<point x="962" y="1106"/>
		</contour>
		<contour>
			<point x="587" y="1340" type="line"/>
			<point x="59" y="1340" type="line"/>
			<point x="59" y="1294" type="line"/>
			<point x="197" y="1232" type="line"/>
			<point x="197" y="108" type="line"/>
			<point x="59" y="46" type="line"/>
			<point x="59" y="0" type="line"/>
			<point x="725" y="0" type="line"/>
			<point x="725" y="46" type="line"/>
			<point x="587" y="108" type="line"/>
		</contour>
	</outline>
	<anchor name="UCtop" x="731" y="1340"/>
	<anchor name="bottom" x="392" y="0"/>
</glyph>
<glyph name="Q" format="2">
	<unicode hex="0051"/>
	<advance width="1576"/>
	<outline>
		<contour>
			<point x="672" y="-206" type="line" smooth="yes"/>
			<point x="852" y="-363"/>
			<point x="958" y="-400"/>
			<point x="1233" y="-400" type="curve" smooth="yes"/>
			<point x="1413" y="-400"/>
			<point x="1503" y="-382"/>
			<point x="1588" y="-359" type="curve"/>
			<point x="1588" y="-272" type="line"/>
			<point x="1422" y="-282"/>
			<point x="1347" y="-247"/>
			<point x="1142" y="-134" type="curve" smooth="yes"/>
			<point x="773" y="69" type="line"/>
			<point x="791" y="-3" type="line"/>
			<point x="1197" y="-14"/>
			<point x="1513" y="270"/>
			<point x="1513" y="672" type="curve" smooth="yes"/>
			<point x="1513" y="1097"/>
			<point x="1236" y="1370"/>
			<point x="810" y="1370" type="curve" smooth="yes"/>
			<point x="371" y="1370"/>
			<point x="64" y="1087"/>
			<point x="64" y="668" type="curve" smooth="yes"/>
			<point x="64" y="407"/>
			<point x="161" y="238"/>
			<point x="325" y="96" type="curve" smooth="yes"/>
		</contour>
		<contour>
			<point x="799" y="124" type="curve" smooth="yes"/>
			<point x="604" y="124"/>
			<point x="468" y="324"/>
			<point x="468" y="743" type="curve" smooth="yes"/>
			<point x="468" y="1078"/>
			<point x="605" y="1216"/>
			<point x="778" y="1216" type="curve" smooth="yes"/>
			<point x="973" y="1216"/>
			<point x="1109" y="1016"/>
			<point x="1109" y="597" type="curve" smooth="yes"/>
			<point x="1109" y="262"/>
			<point x="972" y="124"/>
		</contour>
	</outline>
	<anchor name="UCtop" x="789" y="1340"/>
	<anchor name="bottom" x="789" y="-500"/>
</glyph>
<glyph name="R" format="2">
	<unicode hex="0052"/>
	<advance width="1486"/>
	<outline>
		<contour>
			<point x="736" y="739" type="curve" smooth="yes"/>
			<point x="258" y="739" type="line"/>
			<point x="344" y="601" type="line"/>
			<point x="704" y="601" type="line" smooth="yes"/>
			<point x="808" y="601"/>
			<point x="843" y="569"/>
			<point x="873" y="433" type="curve" smooth="yes"/>
			<point x="924" y="200" type="line" smooth="yes"/>
			<point x="964" y="16"/>
			<point x="1054" y="-38"/>
			<point x="1485" y="-5" type="curve"/>
			<point x="1485" y="89" type="line"/>
			<point x="1403" y="88"/>
			<point x="1366" y="97"/>
			<point x="1328" y="228" type="curve" smooth="yes"/>
			<point x="1258" y="466" type="line" smooth="yes"/>
			<point x="1219" y="598"/>
			<point x="1169" y="659"/>
			<point x="946" y="667" type="curve"/>
			<point x="946" y="664" type="line"/>
			<point x="1211" y="683"/>
			<point x="1343" y="820"/>
			<point x="1343" y="1004" type="curve" smooth="yes"/>
			<point x="1343" y="1189"/>
			<point x="1212" y="1340"/>
			<point x="880" y="1340" type="curve" smooth="yes"/>
			<point x="359" y="1340" type="line"/>
			<point x="275" y="1202" type="line"/>
			<point x="714" y="1202" type="line" smooth="yes"/>
			<point x="888" y="1202"/>
			<point x="962" y="1116"/>
			<point x="962" y="969" type="curve" smooth="yes"/>
			<point x="962" y="819"/>
			<point x="872" y="739"/>
		</contour>
		<contour>
			<point x="587" y="1340" type="line"/>
			<point x="59" y="1340" type="line"/>
			<point x="59" y="1294" type="line"/>
			<point x="197" y="1232" type="line"/>
			<point x="197" y="108" type="line"/>
			<point x="59" y="46" type="line"/>
			<point x="59" y="0" type="line"/>
			<point x="725" y="0" type="line"/>
			<point x="725" y="46" type="line"/>
			<point x="587" y="108" type="line"/>
		</contour>
	</outline>
	<anchor name="UCtop" x="722" y="1340"/>
	<anchor name="bottom" x="802" y="0"/>
</glyph>
<glyph name="S" format="2">
	<unicode hex="0053"/>
	<advance width="1203"/>
	<outline>
		<contour>
			<point x="986" y="1292" type="line"/>
			<point x="865" y="1349"/>
			<point x="759" y="1370"/>
			<point x="626" y="1370" type="curve" smooth="yes"/>
			<point x="292" y="1370"/>
			<point x="77" y="1208"/>
			<point x="77" y="958" type="curve" smooth="yes"/>
			<point x="77" y="709"/>
			<point x="233" y="617"/>
			<point x="402" y="556" type="curve" smooth="yes"/>
			<point x="571" y="495"/>
			<point x="782" y="464"/>
			<point x="782" y="303" type="curve" smooth="yes"/>
			<point x="782" y="187"/>
			<point x="700" y="120"/>
			<point x="487" y="120" type="curve" smooth="yes"/>
			<point x="392" y="120"/>
			<point x="314" y="140"/>
			<point x="208" y="195" type="curve"/>
			<point x="471" y="31" type="line"/>
			<point x="138" y="439" type="line"/>
			<point x="72" y="439" type="line"/>
			<point x="159" y="30" type="line"/>
			<point x="292" y="-16"/>
			<point x="403" y="-30"/>
			<point x="555" y="-30" type="curve" smooth="yes"/>
			<point x="882" y="-30"/>
			<point x="1141" y="124"/>
			<point x="1141" y="430" type="curve" smooth="yes"/>
			<point x="1141" y="696"/>
			<point x="940" y="793"/>
			<point x="762" y="854" type="curve" smooth="yes"/>
			<point x="584" y="915"/>
			<point x="411" y="950"/>
			<point x="411" y="1080" type="curve" smooth="yes"/>
			<point x="411" y="1170"/>
			<point x="469" y="1228"/>
			<point x="630" y="1228" type="curve" smooth="yes"/>
			<point x="709" y="1228"/>
			<point x="791" y="1197"/>
			<point x="860" y="1147" type="curve"/>
			<point x="772" y="1243" type="line"/>
			<point x="1010" y="916" type="line"/>
			<point x="1083" y="934" type="line"/>
			<point x="995" y="1418" type="line"/>
			<point x="949" y="1418" type="line"/>
			<point x="819" y="1312" type="line"/>
		</contour>
	</outline>
	<anchor name="UCtop" x="577" y="1340"/>
	<anchor name="bottom" x="607" y="0"/>
</glyph>
<glyph name="T" format="2">
	<unicode hex="0054"/>
	<advance width="1428"/>
	<outline>
		<contour>
			<point x="511" y="1272" type="line"/>
			<point x="511" y="108" type="line"/>
			<point x="373" y="46" type="line"/>
			<point x="373" y="0" type="line"/>
			<point x="1039" y="0" type="line"/>
			<point x="1039" y="46" type="line"/>
			<point x="901" y="108" type="line"/>
			<point x="901" y="1272" type="line"/>
		</contour>
		<contour>
			<point x="1223" y="1202" type="line"/>
			<point x="1134" y="1244" type="line"/>
			<point x="1330" y="914" type="line"/>
			<point x="1402" y="929" type="line"/>
			<point x="1358" y="1415" type="line"/>
			<point x="1312" y="1415" type="line"/>
			<point x="1125" y="1312" type="line"/>
			<point x="1200" y="1340" type="line"/>
			<point x="172" y="1340" type="line"/>
			<point x="303" y="1312" type="line"/>
			<point x="116" y="1415" type="line"/>
			<point x="70" y="1415" type="line"/>
			<point x="26" y="929" type="line"/>
			<point x="98" y="914" type="line"/>
			<point x="294" y="1244" type="line"/>
			<point x="149" y="1202" type="line"/>
		</contour>
	</outline>
	<anchor name="UCtop" x="714" y="1340"/>
	<anchor name="bottom" x="714" y="0"/>
</glyph>
<glyph name="U" format="2">
	<unicode hex="0055"/>
	<advance width="1566"/>
	<outline>
		<contour>
			<point x="1270" y="557" type="line" smooth="yes"/>
			<point x="1270" y="322"/>
			<point x="1133" y="204"/>
			<point x="904" y="204" type="curve" smooth="yes"/>
			<point x="672" y="204"/>
			<point x="556" y="322"/>
			<point x="556" y="551" type="curve" smooth="yes"/>
			<point x="556" y="1232" type="line"/>
			<point x="694" y="1294" type="line"/>
			<point x="694" y="1340" type="line"/>
			<point x="28" y="1340" type="line"/>
			<point x="28" y="1294" type="line"/>
			<point x="166" y="1232" type="line"/>
			<point x="166" y="547" type="line" smooth="yes"/>
			<point x="166" y="158"/>
			<point x="385" y="-30"/>
			<point x="808" y="-30" type="curve" smooth="yes"/>
			<point x="1193" y="-30"/>
			<point x="1400" y="166"/>
			<point x="1400" y="557" type="curve" smooth="yes"/>
			<point x="1400" y="1232" type="line"/>
			<point x="1538" y="1294" type="line"/>
			<point x="1538" y="1340" type="line"/>
			<point x="1115" y="1340" type="line"/>
			<point x="1115" y="1294" type="line"/>
			<point x="1270" y="1232" type="line"/>
		</contour>
	</outline>
	<anchor name="UCtop" x="863" y="1340"/>
	<anchor name="right" x="1058" y="0"/>
	<anchor name="bottom" x="863" y="0"/>
	<anchor name="horn" x="1328" y="1340"/>
</glyph>
<glyph name="V" format="2">
	<unicode hex="0056"/>
	<advance width="1485"/>
	<outline>
		<contour>
			<point x="113" y="1229" type="line"/>
			<point x="623" y="0" type="line"/>
			<point x="900" y="0" type="line"/>
			<point x="1363" y="1231" type="line"/>
			<point x="1506" y="1294" type="line"/>
			<point x="1506" y="1340" type="line"/>
			<point x="1052" y="1340" type="line"/>
			<point x="1052" y="1294" type="line"/>
			<point x="1208" y="1231" type="line"/>
			<point x="876" y="284" type="line"/>
			<point x="912" y="284" type="line"/>
			<point x="540" y="1231" type="line"/>
			<point x="706" y="1294" type="line"/>
			<point x="706" y="1340" type="line"/>
			<point x="-35" y="1340" type="line"/>
			<point x="-35" y="1294" type="line"/>
		</contour>
	</outline>
	<anchor name="UCtop" x="846" y="1340"/>
	<anchor name="bottom" x="776" y="0"/>
</glyph>
<glyph name="W" format="2">
	<unicode hex="0057"/>
	<advance width="2142"/>
	<outline>
		<contour>
			<point x="1118" y="1020" type="line"/>
			<point x="1033" y="1020" type="line"/>
			<point x="1408" y="0" type="line"/>
			<point x="1685" y="0" type="line"/>
			<point x="2018" y="1231" type="line"/>
			<point x="2161" y="1294" type="line"/>
			<point x="2161" y="1340" type="line"/>
			<point x="1707" y="1340" type="line"/>
			<point x="1707" y="1294" type="line"/>
			<point x="1863" y="1231" type="line"/>
			<point x="1637" y="284" type="line"/>
			<point x="1724" y="284" type="line"/>
			<point x="1351" y="1340" type="line"/>
			<point x="1070" y="1340" type="line"/>
			<point x="721" y="284" type="line"/>
			<point x="807" y="284" type="line"/>
			<point x="535" y="1231" type="line"/>
			<point x="696" y="1294" type="line"/>
			<point x="696" y="1340" type="line"/>
			<point x="-30" y="1340" type="line"/>
			<point x="-30" y="1294" type="line"/>
			<point x="118" y="1229" type="line"/>
			<point x="488" y="0" type="line"/>
			<point x="765" y="0" type="line"/>
		</contour>
	</outline>
	<anchor name="UCtop" x="1195" y="1340"/>
	<anchor name="bottom" x="1145" y="0"/>
</glyph>
<glyph name="X" format="2">
	<unicode hex="0058"/>
	<advance width="1557"/>
	<outline>
		<contour>
			<point x="741" y="610" type="line"/>
			<point x="858" y="700" type="line"/>
			<point x="1328" y="1231" type="line"/>
			<point x="1476" y="1294" type="line"/>
			<point x="1476" y="1340" type="line"/>
			<point x="1020" y="1340" type="line"/>
			<point x="1020" y="1294" type="line"/>
			<point x="1163" y="1231" type="line"/>
			<point x="784" y="789" type="line"/>
			<point x="674" y="706" type="line"/>
			<point x="144" y="109" type="line"/>
			<point x="-4" y="46" type="line"/>
			<point x="-4" y="0" type="line"/>
			<point x="451" y="0" type="line"/>
			<point x="451" y="46" type="line"/>
			<point x="309" y="109" type="line"/>
		</contour>
		<contour>
			<point x="974" y="109" type="line"/>
			<point x="813" y="46" type="line"/>
			<point x="813" y="0" type="line"/>
			<point x="1600" y="0" type="line"/>
			<point x="1600" y="46" type="line"/>
			<point x="1452" y="111" type="line"/>
			<point x="924" y="824" type="line"/>
			<point x="879" y="871" type="line"/>
			<point x="625" y="1231" type="line"/>
			<point x="786" y="1294" type="line"/>
			<point x="786" y="1340" type="line"/>
			<point x="0" y="1340" type="line"/>
			<point x="0" y="1294" type="line"/>
			<point x="148" y="1229" type="line"/>
			<point x="622" y="591" type="line"/>
			<point x="662" y="551" type="line"/>
		</contour>
	</outline>
	<anchor name="UCtop" x="818" y="1340"/>
	<anchor name="bottom" x="788" y="0"/>
</glyph>
<glyph name="Y" format="2">
	<unicode hex="0059"/>
	<advance width="1500"/>
	<outline>
		<contour>
			<point x="109" y="1229" type="line"/>
			<point x="581" y="595" type="line"/>
			<point x="581" y="108" type="line"/>
			<point x="443" y="46" type="line"/>
			<point x="443" y="0" type="line"/>
			<point x="1109" y="0" type="line"/>
			<point x="1109" y="46" type="line"/>
			<point x="971" y="108" type="line"/>
			<point x="971" y="596" type="line"/>
			<point x="1369" y="1231" type="line"/>
			<point x="1502" y="1294" type="line"/>
			<point x="1502" y="1340" type="line"/>
			<point x="1055" y="1340" type="line"/>
			<point x="1055" y="1294" type="line"/>
			<point x="1206" y="1231" type="line"/>
			<point x="874" y="677" type="line"/>
			<point x="956" y="673" type="line"/>
			<point x="563" y="1231" type="line"/>
			<point x="724" y="1294" type="line"/>
			<point x="724" y="1340" type="line"/>
			<point x="-29" y="1340" type="line"/>
			<point x="-29" y="1294" type="line"/>
		</contour>
	</outline>
	<anchor name="UCtop" x="837" y="1340"/>
	<anchor name="bottom" x="776" y="0"/>
</glyph>
<glyph name="Z" format="2">
	<unicode hex="005A"/>
	<advance width="1307"/>
	<outline>
		<contour>
			<point x="1214" y="1340" type="line"/>
			<point x="337" y="1340" type="line"/>
			<point x="181" y="1414" type="line"/>
			<point x="144" y="1414" type="line"/>
			<point x="48" y="924" type="line"/>
			<point x="106" y="908" type="line"/>
			<point x="343" y="1202" type="line"/>
			<point x="1022" y="1202" type="line"/>
			<point x="785" y="1271" type="line"/>
			<point x="64" y="64" type="line"/>
			<point x="64" y="0" type="line"/>
			<point x="1029" y="0" type="line"/>
			<point x="1181" y="-72" type="line"/>
			<point x="1217" y="-72" type="line"/>
			<point x="1292" y="404" type="line"/>
			<point x="1235" y="418" type="line"/>
			<point x="1026" y="138" type="line"/>
			<point x="290" y="138" type="line"/>
			<point x="487" y="69" type="line"/>
			<point x="1214" y="1276" type="line"/>
		</contour>
	</outline>
	<anchor name="UCtop" x="710" y="1340"/>
	<anchor name="bottom" x="640" y="0"/>
</glyph>
<glyph name="bracketleft" format="2">
	<unicode hex="005B"/>
	<advance width="601"/>
	<outline>
		<contour>
			<point x="154" y="-250" type="line"/>
			<point x="574" y="-250" type="line"/>
			<point x="574" y="-150" type="line"/>
			<point x="378" y="-150" type="line"/>
			<point x="378" y="1299" type="line"/>
			<point x="574" y="1299" type="line"/>
			<point x="574" y="1399" type="line"/>
			<point x="154" y="1399" type="line"/>
		</contour>
	</outline>
</glyph>
<glyph name="backslash" format="2">
  <advance width="780"/>
  <unicode hex="005C"/>
  <outline>
    <contour>
      <point x="739.0" y="0.0" type="line"/>
      <point x="174.0" y="1340.0" type="line"/>
      <point x="41.0" y="1340.0" type="line"/>
      <point x="605.0" y="0.0" type="line"/>
    </contour>
  </outline>
</glyph>
<glyph name="bracketright" format="2">
	<unicode hex="005D"/>
	<advance width="601"/>
	<outline>
		<contour>
			<point x="447" y="1399" type="line"/>
			<point x="27" y="1399" type="line"/>
			<point x="27" y="1299" type="line"/>
			<point x="223" y="1299" type="line"/>
			<point x="223" y="-150" type="line"/>
			<point x="27" y="-150" type="line"/>
			<point x="27" y="-250" type="line"/>
			<point x="447" y="-250" type="line"/>
		</contour>
	</outline>
</glyph>
<glyph name="asciicircum" format="2">
  <advance width="1000"/>
  <unicode hex="005E"/>
  <outline>
    <contour>
      <point x="450.0" y="1246.0" type="line"/>
      <point x="746.0" y="592.0" type="line"/>
      <point x="901.0" y="592.0" type="line"/>
      <point x="561.0" y="1340.0" type="line"/>
      <point x="437.0" y="1340.0" type="line"/>
      <point x="99.0" y="592.0" type="line"/>
      <point x="254.0" y="592.0" type="line"/>
      <point x="548.0" y="1246.0" type="line"/>
    </contour>
  </outline>
</glyph>
<glyph name="a" format="2">
	<unicode hex="0061"/>
	<advance width="1001"/>
	<outline>
		<contour>
			<point x="567" y="542" type="line"/>
			<point x="140" y="443"/>
			<point x="43" y="349"/>
			<point x="43" y="206" type="curve" smooth="yes"/>
			<point x="43" y="44"/>
			<point x="144" y="-30"/>
			<point x="291" y="-30" type="curve" smooth="yes"/>
			<point x="418" y="-30"/>
			<point x="512" y="37"/>
			<point x="557" y="191" type="curve"/>
			<point x="545" y="191" type="line"/>
			<point x="550" y="62"/>
			<point x="603" y="-30"/>
			<point x="761" y="-30" type="curve" smooth="yes"/>
			<point x="839" y="-30"/>
			<point x="935" y="16"/>
			<point x="1013" y="75" type="curve"/>
			<point x="1013" y="148" type="line"/>
			<point x="982" y="128"/>
			<point x="955" y="122"/>
			<point x="932" y="122" type="curve" smooth="yes"/>
			<point x="896" y="122"/>
			<point x="879" y="142"/>
			<point x="879" y="187" type="curve" smooth="yes"/>
			<point x="879" y="603" type="line" smooth="yes"/>
			<point x="879" y="772"/>
			<point x="815" y="902"/>
			<point x="557" y="902" type="curve" smooth="yes"/>
			<point x="307" y="902"/>
			<point x="58" y="779"/>
			<point x="58" y="650" type="curve" smooth="yes"/>
			<point x="58" y="604"/>
			<point x="95" y="581"/>
			<point x="162" y="581" type="curve" smooth="yes"/>
			<point x="211" y="581"/>
			<point x="256" y="602"/>
			<point x="278" y="627" type="curve" smooth="yes"/>
			<point x="301" y="651"/>
			<point x="314" y="689"/>
			<point x="333" y="835" type="curve"/>
			<point x="308" y="755" type="line"/>
			<point x="334" y="764"/>
			<point x="373" y="770"/>
			<point x="410" y="770" type="curve" smooth="yes"/>
			<point x="493" y="770"/>
			<point x="531" y="727"/>
			<point x="531" y="661" type="curve" smooth="yes"/>
			<point x="531" y="270" type="line" smooth="yes"/>
			<point x="531" y="214"/>
			<point x="496" y="169"/>
			<point x="450" y="169" type="curve" smooth="yes"/>
			<point x="400" y="169"/>
			<point x="371" y="199"/>
			<point x="371" y="281" type="curve" smooth="yes"/>
			<point x="371" y="350"/>
			<point x="398" y="403"/>
			<point x="567" y="444" type="curve"/>
		</contour>
	</outline>
	<anchor name="top" x="474" y="872"/>
	<anchor name="right" x="1013" y="0"/>
	<anchor name="bottom" x="484" y="0"/>
</glyph>
<glyph name="b" format="2">
	<unicode hex="0062"/>
	<advance width="1143"/>
	<outline>
		<contour>
			<point x="219" y="47" type="line"/>
			<point x="353" y="-8"/>
			<point x="443" y="-30"/>
			<point x="574" y="-30" type="curve" smooth="yes"/>
			<point x="810" y="-30"/>
			<point x="1093" y="127"/>
			<point x="1093" y="480" type="curve" smooth="yes"/>
			<point x="1093" y="729"/>
			<point x="965" y="902"/>
			<point x="721" y="902" type="curve" smooth="yes"/>
			<point x="605" y="902"/>
			<point x="470" y="835"/>
			<point x="338" y="756" type="curve"/>
			<point x="417" y="681" type="line"/>
			<point x="462" y="712"/>
			<point x="521" y="722"/>
			<point x="563" y="722" type="curve" smooth="yes"/>
			<point x="671" y="722"/>
			<point x="738" y="625"/>
			<point x="738" y="423" type="curve" smooth="yes"/>
			<point x="738" y="164"/>
			<point x="677" y="82"/>
			<point x="582" y="82" type="curve" smooth="yes"/>
			<point x="503" y="82"/>
			<point x="463" y="159"/>
			<point x="463" y="263" type="curve" smooth="yes"/>
			<point x="463" y="1186" type="line"/>
			<point x="484" y="1429" type="line"/>
			<point x="445" y="1429" type="line"/>
			<point x="-35" y="1300" type="line"/>
			<point x="-35" y="1243" type="line"/>
			<point x="43" y="1206"/>
			<point x="80" y="1179"/>
			<point x="115" y="1133" type="curve"/>
			<point x="115" y="203" type="line"/>
			<point x="80" y="-6" type="line"/>
			<point x="120" y="-30" type="line"/>
			<point x="319" y="47" type="line"/>
		</contour>
	</outline>
	<anchor name="UCtop" x="589" y="1340"/>
	<anchor name="bottom" x="599" y="0"/>
</glyph>
<glyph name="c" format="2">
	<unicode hex="0063"/>
	<advance width="938"/>
	<outline>
		<contour>
			<point x="621" y="902" type="curve" smooth="yes"/>
			<point x="260" y="902"/>
			<point x="47" y="689"/>
			<point x="47" y="411" type="curve" smooth="yes"/>
			<point x="47" y="163"/>
			<point x="219" y="-30"/>
			<point x="495" y="-30" type="curve" smooth="yes"/>
			<point x="630" y="-30"/>
			<point x="770" y="42"/>
			<point x="912" y="211" type="curve"/>
			<point x="869" y="270" type="line"/>
			<point x="793" y="218"/>
			<point x="730" y="202"/>
			<point x="643" y="202" type="curve" smooth="yes"/>
			<point x="474" y="202"/>
			<point x="366" y="308"/>
			<point x="366" y="554" type="curve" smooth="yes"/>
			<point x="366" y="723"/>
			<point x="426" y="785"/>
			<point x="499" y="785" type="curve" smooth="yes"/>
			<point x="576" y="785"/>
			<point x="643" y="617"/>
			<point x="767" y="617" type="curve" smooth="yes"/>
			<point x="844" y="617"/>
			<point x="910" y="670"/>
			<point x="910" y="749" type="curve" smooth="yes"/>
			<point x="910" y="832"/>
			<point x="829" y="902"/>
		</contour>
	</outline>
	<anchor name="top" x="509" y="872"/>
	<anchor name="right" x="912" y="0"/>
	<anchor name="bottom" x="506" y="0"/>
</glyph>
<glyph name="e" format="2">
	<unicode hex="0065"/>
	<advance width="965"/>
	<outline>
		<contour>
			<point x="514" y="902" type="curve" smooth="yes"/>
			<point x="209" y="902"/>
			<point x="48" y="681"/>
			<point x="48" y="421" type="curve" smooth="yes"/>
			<point x="48" y="167"/>
			<point x="222" y="-30"/>
			<point x="502" y="-30" type="curve" smooth="yes"/>
			<point x="671" y="-30"/>
			<point x="807" y="78"/>
			<point x="922" y="209" type="curve"/>
			<point x="882" y="270" type="line"/>
			<point x="804" y="218"/>
			<point x="740" y="202"/>
			<point x="653" y="202" type="curve" smooth="yes"/>
			<point x="481" y="202"/>
			<point x="367" y="311"/>
			<point x="367" y="517" type="curve" smooth="yes"/>
			<point x="367" y="752"/>
			<point x="422" y="797"/>
			<point x="486" y="797" type="curve" smooth="yes"/>
			<point x="562" y="797"/>
			<point x="600" y="717"/>
			<point x="604" y="539" type="curve"/>
			<point x="770" y="600" type="line"/>
			<point x="277" y="570" type="line"/>
			<point x="277" y="476" type="line"/>
			<point x="918" y="476" type="line"/>
			<point x="895" y="739"/>
			<point x="764" y="902"/>
		</contour>
	</outline>
	<anchor name="top" x="475" y="872"/>
	<anchor name="right" x="922" y="0"/>
	<anchor name="bottom" x="492" y="0"/>
</glyph>
<glyph name="f" format="2">
	<unicode hex="0066"/>
	<advance width="795"/>
	<outline>
		<contour>
			<point x="208" y="722" type="line"/>
			<point x="778" y="722" type="line"/>
			<point x="800" y="872" type="line"/>
			<point x="357" y="872" type="line"/>
			<point x="191" y="894" type="line"/>
			<point x="2" y="802" type="line"/>
			<point x="2" y="752" type="line"/>
			<point x="175" y="682" type="line"/>
		</contour>
		<contour>
			<point x="523" y="105" type="line"/>
			<point x="523" y="1156" type="line" smooth="yes"/>
			<point x="523" y="1260"/>
			<point x="570" y="1315"/>
			<point x="642" y="1315" type="curve" smooth="yes"/>
			<point x="746" y="1315"/>
			<point x="812" y="1167"/>
			<point x="919" y="1167" type="curve" smooth="yes"/>
			<point x="982" y="1167"/>
			<point x="1041" y="1217"/>
			<point x="1041" y="1291" type="curve" smooth="yes"/>
			<point x="1041" y="1370"/>
			<point x="962" y="1429"/>
			<point x="797" y="1429" type="curve" smooth="yes"/>
			<point x="444" y="1429"/>
			<point x="175" y="1224"/>
			<point x="175" y="824" type="curve" smooth="yes"/>
			<point x="175" y="97" type="line"/>
			<point x="69" y="42" type="line"/>
			<point x="69" y="0" type="line"/>
			<point x="652" y="0" type="line"/>
			<point x="652" y="42" type="line"/>
		</contour>
	</outline>
	<anchor name="UCtop" x="584" y="1340"/>
	<anchor name="bottom" x="349" y="0"/>
</glyph>
<glyph name="g" format="2">
	<unicode hex="0067"/>
	<advance width="1056"/>
	<outline>
		<contour>
			<point x="476" y="-530" type="curve" smooth="yes"/>
			<point x="836" y="-530"/>
			<point x="1034" y="-373"/>
			<point x="1033" y="-155" type="curve" smooth="yes"/>
			<point x="1032" y="21"/>
			<point x="922" y="100"/>
			<point x="613" y="118" type="curve" smooth="yes"/>
			<point x="352" y="133"/>
			<point x="298" y="145"/>
			<point x="298" y="200" type="curve" smooth="yes"/>
			<point x="298" y="232"/>
			<point x="319" y="253"/>
			<point x="403" y="263" type="curve"/>
			<point x="357" y="310" type="line"/>
			<point x="173" y="287"/>
			<point x="81" y="210"/>
			<point x="76" y="83" type="curve" smooth="yes"/>
			<point x="71" y="-38"/>
			<point x="123" y="-138"/>
			<point x="432" y="-167" type="curve" smooth="yes"/>
			<point x="741" y="-196"/>
			<point x="809" y="-222"/>
			<point x="809" y="-292" type="curve" smooth="yes"/>
			<point x="809" y="-361"/>
			<point x="710" y="-420"/>
			<point x="538" y="-420" type="curve" smooth="yes"/>
			<point x="363" y="-420"/>
			<point x="273" y="-361"/>
			<point x="273" y="-276" type="curve" smooth="yes"/>
			<point x="273" y="-209"/>
			<point x="308" y="-158"/>
			<point x="544" y="-124" type="curve"/>
			<point x="543" y="-104" type="line"/>
			<point x="434" y="-104" type="line"/>
			<point x="73" y="-169"/>
			<point x="20" y="-227"/>
			<point x="20" y="-324" type="curve" smooth="yes"/>
			<point x="20" y="-440"/>
			<point x="156" y="-530"/>
		</contour>
		<contour>
			<point x="481" y="244" type="curve" smooth="yes"/>
			<point x="738" y="244"/>
			<point x="910" y="371"/>
			<point x="910" y="574" type="curve" smooth="yes"/>
			<point x="910" y="701"/>
			<point x="793" y="902"/>
			<point x="484" y="902" type="curve" smooth="yes"/>
			<point x="227" y="902"/>
			<point x="55" y="775"/>
			<point x="55" y="572" type="curve" smooth="yes"/>
			<point x="55" y="383"/>
			<point x="203" y="244"/>
		</contour>
		<contour>
			<point x="490" y="347" type="curve" smooth="yes"/>
			<point x="431" y="347"/>
			<point x="389" y="413"/>
			<point x="389" y="608" type="curve" smooth="yes"/>
			<point x="389" y="754"/>
			<point x="423" y="799"/>
			<point x="475" y="799" type="curve" smooth="yes"/>
			<point x="534" y="799"/>
			<point x="576" y="733"/>
			<point x="576" y="538" type="curve" smooth="yes"/>
			<point x="576" y="392"/>
			<point x="542" y="347"/>
		</contour>
		<contour>
			<point x="621" y="823" type="line"/>
			<point x="841" y="890"/>
			<point x="882" y="697"/>
			<point x="986" y="697" type="curve" smooth="yes"/>
			<point x="1034" y="697"/>
			<point x="1087" y="732"/>
			<point x="1087" y="827" type="curve" smooth="yes"/>
			<point x="1087" y="889"/>
			<point x="1059" y="916"/>
			<point x="1015" y="916" type="curve" smooth="yes"/>
			<point x="934" y="916"/>
			<point x="863" y="856"/>
			<point x="610" y="888" type="curve"/>
		</contour>
	</outline>
	<anchor name="top" x="474" y="872"/>
	<anchor name="bottom" x="524" y="-530"/>
</glyph>
<glyph name="h" format="2">
	<unicode hex="0068"/>
	<advance width="1189"/>
	<outline>
		<contour>
			<point x="636" y="42" type="line"/>
			<point x="636" y="0" type="line"/>
			<point x="1173" y="0" type="line"/>
			<point x="1173" y="42" type="line"/>
			<point x="1065" y="97" type="line"/>
			<point x="1065" y="569" type="line" smooth="yes"/>
			<point x="1065" y="793"/>
			<point x="978" y="902"/>
			<point x="794" y="902" type="curve" smooth="yes"/>
			<point x="674" y="902"/>
			<point x="582" y="873"/>
			<point x="398" y="671" type="curve"/>
			<point x="440" y="624" type="line"/>
			<point x="481" y="651"/>
			<point x="534" y="666"/>
			<point x="601" y="666" type="curve" smooth="yes"/>
			<point x="682" y="666"/>
			<point x="717" y="639"/>
			<point x="717" y="559" type="curve" smooth="yes"/>
			<point x="717" y="87" type="line"/>
		</contour>
		<contour>
			<point x="585" y="0" type="line"/>
			<point x="585" y="42" type="line"/>
			<point x="479" y="97" type="line"/>
			<point x="479" y="1186" type="line"/>
			<point x="501" y="1429" type="line"/>
			<point x="462" y="1429" type="line"/>
			<point x="-19" y="1300" type="line"/>
			<point x="-19" y="1243" type="line"/>
			<point x="59" y="1206"/>
			<point x="96" y="1179"/>
			<point x="131" y="1133" type="curve"/>
			<point x="131" y="97" type="line"/>
			<point x="25" y="42" type="line"/>
			<point x="25" y="0" type="line"/>
		</contour>
	</outline>
	<anchor name="UCtop" x="613" y="1340"/>
	<anchor name="bottom" x="609" y="0"/>
	<anchor name="center" x="364" y="1078"/>
</glyph>
<glyph name="i" format="2">
	<unicode hex="0069"/>
	<advance width="631"/>
	<outline>
		<contour>
			<point x="324" y="1053" type="curve" smooth="yes"/>
			<point x="437" y="1053"/>
			<point x="511" y="1134"/>
			<point x="511" y="1243" type="curve" smooth="yes"/>
			<point x="511" y="1349"/>
			<point x="437" y="1429"/>
			<point x="324" y="1429" type="curve" smooth="yes"/>
			<point x="213" y="1429"/>
			<point x="138" y="1349"/>
			<point x="138" y="1243" type="curve" smooth="yes"/>
			<point x="138" y="1134"/>
			<point x="213" y="1053"/>
		</contour>
		<contour>
			<point x="513" y="902" type="line"/>
			<point x="454" y="902" type="line"/>
			<point x="29" y="798" type="line"/>
			<point x="29" y="755" type="line"/>
			<point x="78" y="729"/>
			<point x="118" y="699"/>
			<point x="150" y="653" type="curve"/>
			<point x="150" y="97" type="line"/>
			<point x="44" y="42" type="line"/>
			<point x="44" y="0" type="line"/>
			<point x="604" y="0" type="line"/>
			<point x="604" y="42" type="line"/>
			<point x="498" y="97" type="line"/>
			<point x="498" y="669" type="line"/>
		</contour>
	</outline>
	<anchor name="top" x="309" y="1340"/>
	<anchor name="bottom" x="324" y="0"/>
	<anchor name="right" x="514" y="0"/>
</glyph>
<glyph name="j" format="2">
	<unicode hex="006A"/>
	<advance width="597"/>
	<outline>
		<contour>
			<point x="311" y="1053" type="curve" smooth="yes"/>
			<point x="424" y="1053"/>
			<point x="498" y="1134"/>
			<point x="498" y="1243" type="curve" smooth="yes"/>
			<point x="498" y="1349"/>
			<point x="424" y="1429"/>
			<point x="311" y="1429" type="curve" smooth="yes"/>
			<point x="200" y="1429"/>
			<point x="125" y="1349"/>
			<point x="125" y="1243" type="curve" smooth="yes"/>
			<point x="125" y="1134"/>
			<point x="200" y="1053"/>
		</contour>
		<contour>
			<point x="137" y="653" type="curve"/>
			<point x="137" y="-98" type="line" smooth="yes"/>
			<point x="137" y="-258"/>
			<point x="126" y="-297"/>
			<point x="-27" y="-473" type="curve"/>
			<point x="19" y="-530" type="line"/>
			<point x="440" y="-275"/>
			<point x="485" y="-209"/>
			<point x="485" y="48" type="curve" smooth="yes"/>
			<point x="485" y="669" type="line"/>
			<point x="500" y="902" type="line"/>
			<point x="441" y="902" type="line"/>
			<point x="16" y="798" type="line"/>
			<point x="16" y="755" type="line"/>
			<point x="65" y="729"/>
			<point x="105" y="699"/>
		</contour>
	</outline>
	<anchor name="top" x="307" y="1340"/>
	<anchor name="bottom" x="297" y="-500"/>
</glyph>
<glyph name="k" format="2">
  <advance width="1195.0"/>
  <unicode hex="006B"/>
  <anchor x="602.0" y="1340.0" name="UCtop"/>
  <anchor x="612.0" y="0" name="bottom"/>
  <outline>
    <contour>
      <point x="595.0" y="460.0" type="line"/>
      <point x="1012.0" y="775.0" type="line"/>
      <point x="1151.0" y="824.0" type="line"/>
      <point x="1151.0" y="872.0" type="line"/>
      <point x="722.0" y="872.0" type="line"/>
      <point x="722.0" y="824.0" type="line"/>
      <point x="836.0" y="778.0" type="line"/>
      <point x="556.0" y="549.0" type="line"/>
      <point x="346.0" y="549.0" type="line"/>
      <point x="346.0" y="429.0" type="line"/>
      <point x="528.0" y="429.0" type="line"/>
      <point x="735.0" y="84.0" type="line"/>
      <point x="668.0" y="42.0" type="line"/>
      <point x="668.0" y="0.0" type="line"/>
      <point x="1222.0" y="0.0" type="line"/>
      <point x="1222.0" y="42.0" type="line"/>
      <point x="1123.0" y="97.0" type="line"/>
      <point x="763.0" y="665.0" type="line"/>
    </contour>
    <contour>
      <point x="479.0" y="92.0" type="line"/>
      <point x="479.0" y="1186.0" type="line"/>
      <point x="501.0" y="1429.0" type="line"/>
      <point x="462.0" y="1429.0" type="line"/>
      <point x="-19.0" y="1300.0" type="line"/>
      <point x="-19.0" y="1243.0" type="line"/>
      <point x="59.0" y="1206.0"/>
      <point x="96.0" y="1179.0"/>
      <point x="131.0" y="1133.0" type="curve"/>
      <point x="131.0" y="97.0" type="line"/>
      <point x="25.0" y="42.0" type="line"/>
      <point x="25.0" y="0.0" type="line"/>
      <point x="565.0" y="0.0" type="line"/>
      <point x="565.0" y="42.0" type="line"/>
    </contour>
  </outline>
</glyph>
<glyph name="l" format="2">
	<unicode hex="006C"/>
	<advance width="610"/>
	<outline>
		<contour>
			<point x="479" y="97" type="line"/>
			<point x="479" y="1186" type="line"/>
			<point x="501" y="1429" type="line"/>
			<point x="462" y="1429" type="line"/>
			<point x="-19" y="1300" type="line"/>
			<point x="-19" y="1243" type="line"/>
			<point x="59" y="1206"/>
			<point x="96" y="1179"/>
			<point x="131" y="1133" type="curve"/>
			<point x="131" y="97" type="line"/>
			<point x="25" y="42" type="line"/>
			<point x="25" y="0" type="line"/>
			<point x="585" y="0" type="line"/>
			<point x="585" y="42" type="line"/>
		</contour>
	</outline>
	<anchor name="UCtop" x="293" y="1340"/>
	<anchor name="right" x="479" y="1399"/>
	<anchor name="bottom" x="305" y="0"/>
	<anchor name="mid" x="706" y="552"/>
</glyph>
<glyph name="m" format="2">
	<unicode hex="006D"/>
	<advance width="1746"/>
	<outline>
		<contour>
			<point x="499" y="689" type="line"/>
			<point x="435" y="902" type="line"/>
			<point x="396" y="902" type="line"/>
			<point x="29" y="778" type="line"/>
			<point x="29" y="735" type="line"/>
			<point x="77" y="714"/>
			<point x="115" y="686"/>
			<point x="151" y="633" type="curve"/>
			<point x="151" y="97" type="line"/>
			<point x="45" y="42" type="line"/>
			<point x="45" y="0" type="line"/>
			<point x="567" y="0" type="line"/>
			<point x="567" y="42" type="line"/>
			<point x="499" y="87" type="line"/>
		</contour>
		<contour>
			<point x="1060" y="582" type="line" smooth="yes"/>
			<point x="1060" y="797"/>
			<point x="976" y="902"/>
			<point x="799" y="902" type="curve" smooth="yes"/>
			<point x="684" y="902"/>
			<point x="595" y="874"/>
			<point x="418" y="680" type="curve"/>
			<point x="458" y="637" type="line"/>
			<point x="496" y="662"/>
			<point x="545" y="675"/>
			<point x="606" y="675" type="curve" smooth="yes"/>
			<point x="681" y="675"/>
			<point x="713" y="650"/>
			<point x="713" y="577" type="curve" smooth="yes"/>
			<point x="713" y="87" type="line"/>
			<point x="644" y="42" type="line"/>
			<point x="644" y="0" type="line"/>
			<point x="1129" y="0" type="line"/>
			<point x="1129" y="42" type="line"/>
			<point x="1060" y="87" type="line"/>
		</contour>
		<contour>
			<point x="1622" y="582" type="line" smooth="yes"/>
			<point x="1622" y="797"/>
			<point x="1538" y="902"/>
			<point x="1361" y="902" type="curve" smooth="yes"/>
			<point x="1246" y="902"/>
			<point x="1157" y="874"/>
			<point x="980" y="680" type="curve"/>
			<point x="1020" y="637" type="line"/>
			<point x="1058" y="662"/>
			<point x="1107" y="675"/>
			<point x="1168" y="675" type="curve" smooth="yes"/>
			<point x="1243" y="675"/>
			<point x="1275" y="650"/>
			<point x="1275" y="577" type="curve" smooth="yes"/>
			<point x="1275" y="87" type="line"/>
			<point x="1207" y="42" type="line"/>
			<point x="1207" y="0" type="line"/>
			<point x="1730" y="0" type="line"/>
			<point x="1730" y="42" type="line"/>
			<point x="1622" y="97" type="line"/>
		</contour>
	</outline>
	<anchor name="top" x="887" y="872"/>
	<anchor name="bottom" x="887" y="0"/>
</glyph>
<glyph name="n" format="2">
	<unicode hex="006E"/>
	<advance width="1209"/>
	<outline>
		<contour>
			<point x="499" y="689" type="line"/>
			<point x="435" y="902" type="line"/>
			<point x="396" y="902" type="line"/>
			<point x="29" y="778" type="line"/>
			<point x="29" y="735" type="line"/>
			<point x="77" y="714"/>
			<point x="115" y="686"/>
			<point x="151" y="633" type="curve"/>
			<point x="151" y="97" type="line"/>
			<point x="45" y="42" type="line"/>
			<point x="45" y="0" type="line"/>
			<point x="580" y="0" type="line"/>
			<point x="580" y="42" type="line"/>
			<point x="499" y="87" type="line"/>
		</contour>
		<contour>
			<point x="656" y="42" type="line"/>
			<point x="656" y="0" type="line"/>
			<point x="1193" y="0" type="line"/>
			<point x="1193" y="42" type="line"/>
			<point x="1085" y="97" type="line"/>
			<point x="1085" y="569" type="line" smooth="yes"/>
			<point x="1085" y="793"/>
			<point x="998" y="902"/>
			<point x="814" y="902" type="curve" smooth="yes"/>
			<point x="694" y="902"/>
			<point x="602" y="873"/>
			<point x="418" y="671" type="curve"/>
			<point x="460" y="624" type="line"/>
			<point x="501" y="651"/>
			<point x="554" y="666"/>
			<point x="621" y="666" type="curve" smooth="yes"/>
			<point x="702" y="666"/>
			<point x="737" y="639"/>
			<point x="737" y="559" type="curve" smooth="yes"/>
			<point x="737" y="87" type="line"/>
		</contour>
	</outline>
	<anchor name="top" x="601" y="872"/>
	<anchor name="bottom" x="618" y="0"/>
</glyph>
<glyph name="o" format="2">
	<unicode hex="006F"/>
	<advance width="1076"/>
	<outline>
		<contour>
			<point x="546" y="84" type="curve" smooth="yes"/>
			<point x="450" y="84"/>
			<point x="409" y="223"/>
			<point x="409" y="491" type="curve" smooth="yes"/>
			<point x="409" y="721"/>
			<point x="457" y="788"/>
			<point x="530" y="788" type="curve" smooth="yes"/>
			<point x="626" y="788"/>
			<point x="667" y="649"/>
			<point x="667" y="381" type="curve" smooth="yes"/>
			<point x="667" y="151"/>
			<point x="619" y="84"/>
		</contour>
		<contour>
			<point x="528" y="-30" type="curve" smooth="yes"/>
			<point x="826" y="-30"/>
			<point x="1028" y="170"/>
			<point x="1028" y="451" type="curve" smooth="yes"/>
			<point x="1028" y="720"/>
			<point x="853" y="902"/>
			<point x="548" y="902" type="curve" smooth="yes"/>
			<point x="250" y="902"/>
			<point x="48" y="702"/>
			<point x="48" y="421" type="curve" smooth="yes"/>
			<point x="48" y="152"/>
			<point x="223" y="-30"/>
		</contour>
	</outline>
	<anchor name="top" x="538" y="872"/>
	<anchor name="bottom" x="538" y="0"/>
	<anchor name="horn" x="716" y="872"/>
	<anchor name="right" x="759" y="0"/>
</glyph>
<glyph name="p" format="2">
	<unicode hex="0070"/>
	<advance width="1164"/>
	<outline>
		<contour>
			<point x="759" y="416" type="curve" smooth="yes"/>
			<point x="759" y="164"/>
			<point x="698" y="82"/>
			<point x="603" y="82" type="curve" smooth="yes"/>
			<point x="524" y="82"/>
			<point x="484" y="159"/>
			<point x="484" y="263" type="curve"/>
			<point x="484" y="775" type="line"/>
			<point x="450" y="912" type="line"/>
			<point x="411" y="912" type="line"/>
			<point x="14" y="788" type="line"/>
			<point x="14" y="745" type="line"/>
			<point x="65" y="717"/>
			<point x="105" y="685"/>
			<point x="136" y="643" type="curve"/>
			<point x="136" y="-403" type="line"/>
			<point x="30" y="-458" type="line"/>
			<point x="30" y="-500" type="line"/>
			<point x="613" y="-500" type="line"/>
			<point x="613" y="-458" type="line"/>
			<point x="484" y="-395" type="line"/>
			<point x="484" y="47" type="line"/>
			<point x="286" y="47" type="line"/>
			<point x="413" y="-8"/>
			<point x="498" y="-30"/>
			<point x="606" y="-30" type="curve" smooth="yes"/>
			<point x="881" y="-30"/>
			<point x="1114" y="159"/>
			<point x="1114" y="490" type="curve" smooth="yes"/>
			<point x="1114" y="720"/>
			<point x="985" y="902"/>
			<point x="752" y="902" type="curve" smooth="yes"/>
			<point x="642" y="902"/>
			<point x="526" y="832"/>
			<point x="399" y="756" type="curve"/>
			<point x="438" y="673" type="line"/>
			<point x="483" y="704"/>
			<point x="542" y="714"/>
			<point x="584" y="714" type="curve" smooth="yes"/>
			<point x="692" y="714"/>
			<point x="759" y="620"/>
		</contour>
	</outline>
	<anchor name="top" x="584" y="872"/>
	<anchor name="bottom" x="310" y="-500"/>
</glyph>
<glyph name="q" format="2">
	<unicode hex="0071"/>
	<advance width="1141"/>
	<outline>
		<contour>
			<point x="405" y="468" type="curve" smooth="yes"/>
			<point x="405" y="708"/>
			<point x="466" y="790"/>
			<point x="561" y="790" type="curve" smooth="yes"/>
			<point x="640" y="790"/>
			<point x="680" y="713"/>
			<point x="680" y="609" type="curve" smooth="yes"/>
			<point x="680" y="-395" type="line"/>
			<point x="551" y="-458" type="line"/>
			<point x="551" y="-500" type="line"/>
			<point x="1134" y="-500" type="line"/>
			<point x="1134" y="-458" type="line"/>
			<point x="1028" y="-403" type="line"/>
			<point x="1028" y="669" type="line"/>
			<point x="1063" y="878" type="line"/>
			<point x="1023" y="902" type="line"/>
			<point x="826" y="827" type="line"/>
			<point x="930" y="825" type="line"/>
			<point x="792" y="880"/>
			<point x="699" y="902"/>
			<point x="582" y="902" type="curve" smooth="yes"/>
			<point x="296" y="902"/>
			<point x="50" y="722"/>
			<point x="50" y="392" type="curve" smooth="yes"/>
			<point x="50" y="143"/>
			<point x="178" y="-30"/>
			<point x="422" y="-30" type="curve" smooth="yes"/>
			<point x="500" y="-30"/>
			<point x="585" y="0"/>
			<point x="723" y="89" type="curve"/>
			<point x="723" y="189" type="line"/>
			<point x="678" y="160"/>
			<point x="621" y="150"/>
			<point x="580" y="150" type="curve" smooth="yes"/>
			<point x="472" y="150"/>
			<point x="405" y="247"/>
		</contour>
	</outline>
	<anchor name="top" x="592" y="872"/>
	<anchor name="bottom" x="854" y="-500"/>
</glyph>
<glyph name="r" format="2">
	<unicode hex="0072"/>
	<advance width="903"/>
	<outline>
		<contour>
			<point x="766" y="890" type="curve" smooth="yes"/>
			<point x="653" y="890"/>
			<point x="541" y="811"/>
			<point x="411" y="641" type="curve"/>
			<point x="435" y="580" type="line"/>
			<point x="475" y="615"/>
			<point x="507" y="629"/>
			<point x="552" y="629" type="curve" smooth="yes"/>
			<point x="620" y="629"/>
			<point x="635" y="593"/>
			<point x="737" y="593" type="curve" smooth="yes"/>
			<point x="809" y="593"/>
			<point x="895" y="641"/>
			<point x="895" y="753" type="curve" smooth="yes"/>
			<point x="895" y="825"/>
			<point x="860" y="890"/>
		</contour>
		<contour>
			<point x="499" y="689" type="line"/>
			<point x="464" y="902" type="line"/>
			<point x="425" y="902" type="line"/>
			<point x="30" y="778" type="line"/>
			<point x="30" y="735" type="line"/>
			<point x="77" y="714"/>
			<point x="115" y="686"/>
			<point x="151" y="633" type="curve"/>
			<point x="151" y="97" type="line"/>
			<point x="45" y="42" type="line"/>
			<point x="45" y="0" type="line"/>
			<point x="628" y="0" type="line"/>
			<point x="628" y="42" type="line"/>
			<point x="499" y="105" type="line"/>
		</contour>
	</outline>
	<anchor name="top" x="446" y="872"/>
	<anchor name="bottom" x="325" y="0"/>
</glyph>
<glyph name="s" format="2">
	<unicode hex="0073"/>
	<advance width="833"/>
	<outline>
		<contour>
			<point x="442" y="902" type="curve" smooth="yes"/>
			<point x="247" y="902"/>
			<point x="63" y="799"/>
			<point x="63" y="603" type="curve" smooth="yes"/>
			<point x="63" y="477"/>
			<point x="117" y="371"/>
			<point x="297" y="321" type="curve" smooth="yes"/>
			<point x="477" y="270"/>
			<point x="515" y="239"/>
			<point x="515" y="180" type="curve" smooth="yes"/>
			<point x="515" y="103"/>
			<point x="443" y="68"/>
			<point x="335" y="68" type="curve" smooth="yes"/>
			<point x="274" y="68"/>
			<point x="206" y="77"/>
			<point x="137" y="101" type="curve"/>
			<point x="285" y="17" type="line"/>
			<point x="132" y="280" type="line"/>
			<point x="63" y="280" type="line"/>
			<point x="83" y="23" type="line"/>
			<point x="163" y="-12"/>
			<point x="265" y="-30"/>
			<point x="371" y="-30" type="curve" smooth="yes"/>
			<point x="604" y="-30"/>
			<point x="785" y="71"/>
			<point x="785" y="287" type="curve" smooth="yes"/>
			<point x="785" y="429"/>
			<point x="713" y="526"/>
			<point x="524" y="580" type="curve" smooth="yes"/>
			<point x="335" y="634"/>
			<point x="313" y="667"/>
			<point x="313" y="721" type="curve" smooth="yes"/>
			<point x="313" y="777"/>
			<point x="362" y="808"/>
			<point x="458" y="808" type="curve" smooth="yes"/>
			<point x="503" y="808"/>
			<point x="556" y="794"/>
			<point x="606" y="766" type="curve"/>
			<point x="519" y="848" type="line"/>
			<point x="652" y="610" type="line"/>
			<point x="730" y="610" type="line"/>
			<point x="723" y="850" type="line"/>
			<point x="634" y="884"/>
			<point x="563" y="902"/>
		</contour>
	</outline>
	<anchor name="top" x="396" y="872"/>
	<anchor name="bottom" x="417" y="0"/>
</glyph>
<glyph name="t" format="2">
	<unicode hex="0074"/>
	<advance width="814"/>
	<outline>
		<contour>
			<point x="487" y="281" type="curve" smooth="yes"/>
			<point x="487" y="852" type="line"/>
			<point x="487" y="1083" type="line"/>
			<point x="398" y="1083" type="line"/>
			<point x="296" y="1020"/>
			<point x="105" y="905"/>
			<point x="-4" y="840" type="curve"/>
			<point x="-4" y="786" type="line"/>
			<point x="140" y="672" type="line"/>
			<point x="140" y="256" type="line" smooth="yes"/>
			<point x="140" y="53"/>
			<point x="271" y="-30"/>
			<point x="455" y="-30" type="curve" smooth="yes"/>
			<point x="544" y="-30"/>
			<point x="676" y="27"/>
			<point x="824" y="149" type="curve"/>
			<point x="824" y="215" type="line"/>
			<point x="752" y="189"/>
			<point x="690" y="177"/>
			<point x="639" y="177" type="curve" smooth="yes"/>
			<point x="542" y="177"/>
			<point x="487" y="218"/>
		</contour>
		<contour>
			<point x="343" y="722" type="line"/>
			<point x="763" y="722" type="line"/>
			<point x="785" y="872" type="line"/>
			<point x="343" y="872" type="line"/>
		</contour>
	</outline>
	<anchor name="right" x="489" y="1399"/>
	<anchor name="bottom" x="480" y="0"/>
</glyph>
<glyph name="u" format="2">
	<unicode hex="0075"/>
	<advance width="1174"/>
	<outline>
		<contour>
			<point x="477" y="305" type="curve" smooth="yes"/>
			<point x="477" y="745" type="line"/>
			<point x="492" y="892" type="line"/>
			<point x="12" y="848" type="line"/>
			<point x="12" y="792" type="line"/>
			<point x="130" y="727" type="line"/>
			<point x="130" y="293" type="line" smooth="yes"/>
			<point x="130" y="76"/>
			<point x="214" y="-30"/>
			<point x="392" y="-30" type="curve" smooth="yes"/>
			<point x="509" y="-30"/>
			<point x="598" y="-2"/>
			<point x="776" y="194" type="curve"/>
			<point x="735" y="244" type="line"/>
			<point x="698" y="219"/>
			<point x="648" y="206"/>
			<point x="585" y="206" type="curve" smooth="yes"/>
			<point x="510" y="206"/>
			<point x="477" y="231"/>
		</contour>
		<contour>
			<point x="710" y="-20" type="line"/>
			<point x="749" y="-20" type="line"/>
			<point x="1163" y="52" type="line"/>
			<point x="1163" y="95" type="line"/>
			<point x="1105" y="119"/>
			<point x="1067" y="145"/>
			<point x="1032" y="183" type="curve"/>
			<point x="1032" y="735" type="line"/>
			<point x="1051" y="892" type="line"/>
			<point x="595" y="848" type="line"/>
			<point x="595" y="792" type="line"/>
			<point x="684" y="737" type="line"/>
			<point x="684" y="193" type="line"/>
		</contour>
	</outline>
	<anchor name="top" x="548" y="872"/>
	<anchor name="right" x="945" y="0"/>
	<anchor name="bottom" x="576" y="0"/>
	<anchor name="horn" x="926" y="872"/>
</glyph>
<glyph name="v" format="2">
	<unicode hex="0076"/>
	<advance width="1105"/>
	<outline>
		<contour>
			<point x="1004" y="782" type="line"/>
			<point x="1099" y="825" type="line"/>
			<point x="1099" y="872" type="line"/>
			<point x="767" y="872" type="line"/>
			<point x="767" y="825" type="line"/>
			<point x="866" y="784" type="line"/>
			<point x="634" y="165" type="line"/>
			<point x="737" y="168" type="line"/>
			<point x="473" y="788" type="line"/>
			<point x="575" y="825" type="line"/>
			<point x="575" y="872" type="line"/>
			<point x="-25" y="872" type="line"/>
			<point x="-25" y="827" type="line"/>
			<point x="91" y="775" type="line"/>
			<point x="450" y="0" type="line"/>
			<point x="675" y="0" type="line"/>
		</contour>
	</outline>
	<anchor name="top" x="597" y="872"/>
	<anchor name="bottom" x="567" y="0"/>
</glyph>
<glyph name="w" format="2">
	<unicode hex="0077"/>
	<advance width="1596"/>
	<outline>
		<contour>
			<point x="1366" y="791" type="line"/>
			<point x="1222" y="215" type="line"/>
			<point x="1287" y="215" type="line"/>
			<point x="1036" y="872" type="line"/>
			<point x="792" y="872" type="line"/>
			<point x="555" y="217" type="line"/>
			<point x="618" y="217" type="line"/>
			<point x="455" y="788" type="line"/>
			<point x="557" y="825" type="line"/>
			<point x="557" y="872" type="line"/>
			<point x="-20" y="872" type="line"/>
			<point x="-20" y="827" type="line"/>
			<point x="96" y="775" type="line"/>
			<point x="346" y="0" type="line"/>
			<point x="581" y="0" type="line"/>
			<point x="842" y="685" type="line"/>
			<point x="759" y="633" type="line"/>
			<point x="1026" y="0" type="line"/>
			<point x="1261" y="0" type="line"/>
			<point x="1499" y="788" type="line"/>
			<point x="1592" y="825" type="line"/>
			<point x="1592" y="872" type="line"/>
			<point x="1270" y="872" type="line"/>
			<point x="1270" y="825" type="line"/>
		</contour>
	</outline>
	<anchor name="top" x="866" y="872"/>
	<anchor name="bottom" x="866" y="0"/>
</glyph>
<glyph name="x" format="2">
	<unicode hex="0078"/>
	<advance width="1067"/>
	<outline>
		<contour>
			<point x="1007" y="92" type="line"/>
			<point x="661" y="534" type="line"/>
			<point x="638" y="561" type="line"/>
			<point x="467" y="793" type="line"/>
			<point x="560" y="828" type="line"/>
			<point x="560" y="872" type="line"/>
			<point x="-4" y="872" type="line"/>
			<point x="-4" y="828" type="line"/>
			<point x="82" y="780" type="line"/>
			<point x="424" y="351" type="line"/>
			<point x="441" y="325" type="line"/>
			<point x="622" y="79" type="line"/>
			<point x="539" y="44" type="line"/>
			<point x="539" y="0" type="line"/>
			<point x="1093" y="0" type="line"/>
			<point x="1093" y="44" type="line"/>
		</contour>
		<contour>
			<point x="539" y="430" type="line"/>
			<point x="606" y="430" type="line"/>
			<point x="921" y="787" type="line"/>
			<point x="1028" y="828" type="line"/>
			<point x="1028" y="872" type="line"/>
			<point x="661" y="872" type="line"/>
			<point x="661" y="828" type="line"/>
			<point x="770" y="790" type="line"/>
			<point x="520" y="474" type="line"/>
			<point x="456" y="474" type="line"/>
			<point x="110" y="85" type="line"/>
			<point x="-3" y="44" type="line"/>
			<point x="-3" y="0" type="line"/>
			<point x="374" y="0" type="line"/>
			<point x="374" y="44" type="line"/>
			<point x="261" y="82" type="line"/>
		</contour>
	</outline>
	<anchor name="top" x="544" y="872"/>
	<anchor name="bottom" x="544" y="0"/>
</glyph>
<glyph name="y" format="2">
	<unicode hex="0079"/>
	<advance width="1132"/>
	<outline>
		<contour>
			<point x="749" y="210" type="line"/>
			<point x="483" y="788" type="line"/>
			<point x="585" y="825" type="line"/>
			<point x="585" y="872" type="line"/>
			<point x="-21" y="872" type="line"/>
			<point x="-21" y="827" type="line"/>
			<point x="95" y="774" type="line"/>
			<point x="582" y="-184" type="line"/>
		</contour>
		<contour>
			<point x="261" y="-530" type="curve" smooth="yes"/>
			<point x="428" y="-530"/>
			<point x="508" y="-477"/>
			<point x="631" y="-188" type="curve" smooth="yes"/>
			<point x="1046" y="788" type="line"/>
			<point x="1139" y="825" type="line"/>
			<point x="1139" y="872" type="line"/>
			<point x="809" y="872" type="line"/>
			<point x="809" y="825" type="line"/>
			<point x="899" y="792" type="line"/>
			<point x="695" y="200" type="line"/>
			<point x="648" y="92" type="line"/>
			<point x="529" y="-143" type="line" smooth="yes"/>
			<point x="463" y="-273"/>
			<point x="416" y="-298"/>
			<point x="339" y="-298" type="curve" smooth="yes"/>
			<point x="257" y="-298"/>
			<point x="222" y="-267"/>
			<point x="189" y="-267" type="curve" smooth="yes"/>
			<point x="155" y="-267"/>
			<point x="97" y="-311"/>
			<point x="97" y="-386" type="curve" smooth="yes"/>
			<point x="97" y="-476"/>
			<point x="165" y="-530"/>
		</contour>
	</outline>
	<anchor name="top" x="637" y="872"/>
	<anchor name="bottom" x="811" y="-121"/>
</glyph>
<glyph name="z" format="2">
	<unicode hex="007A"/>
	<advance width="943"/>
	<outline>
		<contour>
			<point x="52" y="0" type="line"/>
			<point x="854" y="0" type="line"/>
			<point x="935" y="317" type="line"/>
			<point x="864" y="317" type="line"/>
			<point x="659" y="37" type="line"/>
			<point x="770" y="128" type="line"/>
			<point x="208" y="91" type="line"/>
			<point x="404" y="31" type="line"/>
			<point x="881" y="827" type="line"/>
			<point x="881" y="872" type="line"/>
			<point x="221" y="872" type="line"/>
			<point x="122" y="902" type="line"/>
			<point x="93" y="902" type="line"/>
			<point x="33" y="570" type="line"/>
			<point x="110" y="570" type="line"/>
			<point x="271" y="843" type="line"/>
			<point x="123" y="746" type="line"/>
			<point x="713" y="779" type="line"/>
			<point x="525" y="839" type="line"/>
			<point x="52" y="44" type="line"/>
		</contour>
	</outline>
	<anchor name="top" x="491" y="872"/>
	<anchor name="bottom" x="484" y="0"/>
</glyph>
<glyph name="braceleft" format="2">
	<unicode hex="007B"/>
	<advance width="602"/>
	<outline>
		<contour>
			<point x="37" y="529" type="line"/>
			<point x="82" y="526" type="line" smooth="yes"/>
			<point x="171" y="520"/>
			<point x="195" y="488"/>
			<point x="195" y="394" type="curve" smooth="yes"/>
			<point x="195" y="288"/>
			<point x="134" y="128"/>
			<point x="134" y="21" type="curve" smooth="yes"/>
			<point x="134" y="-130"/>
			<point x="247" y="-245"/>
			<point x="462" y="-270" type="curve" smooth="yes"/>
			<point x="557" y="-281" type="line"/>
			<point x="567" y="-195" type="line"/>
			<point x="519" y="-188" type="line" smooth="yes"/>
			<point x="423" y="-174"/>
			<point x="383" y="-118"/>
			<point x="383" y="-15" type="curve" smooth="yes"/>
			<point x="383" y="80"/>
			<point x="402" y="202"/>
			<point x="402" y="347" type="curve" smooth="yes"/>
			<point x="402" y="472"/>
			<point x="344" y="554"/>
			<point x="212" y="580" type="curve"/>
			<point x="212" y="568" type="line"/>
			<point x="344" y="594"/>
			<point x="402" y="676"/>
			<point x="402" y="801" type="curve" smooth="yes"/>
			<point x="402" y="946"/>
			<point x="383" y="1068"/>
			<point x="383" y="1163" type="curve" smooth="yes"/>
			<point x="383" y="1266"/>
			<point x="423" y="1322"/>
			<point x="519" y="1336" type="curve" smooth="yes"/>
			<point x="567" y="1343" type="line"/>
			<point x="557" y="1429" type="line"/>
			<point x="462" y="1418" type="line" smooth="yes"/>
			<point x="247" y="1393"/>
			<point x="134" y="1278"/>
			<point x="134" y="1127" type="curve" smooth="yes"/>
			<point x="134" y="1020"/>
			<point x="195" y="860"/>
			<point x="195" y="754" type="curve" smooth="yes"/>
			<point x="195" y="660"/>
			<point x="171" y="628"/>
			<point x="82" y="622" type="curve" smooth="yes"/>
			<point x="37" y="619" type="line"/>
		</contour>
	</outline>
</glyph>
<glyph name="bar" format="2">
	<unicode hex="007C"/>
	<advance width="438"/>
	<outline>
		<contour>
			<point x="155" y="-530" type="line"/>
			<point x="283" y="-530" type="line"/>
			<point x="283" y="1470" type="line"/>
			<point x="155" y="1470" type="line"/>
		</contour>
	</outline>
</glyph>
<glyph name="braceright" format="2">
	<unicode hex="007D"/>
	<advance width="602"/>
	<outline>
		<contour>
			<point x="565" y="619" type="line"/>
			<point x="520" y="622" type="line" smooth="yes"/>
			<point x="431" y="628"/>
			<point x="407" y="660"/>
			<point x="407" y="754" type="curve" smooth="yes"/>
			<point x="407" y="860"/>
			<point x="468" y="1020"/>
			<point x="468" y="1127" type="curve" smooth="yes"/>
			<point x="468" y="1278"/>
			<point x="355" y="1393"/>
			<point x="140" y="1418" type="curve" smooth="yes"/>
			<point x="45" y="1429" type="line"/>
			<point x="35" y="1343" type="line"/>
			<point x="83" y="1336" type="line" smooth="yes"/>
			<point x="179" y="1322"/>
			<point x="219" y="1266"/>
			<point x="219" y="1163" type="curve" smooth="yes"/>
			<point x="219" y="1068"/>
			<point x="200" y="946"/>
			<point x="200" y="801" type="curve" smooth="yes"/>
			<point x="200" y="676"/>
			<point x="258" y="594"/>
			<point x="390" y="568" type="curve"/>
			<point x="390" y="580" type="line"/>
			<point x="258" y="554"/>
			<point x="200" y="472"/>
			<point x="200" y="347" type="curve" smooth="yes"/>
			<point x="200" y="202"/>
			<point x="219" y="80"/>
			<point x="219" y="-15" type="curve" smooth="yes"/>
			<point x="219" y="-118"/>
			<point x="179" y="-174"/>
			<point x="83" y="-188" type="curve" smooth="yes"/>
			<point x="35" y="-195" type="line"/>
			<point x="45" y="-281" type="line"/>
			<point x="140" y="-270" type="line" smooth="yes"/>
			<point x="355" y="-245"/>
			<point x="468" y="-130"/>
			<point x="468" y="21" type="curve" smooth="yes"/>
			<point x="468" y="128"/>
			<point x="407" y="288"/>
			<point x="407" y="394" type="curve" smooth="yes"/>
			<point x="407" y="488"/>
			<point x="431" y="520"/>
			<point x="520" y="526" type="curve" smooth="yes"/>
			<point x="565" y="529" type="line"/>
		</contour>
	</outline>
</glyph>
<glyph name="asciitilde" format="2">
	<unicode hex="007E"/>
	<advance width="1000"/>
	<outline>
		<contour>
			<point x="111" y="305" type="curve"/>
			<point x="257" y="305" type="line"/>
			<point x="260" y="406"/>
			<point x="285" y="431"/>
			<point x="343" y="431" type="curve" smooth="yes"/>
			<point x="434" y="431"/>
			<point x="508" y="298"/>
			<point x="662" y="298" type="curve" smooth="yes"/>
			<point x="814" y="298"/>
			<point x="889" y="379"/>
			<point x="889" y="567" type="curve"/>
			<point x="743" y="567" type="line"/>
			<point x="740" y="466"/>
			<point x="715" y="441"/>
			<point x="657" y="441" type="curve" smooth="yes"/>
			<point x="566" y="441"/>
			<point x="492" y="574"/>
			<point x="338" y="574" type="curve" smooth="yes"/>
			<point x="186" y="574"/>
			<point x="111" y="493"/>
		</contour>
	</outline>
</glyph>
<glyph name="exclamdown" format="2">
	<unicode hex="00A1"/>
	<advance width="557"/>
	<outline>
		<contour>
			<point x="59" y="-359" type="line" smooth="yes"/>
			<point x="59" y="-459"/>
			<point x="169" y="-508"/>
			<point x="279" y="-508" type="curve" smooth="yes"/>
			<point x="389" y="-508"/>
			<point x="499" y="-459"/>
			<point x="499" y="-359" type="curve" smooth="yes"/>
			<point x="499" y="-344" type="line" smooth="yes"/>
			<point x="499" y="-267"/>
			<point x="441" y="-138"/>
			<point x="315" y="360" type="curve"/>
			<point x="243" y="360" type="line"/>
			<point x="117" y="-138"/>
			<point x="59" y="-267"/>
			<point x="59" y="-344" type="curve" smooth="yes"/>
		</contour>
		<contour>
			<point x="277" y="513" type="curve" smooth="yes"/>
			<point x="388" y="513"/>
			<point x="468" y="596"/>
			<point x="468" y="699" type="curve" smooth="yes"/>
			<point x="468" y="803"/>
			<point x="388" y="886"/>
			<point x="277" y="886" type="curve" smooth="yes"/>
			<point x="166" y="886"/>
			<point x="86" y="803"/>
			<point x="86" y="699" type="curve" smooth="yes"/>
			<point x="86" y="596"/>
			<point x="166" y="513"/>
		</contour>
	</outline>
</glyph>
<glyph name="currency" format="2">
	<unicode hex="00A4"/>
	<advance width="892"/>
	<outline>
		<contour>
			<point x="193" y="790" type="line"/>
			<point x="92" y="689" type="line"/>
			<point x="232" y="549" type="line"/>
			<point x="333" y="650" type="line"/>
		</contour>
		<contour>
			<point x="92" y="183" type="line"/>
			<point x="193" y="82" type="line"/>
			<point x="330" y="219" type="line"/>
			<point x="229" y="320" type="line"/>
		</contour>
		<contour>
			<point x="446" y="733" type="curve" smooth="yes"/>
			<point x="272" y="733"/>
			<point x="148" y="609"/>
			<point x="148" y="436" type="curve" smooth="yes"/>
			<point x="148" y="263"/>
			<point x="272" y="139"/>
			<point x="446" y="139" type="curve" smooth="yes"/>
			<point x="620" y="139"/>
			<point x="744" y="263"/>
			<point x="744" y="436" type="curve" smooth="yes"/>
			<point x="744" y="609"/>
			<point x="620" y="733"/>
		</contour>
		<contour>
			<point x="446" y="269" type="curve" smooth="yes"/>
			<point x="350" y="269"/>
			<point x="283" y="336"/>
			<point x="283" y="436" type="curve" smooth="yes"/>
			<point x="283" y="536"/>
			<point x="350" y="603"/>
			<point x="446" y="603" type="curve" smooth="yes"/>
			<point x="542" y="603"/>
			<point x="609" y="536"/>
			<point x="609" y="436" type="curve" smooth="yes"/>
			<point x="609" y="336"/>
			<point x="542" y="269"/>
		</contour>
		<contour>
			<point x="800" y="689" type="line"/>
			<point x="699" y="790" type="line"/>
			<point x="559" y="650" type="line"/>
			<point x="660" y="549" type="line"/>
		</contour>
		<contour>
			<point x="800" y="183" type="line"/>
			<point x="663" y="320" type="line"/>
			<point x="562" y="219" type="line"/>
			<point x="699" y="82" type="line"/>
		</contour>
	</outline>
</glyph>
<glyph name="brokenbar" format="2">
	<unicode hex="00A6"/>
	<advance width="438"/>
	<outline>
		<contour>
			<point x="283" y="725" type="line"/>
			<point x="283" y="1470" type="line"/>
			<point x="155" y="1470" type="line"/>
			<point x="155" y="725" type="line"/>
		</contour>
		<contour>
			<point x="155" y="-530" type="line"/>
			<point x="283" y="-530" type="line"/>
			<point x="283" y="345" type="line"/>
			<point x="155" y="345" type="line"/>
		</contour>
	</outline>
</glyph>
<glyph name="section" format="2">
  <advance width="1239.0"/>
  <unicode hex="00A7"/>
  <outline>
    <contour>
      <point x="533.0" y="-285.0" type="curve" smooth="yes"/>
      <point x="884.0" y="-285.0"/>
      <point x="1044.0" y="-123.0"/>
      <point x="1044.0" y="80.0" type="curve" smooth="yes"/>
      <point x="1044.0" y="479.0"/>
      <point x="360.0" y="384.0"/>
      <point x="360.0" y="604.0" type="curve" smooth="yes"/>
      <point x="360.0" y="656.0"/>
      <point x="388.0" y="693.0"/>
      <point x="460.0" y="721.0" type="curve"/>
      <point x="391.0" y="788.0" type="line"/>
      <point x="197.0" y="741.0"/>
      <point x="79.0" y="631.0"/>
      <point x="79.0" y="466.0" type="curve" smooth="yes"/>
      <point x="79.0" y="27.0"/>
      <point x="777.0" y="164.0"/>
      <point x="777.0" y="-73.0" type="curve" smooth="yes"/>
      <point x="777.0" y="-132.0"/>
      <point x="734.0" y="-174.0"/>
      <point x="615.0" y="-174.0" type="curve" smooth="yes"/>
      <point x="452.0" y="-174.0"/>
      <point x="428.0" y="5.0"/>
      <point x="304.0" y="5.0" type="curve" smooth="yes"/>
      <point x="234.0" y="5.0"/>
      <point x="185.0" y="-35.0"/>
      <point x="185.0" y="-105.0" type="curve" smooth="yes"/>
      <point x="185.0" y="-202.0"/>
      <point x="285.0" y="-285.0"/>
    </contour>
    <contour>
      <point x="879.0" y="481.0" type="curve" smooth="yes"/>
      <point x="879.0" y="429.0"/>
      <point x="851.0" y="392.0"/>
      <point x="779.0" y="364.0" type="curve"/>
      <point x="848.0" y="297.0" type="line"/>
      <point x="1042.0" y="344.0"/>
      <point x="1160.0" y="454.0"/>
      <point x="1160.0" y="619.0" type="curve" smooth="yes"/>
      <point x="1160.0" y="1058.0"/>
      <point x="462.0" y="921.0"/>
      <point x="462.0" y="1158.0" type="curve" smooth="yes"/>
      <point x="462.0" y="1217.0"/>
      <point x="505.0" y="1259.0"/>
      <point x="624.0" y="1259.0" type="curve" smooth="yes"/>
      <point x="787.0" y="1259.0"/>
      <point x="811.0" y="1080.0"/>
      <point x="935.0" y="1080.0" type="curve" smooth="yes"/>
      <point x="1005.0" y="1080.0"/>
      <point x="1054.0" y="1120.0"/>
      <point x="1054.0" y="1190.0" type="curve" smooth="yes"/>
      <point x="1054.0" y="1287.0"/>
      <point x="954.0" y="1370.0"/>
      <point x="706.0" y="1370.0" type="curve" smooth="yes"/>
      <point x="355.0" y="1370.0"/>
      <point x="195.0" y="1208.0"/>
      <point x="195.0" y="1005.0" type="curve" smooth="yes"/>
      <point x="195.0" y="606.0"/>
      <point x="879.0" y="701.0"/>
    </contour>
  </outline>
</glyph>
<glyph name="copyright" format="2">
	<unicode hex="00A9"/>
	<advance width="1608"/>
	<outline>
		<contour>
			<point x="802" y="1370" type="curve" smooth="yes"/>
			<point x="391" y="1370"/>
			<point x="97" y="1079"/>
			<point x="97" y="669" type="curve" smooth="yes"/>
			<point x="97" y="259"/>
			<point x="391" y="-30"/>
			<point x="802" y="-30" type="curve" smooth="yes"/>
			<point x="1215" y="-30"/>
			<point x="1511" y="259"/>
			<point x="1511" y="669" type="curve" smooth="yes"/>
			<point x="1511" y="1079"/>
			<point x="1215" y="1370"/>
		</contour>
		<contour>
			<point x="802" y="1264" type="curve" smooth="yes"/>
			<point x="1144" y="1264"/>
			<point x="1392" y="1019"/>
			<point x="1392" y="669" type="curve" smooth="yes"/>
			<point x="1392" y="320"/>
			<point x="1144" y="75"/>
			<point x="802" y="75" type="curve" smooth="yes"/>
			<point x="463" y="75"/>
			<point x="215" y="320"/>
			<point x="215" y="669" type="curve" smooth="yes"/>
			<point x="215" y="1019"/>
			<point x="463" y="1264"/>
		</contour>
		<contour>
			<point x="927" y="363" type="curve" smooth="yes"/>
			<point x="819" y="363"/>
			<point x="732" y="500"/>
			<point x="732" y="719" type="curve" smooth="yes"/>
			<point x="732" y="919"/>
			<point x="791" y="987"/>
			<point x="874" y="987" type="curve" smooth="yes"/>
			<point x="917" y="987"/>
			<point x="961" y="972"/>
			<point x="998" y="939" type="curve"/>
			<point x="947" y="1001" type="line"/>
			<point x="1081" y="776" type="line"/>
			<point x="1128" y="789" type="line"/>
			<point x="1088" y="1091" type="line"/>
			<point x="1051" y="1091" type="line"/>
			<point x="973" y="1027" type="line"/>
			<point x="1040" y="1042" type="line"/>
			<point x="970" y="1059"/>
			<point x="932" y="1065"/>
			<point x="878" y="1065" type="curve" smooth="yes"/>
			<point x="599" y="1065"/>
			<point x="425" y="911"/>
			<point x="425" y="682" type="curve" smooth="yes"/>
			<point x="425" y="421"/>
			<point x="597" y="285"/>
			<point x="874" y="285" type="curve" smooth="yes"/>
			<point x="965" y="285"/>
			<point x="1022" y="294"/>
			<point x="1098" y="311" type="curve"/>
			<point x="1154" y="531" type="line"/>
			<point x="1108" y="531" type="line"/>
			<point x="951" y="335" type="line"/>
			<point x="1026" y="395" type="line"/>
			<point x="993" y="373"/>
			<point x="964" y="363"/>
		</contour>
	</outline>
</glyph>
<glyph name="ordfeminine" format="2">
  <advance width="916"/>
  <unicode hex="00AA"/>
  <outline>
    <contour>
      <point x="128.0" y="443.0" type="line"/>
      <point x="826.0" y="443.0" type="line"/>
      <point x="826.0" y="575.0" type="line"/>
      <point x="128.0" y="575.0" type="line"/>
    </contour>
    <contour>
      <point x="491.0" y="1011.0" type="curve"/>
      <point x="491.0" y="1099.0" type="line"/>
      <point x="163.0" y="1026.0"/>
      <point x="88.0" y="953.0"/>
      <point x="88.0" y="845.0" type="curve" smooth="yes"/>
      <point x="88.0" y="725.0"/>
      <point x="166.0" y="670.0"/>
      <point x="278.0" y="670.0" type="curve" smooth="yes"/>
      <point x="376.0" y="670.0"/>
      <point x="462.0" y="737.0"/>
      <point x="483.0" y="854.0" type="curve"/>
      <point x="474.0" y="854.0" type="line"/>
      <point x="477.0" y="758.0"/>
      <point x="518.0" y="670.0"/>
      <point x="640.0" y="670.0" type="curve" smooth="yes"/>
      <point x="699.0" y="670.0"/>
      <point x="773.0" y="696.0"/>
      <point x="833.0" y="740.0" type="curve"/>
      <point x="833.0" y="802.0" type="line"/>
      <point x="813.0" y="796.0"/>
      <point x="796.0" y="793.0"/>
      <point x="781.0" y="793.0" type="curve" smooth="yes"/>
      <point x="758.0" y="793.0"/>
      <point x="747.0" y="807.0"/>
      <point x="747.0" y="831.0" type="curve" smooth="yes"/>
      <point x="747.0" y="1139.0" type="line" smooth="yes"/>
      <point x="747.0" y="1264.0"/>
      <point x="706.0" y="1360.0"/>
      <point x="483.0" y="1360.0" type="curve"/>
      <point x="291.0" y="1360.0"/>
      <point x="100.0" y="1269.0"/>
      <point x="100.0" y="1174.0" type="curve" smooth="yes"/>
      <point x="100.0" y="1140.0"/>
      <point x="128.0" y="1123.0"/>
      <point x="179.0" y="1123.0" type="curve" smooth="yes"/>
      <point x="213.0" y="1123.0"/>
      <point x="241.0" y="1130.0"/>
      <point x="263.0" y="1156.0" type="curve" smooth="yes"/>
      <point x="286.0" y="1182.0"/>
      <point x="302.0" y="1229.0"/>
      <point x="311.0" y="1310.0" type="curve"/>
      <point x="292.0" y="1241.0" type="line"/>
      <point x="312.0" y="1248.0"/>
      <point x="341.0" y="1252.0"/>
      <point x="370.0" y="1252.0" type="curve" smooth="yes"/>
      <point x="434.0" y="1252.0"/>
      <point x="463.0" y="1221.0"/>
      <point x="463.0" y="1172.0" type="curve" smooth="yes"/>
      <point x="463.0" y="901.0" type="line" smooth="yes"/>
      <point x="463.0" y="862.0"/>
      <point x="436.0" y="830.0"/>
      <point x="401.0" y="830.0" type="curve" smooth="yes"/>
      <point x="372.0" y="830.0"/>
      <point x="350.0" y="850.0"/>
      <point x="350.0" y="908.0" type="curve" smooth="yes"/>
      <point x="350.0" y="954.0"/>
      <point x="371.0" y="983.0"/>
    </contour>
  </outline>
</glyph>
<glyph name="guillemotleft" format="2">
	<unicode hex="00AB"/>
	<advance width="1039"/>
	<outline>
		<contour>
			<point x="305" y="495" type="line"/>
			<point x="305" y="377" type="line"/>
			<point x="531" y="820" type="line"/>
			<point x="466" y="872" type="line"/>
			<point x="38" y="484" type="line"/>
			<point x="38" y="388" type="line"/>
			<point x="466" y="0" type="line"/>
			<point x="531" y="52" type="line"/>
		</contour>
		<contour>
			<point x="755" y="495" type="line"/>
			<point x="755" y="377" type="line"/>
			<point x="981" y="820" type="line"/>
			<point x="916" y="872" type="line"/>
			<point x="488" y="484" type="line"/>
			<point x="488" y="388" type="line"/>
			<point x="916" y="0" type="line"/>
			<point x="981" y="52" type="line"/>
		</contour>
	</outline>
</glyph>
<glyph name="logicalnot" format="2">
	<unicode hex="00AC"/>
	<advance width="1000"/>
	<outline>
		<contour>
			<point x="106" y="678" type="line"/>
			<point x="106" y="534" type="line"/>
			<point x="880" y="534" type="line"/>
			<point x="880" y="678" type="line"/>
		</contour>
		<contour>
			<point x="880" y="633" type="line"/>
			<point x="736" y="633" type="line"/>
			<point x="736" y="194" type="line"/>
			<point x="880" y="194" type="line"/>
		</contour>
	</outline>
</glyph>
<glyph name="registered" format="2">
	<unicode hex="00AE"/>
	<advance width="1069"/>
	<outline>
		<contour>
			<point x="532" y="1370" type="curve" smooth="yes"/>
			<point x="282" y="1370"/>
			<point x="93" y="1189"/>
			<point x="93" y="934" type="curve" smooth="yes"/>
			<point x="93" y="680"/>
			<point x="282" y="496"/>
			<point x="532" y="496" type="curve" smooth="yes"/>
			<point x="784" y="496"/>
			<point x="976" y="680"/>
			<point x="976" y="934" type="curve" smooth="yes"/>
			<point x="976" y="1189"/>
			<point x="784" y="1370"/>
		</contour>
		<contour>
			<point x="532" y="1283" type="curve" smooth="yes"/>
			<point x="731" y="1283"/>
			<point x="883" y="1141"/>
			<point x="883" y="934" type="curve" smooth="yes"/>
			<point x="883" y="729"/>
			<point x="731" y="584"/>
			<point x="532" y="584" type="curve" smooth="yes"/>
			<point x="335" y="584"/>
			<point x="186" y="729"/>
			<point x="186" y="934" type="curve" smooth="yes"/>
			<point x="186" y="1141"/>
			<point x="335" y="1283"/>
		</contour>
		<contour>
			<point x="455" y="967" type="line"/>
			<point x="457" y="904" type="line"/>
			<point x="530" y="904" type="line" smooth="yes"/>
			<point x="572" y="904"/>
			<point x="583" y="888"/>
			<point x="586" y="862" type="curve" smooth="yes"/>
			<point x="592" y="812" type="line" smooth="yes"/>
			<point x="603" y="719"/>
			<point x="628" y="701"/>
			<point x="779" y="718" type="curve"/>
			<point x="779" y="751" type="line"/>
			<point x="755" y="751"/>
			<point x="747" y="757"/>
			<point x="741" y="795" type="curve" smooth="yes"/>
			<point x="733" y="858" type="line" smooth="yes"/>
			<point x="724" y="921"/>
			<point x="689" y="948"/>
			<point x="617" y="951" type="curve"/>
			<point x="617" y="950" type="line"/>
			<point x="707" y="951"/>
			<point x="754" y="1002"/>
			<point x="754" y="1062" type="curve" smooth="yes"/>
			<point x="754" y="1121"/>
			<point x="715" y="1166"/>
			<point x="599" y="1166" type="curve" smooth="yes"/>
			<point x="455" y="1166" type="line"/>
			<point x="473" y="1106" type="line"/>
			<point x="558" y="1106" type="line" smooth="yes"/>
			<point x="594" y="1106"/>
			<point x="614" y="1089"/>
			<point x="614" y="1042" type="curve" smooth="yes"/>
			<point x="614" y="993"/>
			<point x="594" y="967"/>
			<point x="550" y="967" type="curve" smooth="yes"/>
		</contour>
		<contour>
			<point x="358" y="1114" type="line"/>
			<point x="358" y="771" type="line"/>
			<point x="313" y="751" type="line"/>
			<point x="313" y="717" type="line"/>
			<point x="548" y="717" type="line"/>
			<point x="548" y="751" type="line"/>
			<point x="504" y="771" type="line"/>
			<point x="504" y="1166" type="line"/>
			<point x="313" y="1166" type="line"/>
			<point x="313" y="1134" type="line"/>
		</contour>
	</outline>
</glyph>
<glyph name="degree" format="2">
	<unicode hex="00B0"/>
	<advance width="734"/>
	<outline>
		<contour>
			<point x="367" y="1360" type="curve" smooth="yes"/>
			<point x="185" y="1360"/>
			<point x="55" y="1232"/>
			<point x="55" y="1050" type="curve" smooth="yes"/>
			<point x="55" y="868"/>
			<point x="185" y="740"/>
			<point x="367" y="740" type="curve" smooth="yes"/>
			<point x="549" y="740"/>
			<point x="679" y="868"/>
			<point x="679" y="1050" type="curve" smooth="yes"/>
			<point x="679" y="1232"/>
			<point x="549" y="1360"/>
		</contour>
		<contour>
			<point x="367" y="840" type="curve" smooth="yes"/>
			<point x="247" y="840"/>
			<point x="160" y="924"/>
			<point x="160" y="1050" type="curve" smooth="yes"/>
			<point x="160" y="1176"/>
			<point x="247" y="1260"/>
			<point x="367" y="1260" type="curve" smooth="yes"/>
			<point x="487" y="1260"/>
			<point x="574" y="1176"/>
			<point x="574" y="1050" type="curve" smooth="yes"/>
			<point x="574" y="924"/>
			<point x="487" y="840"/>
		</contour>
	</outline>
</glyph>
<glyph name="plusminus" format="2">
	<unicode hex="00B1"/>
	<advance width="1000"/>
	<outline>
		<contour>
			<point x="428" y="872" type="line"/>
			<point x="428" y="98" type="line"/>
			<point x="572" y="98" type="line"/>
			<point x="572" y="872" type="line"/>
		</contour>
		<contour>
			<point x="113" y="557" type="line"/>
			<point x="113" y="413" type="line"/>
			<point x="887" y="413" type="line"/>
			<point x="887" y="557" type="line"/>
		</contour>
		<contour>
			<point x="113" y="144" type="line"/>
			<point x="113" y="0" type="line"/>
			<point x="887" y="0" type="line"/>
			<point x="887" y="144" type="line"/>
		</contour>
	</outline>
</glyph>
<glyph name="uni00B2" format="2">
	<unicode hex="00B2"/>
	<advance width="748"/>
	<outline>
		<contour>
			<point x="474" y="688" type="line"/>
			<point x="676" y="799" type="line"/>
			<point x="243" y="799" type="line"/>
			<point x="247" y="737" type="line"/>
			<point x="352" y="808" type="line" smooth="yes"/>
			<point x="577" y="960"/>
			<point x="642" y="1042"/>
			<point x="642" y="1148" type="curve" smooth="yes"/>
			<point x="642" y="1279"/>
			<point x="538" y="1360"/>
			<point x="374" y="1360" type="curve" smooth="yes"/>
			<point x="200" y="1360"/>
			<point x="92" y="1267"/>
			<point x="41" y="1055" type="curve"/>
			<point x="118" y="1034" type="line"/>
			<point x="146" y="1128"/>
			<point x="193" y="1169"/>
			<point x="265" y="1169" type="curve" smooth="yes"/>
			<point x="334" y="1169"/>
			<point x="378" y="1127"/>
			<point x="378" y="1067" type="curve" smooth="yes"/>
			<point x="378" y="1001"/>
			<point x="343" y="934"/>
			<point x="234" y="829" type="curve" smooth="yes"/>
			<point x="58" y="659" type="line"/>
			<point x="58" y="592" type="line"/>
			<point x="548" y="592" type="line"/>
			<point x="630" y="559" type="line"/>
			<point x="654" y="559" type="line"/>
			<point x="715" y="907" type="line"/>
			<point x="676" y="907" type="line"/>
		</contour>
	</outline>
</glyph>
<glyph name="uni00B3" format="2">
	<unicode hex="00B3"/>
	<advance width="710"/>
	<outline>
		<contour>
			<point x="271" y="572" type="curve" smooth="yes"/>
			<point x="533" y="572"/>
			<point x="678" y="706"/>
			<point x="678" y="860" type="curve" smooth="yes"/>
			<point x="678" y="982"/>
			<point x="579" y="1083"/>
			<point x="375" y="1034" type="curve"/>
			<point x="359" y="1030" type="line"/>
			<point x="488" y="1032"/>
			<point x="590" y="1109"/>
			<point x="590" y="1212" type="curve" smooth="yes"/>
			<point x="590" y="1300"/>
			<point x="521" y="1367"/>
			<point x="378" y="1367" type="curve" smooth="yes"/>
			<point x="195" y="1367"/>
			<point x="114" y="1281"/>
			<point x="61" y="1114" type="curve"/>
			<point x="134" y="1093" type="line"/>
			<point x="161" y="1163"/>
			<point x="210" y="1207"/>
			<point x="282" y="1207" type="curve" smooth="yes"/>
			<point x="337" y="1207"/>
			<point x="366" y="1172"/>
			<point x="366" y="1128" type="curve" smooth="yes"/>
			<point x="366" y="1064"/>
			<point x="337" y="1026"/>
			<point x="200" y="983" type="curve"/>
			<point x="221" y="912" type="line"/>
			<point x="256" y="921" type="line" smooth="yes"/>
			<point x="374" y="951"/>
			<point x="428" y="915"/>
			<point x="428" y="812" type="curve" smooth="yes"/>
			<point x="428" y="712"/>
			<point x="377" y="661"/>
			<point x="307" y="661" type="curve" smooth="yes"/>
			<point x="210" y="661"/>
			<point x="189" y="766"/>
			<point x="108" y="766" type="curve" smooth="yes"/>
			<point x="59" y="766"/>
			<point x="29" y="734"/>
			<point x="29" y="691" type="curve" smooth="yes"/>
			<point x="29" y="632"/>
			<point x="86" y="572"/>
		</contour>
	</outline>
</glyph>
<glyph name="uni00B5" format="2">
	<unicode hex="00B5"/>
	<advance width="1220"/>
	<outline>
		<contour>
			<point x="145" y="872" type="line"/>
			<point x="145" y="-520" type="line"/>
			<point x="201" y="-520" type="line"/>
			<point x="388" y="-487" type="line"/>
			<point x="233" y="185" type="line"/>
			<point x="218" y="185" type="line"/>
			<point x="245" y="18"/>
			<point x="323" y="-30"/>
			<point x="447" y="-30" type="curve" smooth="yes"/>
			<point x="524" y="-30"/>
			<point x="613" y="-2"/>
			<point x="791" y="194" type="curve"/>
			<point x="750" y="244" type="line"/>
			<point x="713" y="219"/>
			<point x="663" y="206"/>
			<point x="600" y="206" type="curve" smooth="yes"/>
			<point x="525" y="206"/>
			<point x="492" y="231"/>
			<point x="492" y="305" type="curve" smooth="yes"/>
			<point x="492" y="872" type="line"/>
		</contour>
		<contour>
			<point x="1047" y="187" type="curve" smooth="yes"/>
			<point x="1047" y="872" type="line"/>
			<point x="699" y="872" type="line"/>
			<point x="699" y="209" type="line" smooth="yes"/>
			<point x="699" y="69"/>
			<point x="761" y="-30"/>
			<point x="929" y="-30" type="curve" smooth="yes"/>
			<point x="1007" y="-30"/>
			<point x="1103" y="16"/>
			<point x="1181" y="75" type="curve"/>
			<point x="1181" y="148" type="line"/>
			<point x="1150" y="128"/>
			<point x="1123" y="122"/>
			<point x="1100" y="122" type="curve" smooth="yes"/>
			<point x="1064" y="122"/>
			<point x="1047" y="142"/>
		</contour>
	</outline>
</glyph>
<glyph name="paragraph" format="2">
	<unicode hex="00B6"/>
	<advance width="1318"/>
	<outline>
		<contour>
			<point x="716" y="1340" type="line"/>
			<point x="472" y="1340" type="line" smooth="yes"/>
			<point x="169" y="1340"/>
			<point x="48" y="1163"/>
			<point x="48" y="961" type="curve" smooth="yes"/>
			<point x="48" y="752"/>
			<point x="175" y="597"/>
			<point x="472" y="597" type="curve" smooth="yes"/>
			<point x="716" y="597" type="line"/>
		</contour>
		<contour>
			<point x="790" y="-250" type="line"/>
			<point x="790" y="1221" type="line"/>
			<point x="971" y="1221" type="line"/>
			<point x="971" y="1340" type="line"/>
			<point x="654" y="1340" type="line"/>
			<point x="654" y="-250" type="line"/>
		</contour>
		<contour>
			<point x="1083" y="-250" type="line"/>
			<point x="1083" y="1230" type="line"/>
			<point x="1261" y="1286" type="line"/>
			<point x="1261" y="1340" type="line"/>
			<point x="947" y="1340" type="line"/>
			<point x="947" y="-250" type="line"/>
		</contour>
	</outline>
</glyph>
<glyph name="uni00B9" format="2">
	<unicode hex="00B9"/>
	<advance width="589"/>
	<outline>
		<contour>
			<point x="215" y="667" type="line"/>
			<point x="98" y="633" type="line"/>
			<point x="98" y="592" type="line"/>
			<point x="567" y="592" type="line"/>
			<point x="567" y="633" type="line"/>
			<point x="458" y="667" type="line"/>
			<point x="458" y="1340" type="line"/>
			<point x="307" y="1340" type="line"/>
			<point x="13" y="1186" type="line"/>
			<point x="34" y="1122" type="line"/>
			<point x="269" y="1190" type="line"/>
			<point x="215" y="1278" type="line"/>
		</contour>
	</outline>
</glyph>
<glyph name="ordmasculine" format="2">
	<unicode hex="00BA"/>
	<advance width="944"/>
	<outline>
		<contour>
			<point x="123" y="443" type="line"/>
			<point x="821" y="443" type="line"/>
			<point x="821" y="575" type="line"/>
			<point x="123" y="575" type="line"/>
		</contour>
		<contour>
			<point x="478" y="775" type="curve" smooth="yes"/>
			<point x="401" y="775"/>
			<point x="368" y="869"/>
			<point x="368" y="1052" type="curve" smooth="yes"/>
			<point x="368" y="1210"/>
			<point x="407" y="1256"/>
			<point x="465" y="1256" type="curve" smooth="yes"/>
			<point x="543" y="1256"/>
			<point x="575" y="1161"/>
			<point x="575" y="977" type="curve" smooth="yes"/>
			<point x="575" y="819"/>
			<point x="537" y="775"/>
		</contour>
		<contour>
			<point x="464" y="670" type="curve" smooth="yes"/>
			<point x="700" y="670"/>
			<point x="861" y="818"/>
			<point x="861" y="1026" type="curve" smooth="yes"/>
			<point x="861" y="1225"/>
			<point x="722" y="1360"/>
			<point x="480" y="1360" type="curve" smooth="yes"/>
			<point x="243" y="1360"/>
			<point x="83" y="1212"/>
			<point x="83" y="1004" type="curve" smooth="yes"/>
			<point x="83" y="804"/>
			<point x="222" y="670"/>
		</contour>
	</outline>
</glyph>
<glyph name="guillemotright" format="2">
	<unicode hex="00BB"/>
	<advance width="1086"/>
	<outline>
		<contour>
			<point x="300" y="378" type="line"/>
			<point x="300" y="496" type="line"/>
			<point x="74" y="53" type="line"/>
			<point x="139" y="1" type="line"/>
			<point x="567" y="389" type="line"/>
			<point x="567" y="485" type="line"/>
			<point x="139" y="873" type="line"/>
			<point x="74" y="821" type="line"/>
		</contour>
		<contour>
			<point x="750" y="378" type="line"/>
			<point x="750" y="496" type="line"/>
			<point x="524" y="53" type="line"/>
			<point x="589" y="1" type="line"/>
			<point x="1017" y="389" type="line"/>
			<point x="1017" y="485" type="line"/>
			<point x="589" y="873" type="line"/>
			<point x="524" y="821" type="line"/>
		</contour>
	</outline>
</glyph>
<glyph name="questiondown" format="2">
	<unicode hex="00BF"/>
	<advance width="1016"/>
	<outline>
		<contour>
			<point x="705" y="-498" type="curve" smooth="yes"/>
			<point x="913" y="-498"/>
			<point x="988" y="-434"/>
			<point x="988" y="-356" type="curve" smooth="yes"/>
			<point x="988" y="-279"/>
			<point x="933" y="-223"/>
			<point x="866" y="-223" type="curve" smooth="yes"/>
			<point x="724" y="-223"/>
			<point x="627" y="-356"/>
			<point x="499" y="-356" type="curve" smooth="yes"/>
			<point x="398" y="-356"/>
			<point x="350" y="-307"/>
			<point x="350" y="-220" type="curve" smooth="yes"/>
			<point x="350" y="-99"/>
			<point x="450" y="-19"/>
			<point x="725" y="-20" type="curve"/>
			<point x="620" y="370" type="line"/>
			<point x="558" y="370" type="line"/>
			<point x="518" y="79" type="line"/>
			<point x="594" y="260" type="line"/>
			<point x="256" y="260"/>
			<point x="128" y="150"/>
			<point x="128" y="-68" type="curve" smooth="yes"/>
			<point x="128" y="-320"/>
			<point x="308" y="-498"/>
		</contour>
		<contour>
			<point x="587" y="513" type="curve" smooth="yes"/>
			<point x="698" y="513"/>
			<point x="778" y="596"/>
			<point x="778" y="699" type="curve" smooth="yes"/>
			<point x="778" y="803"/>
			<point x="698" y="886"/>
			<point x="587" y="886" type="curve" smooth="yes"/>
			<point x="476" y="886"/>
			<point x="396" y="803"/>
			<point x="396" y="699" type="curve" smooth="yes"/>
			<point x="396" y="596"/>
			<point x="476" y="513"/>
		</contour>
	</outline>
</glyph>
<glyph name="AE" format="2">
	<unicode hex="00C6"/>
	<advance width="2116"/>
	<outline>
		<contour>
			<point x="435" y="414" type="line"/>
			<point x="1063" y="414" type="line"/>
			<point x="1063" y="548" type="line"/>
			<point x="435" y="548" type="line"/>
		</contour>
		<contour>
			<point x="870" y="1340" type="line"/>
			<point x="123" y="109" type="line"/>
			<point x="-40" y="46" type="line"/>
			<point x="-40" y="0" type="line"/>
			<point x="429" y="0" type="line"/>
			<point x="429" y="46" type="line"/>
			<point x="278" y="109" type="line"/>
			<point x="974" y="1241" type="line"/>
			<point x="974" y="1340" type="line"/>
		</contour>
		<contour>
			<point x="610" y="1294" type="line"/>
			<point x="851" y="1185" type="line"/>
			<point x="960" y="1340" type="line"/>
			<point x="610" y="1340" type="line"/>
		</contour>
		<contour>
			<point x="1747" y="965" type="line"/>
			<point x="1636" y="965" type="line"/>
			<point x="1614" y="772" type="line"/>
			<point x="1146" y="772" type="line"/>
			<point x="1146" y="634" type="line"/>
			<point x="1614" y="634" type="line"/>
			<point x="1636" y="441" type="line"/>
			<point x="1747" y="441" type="line"/>
			<point x="1747" y="703" type="line"/>
		</contour>
		<contour>
			<point x="2034" y="945" type="line"/>
			<point x="1945" y="1416" type="line"/>
			<point x="1907" y="1416" type="line"/>
			<point x="1778" y="1340" type="line"/>
			<point x="1146" y="1340" type="line"/>
			<point x="1146" y="1202" type="line"/>
			<point x="1823" y="1202" type="line"/>
			<point x="1726" y="1262" type="line"/>
			<point x="1971" y="929" type="line"/>
		</contour>
		<contour>
			<point x="1769" y="82" type="line"/>
			<point x="1841" y="138" type="line"/>
			<point x="1146" y="138" type="line"/>
			<point x="1146" y="0" type="line"/>
			<point x="1805" y="0" type="line"/>
			<point x="1950" y="-81" type="line"/>
			<point x="1993" y="-81" type="line"/>
			<point x="2084" y="444" type="line"/>
			<point x="2028" y="458" type="line"/>
		</contour>
		<contour>
			<point x="810" y="0" type="line"/>
			<point x="1338" y="0" type="line"/>
			<point x="1338" y="1340" type="line"/>
			<point x="948" y="1340" type="line"/>
			<point x="948" y="108" type="line"/>
			<point x="810" y="46" type="line"/>
		</contour>
	</outline>
	<anchor name="UCtop" x="1152" y="1340"/>
	<anchor name="bottom" x="1022" y="0"/>
</glyph>
<glyph name="Ccedilla" format="2">
	<unicode hex="00C7"/>
	<advance width="1428"/>
	<outline>
		<contour>
			<point x="962" y="120" type="curve" smooth="yes"/>
			<point x="670" y="120"/>
			<point x="466" y="324"/>
			<point x="466" y="769" type="curve" smooth="yes"/>
			<point x="466" y="1080"/>
			<point x="608" y="1223"/>
			<point x="845" y="1223" type="curve" smooth="yes"/>
			<point x="949" y="1223"/>
			<point x="1043" y="1196"/>
			<point x="1146" y="1116" type="curve"/>
			<point x="1038" y="1233" type="line"/>
			<point x="1276" y="878" type="line"/>
			<point x="1348" y="895" type="line"/>
			<point x="1271" y="1418" type="line"/>
			<point x="1222" y="1418" type="line"/>
			<point x="1083" y="1311" type="line"/>
			<point x="1176" y="1335" type="line"/>
			<point x="1057" y="1362"/>
			<point x="979" y="1370"/>
			<point x="892" y="1370" type="curve" smooth="yes"/>
			<point x="383" y="1370"/>
			<point x="64" y="1077"/>
			<point x="64" y="658" type="curve" smooth="yes"/>
			<point x="64" y="210"/>
			<point x="344" y="-30"/>
			<point x="851" y="-30" type="curve" smooth="yes"/>
			<point x="1027" y="-30"/>
			<point x="1176" y="-6"/>
			<point x="1315" y="45" type="curve"/>
			<point x="1365" y="435" type="line"/>
			<point x="1306" y="435" type="line"/>
			<point x="1103" y="116" type="line"/>
			<point x="1181" y="170" type="line"/>
			<point x="1087" y="130"/>
			<point x="1032" y="120"/>
		</contour>
		<contour>
			<point x="705" y="-530" type="curve" smooth="yes"/>
			<point x="887" y="-530"/>
			<point x="993" y="-406"/>
			<point x="993" y="-291" type="curve" smooth="yes"/>
			<point x="993" y="-207"/>
			<point x="943" y="-142"/>
			<point x="738" y="-94" type="curve"/>
			<point x="729" y="-221" type="line"/>
			<point x="910" y="49" type="line"/>
			<point x="811" y="49" type="line"/>
			<point x="620" y="-239" type="line"/>
			<point x="620" y="-250" type="line"/>
			<point x="820" y="-291"/>
			<point x="848" y="-331"/>
			<point x="848" y="-374" type="curve" smooth="yes"/>
			<point x="848" y="-419"/>
			<point x="812" y="-444"/>
			<point x="763" y="-444" type="curve" smooth="yes"/>
			<point x="693" y="-444"/>
			<point x="669" y="-369"/>
			<point x="612" y="-369" type="curve" smooth="yes"/>
			<point x="571" y="-369"/>
			<point x="550" y="-400"/>
			<point x="550" y="-435" type="curve" smooth="yes"/>
			<point x="550" y="-485"/>
			<point x="603" y="-530"/>
		</contour>
	</outline>
</glyph>
<glyph name="multiply" format="2">
	<unicode hex="00D7"/>
	<advance width="1000"/>
	<outline>
		<contour>
			<point x="146" y="183" type="line"/>
			<point x="247" y="82" type="line"/>
			<point x="854" y="689" type="line"/>
			<point x="753" y="790" type="line"/>
		</contour>
		<contour>
			<point x="146" y="689" type="line"/>
			<point x="753" y="82" type="line"/>
			<point x="854" y="183" type="line"/>
			<point x="247" y="790" type="line"/>
		</contour>
	</outline>
</glyph>
<glyph name="Oslash" format="2">
	<unicode hex="00D8"/>
	<advance width="1597"/>
	<outline>
		<contour>
			<point x="408" y="343" type="line"/>
			<point x="312" y="267" type="line"/>
			<point x="54" y="0" type="line"/>
			<point x="246" y="0" type="line"/>
			<point x="408" y="168" type="line"/>
			<point x="498" y="243" type="line"/>
			<point x="1187" y="995" type="line"/>
			<point x="1285" y="1073" type="line"/>
			<point x="1543" y="1340" type="line"/>
			<point x="1351" y="1340" type="line"/>
			<point x="1189" y="1172" type="line"/>
			<point x="1097" y="1095" type="line"/>
		</contour>
		<contour>
			<point x="820" y="1370" type="curve" smooth="yes"/>
			<point x="381" y="1370"/>
			<point x="74" y="1087"/>
			<point x="74" y="668" type="curve" smooth="yes"/>
			<point x="74" y="243"/>
			<point x="351" y="-30"/>
			<point x="777" y="-30" type="curve" smooth="yes"/>
			<point x="1216" y="-30"/>
			<point x="1523" y="253"/>
			<point x="1523" y="672" type="curve" smooth="yes"/>
			<point x="1523" y="1097"/>
			<point x="1246" y="1370"/>
		</contour>
		<contour>
			<point x="809" y="124" type="curve" smooth="yes"/>
			<point x="614" y="124"/>
			<point x="478" y="324"/>
			<point x="478" y="743" type="curve" smooth="yes"/>
			<point x="478" y="1078"/>
			<point x="615" y="1216"/>
			<point x="788" y="1216" type="curve" smooth="yes"/>
			<point x="983" y="1216"/>
			<point x="1119" y="1016"/>
			<point x="1119" y="597" type="curve" smooth="yes"/>
			<point x="1119" y="262"/>
			<point x="982" y="124"/>
		</contour>
	</outline>
	<anchor name="UCtop" x="799" y="1340"/>
	<anchor name="bottom" x="799" y="0"/>
</glyph>
<glyph name="Thorn" format="2">
	<unicode hex="00DE"/>
	<advance width="1392"/>
	<outline>
		<contour>
			<point x="962" y="690" type="curve" smooth="yes"/>
			<point x="962" y="520"/>
			<point x="863" y="429"/>
			<point x="713" y="429" type="curve" smooth="yes"/>
			<point x="359" y="429" type="line"/>
			<point x="359" y="291" type="line"/>
			<point x="812" y="291" type="line" smooth="yes"/>
			<point x="1183" y="291"/>
			<point x="1343" y="473"/>
			<point x="1343" y="694" type="curve" smooth="yes"/>
			<point x="1343" y="912"/>
			<point x="1192" y="1090"/>
			<point x="812" y="1090" type="curve" smooth="yes"/>
			<point x="359" y="1090" type="line"/>
			<point x="359" y="952" type="line"/>
			<point x="688" y="952" type="line" smooth="yes"/>
			<point x="881" y="952"/>
			<point x="962" y="856"/>
		</contour>
		<contour>
			<point x="725" y="46" type="line"/>
			<point x="587" y="108" type="line"/>
			<point x="587" y="1232" type="line"/>
			<point x="725" y="1294" type="line"/>
			<point x="725" y="1340" type="line"/>
			<point x="59" y="1340" type="line"/>
			<point x="59" y="1294" type="line"/>
			<point x="197" y="1232" type="line"/>
			<point x="197" y="108" type="line"/>
			<point x="59" y="46" type="line"/>
			<point x="59" y="0" type="line"/>
			<point x="725" y="0" type="line"/>
		</contour>
	</outline>
</glyph>
<glyph name="germandbls" format="2">
	<unicode hex="00DF"/>
	<advance width="1385"/>
	<outline>
		<contour>
			<point x="175" y="824" type="curve" smooth="yes"/>
			<point x="175" y="97" type="line"/>
			<point x="69" y="42" type="line"/>
			<point x="69" y="0" type="line"/>
			<point x="602" y="0" type="line"/>
			<point x="602" y="42" type="line"/>
			<point x="523" y="99" type="line"/>
			<point x="523" y="1081" type="line" smooth="yes"/>
			<point x="523" y="1256"/>
			<point x="601" y="1324"/>
			<point x="746" y="1324" type="curve" smooth="yes"/>
			<point x="882" y="1324"/>
			<point x="969" y="1232"/>
			<point x="969" y="1127" type="curve" smooth="yes"/>
			<point x="969" y="911"/>
			<point x="691" y="893"/>
			<point x="691" y="639" type="curve" smooth="yes"/>
			<point x="691" y="314"/>
			<point x="1081" y="423"/>
			<point x="1081" y="201" type="curve" smooth="yes"/>
			<point x="1081" y="107"/>
			<point x="1020" y="68"/>
			<point x="901" y="68" type="curve" smooth="yes"/>
			<point x="843" y="68"/>
			<point x="779" y="77"/>
			<point x="713" y="101" type="curve"/>
			<point x="878" y="17" type="line"/>
			<point x="725" y="280" type="line"/>
			<point x="656" y="280" type="line"/>
			<point x="676" y="13" type="line"/>
			<point x="752" y="-16"/>
			<point x="848" y="-30"/>
			<point x="935" y="-30" type="curve" smooth="yes"/>
			<point x="1156" y="-30"/>
			<point x="1341" y="111"/>
			<point x="1341" y="327" type="curve" smooth="yes"/>
			<point x="1341" y="716"/>
			<point x="932" y="638"/>
			<point x="932" y="805" type="curve" smooth="yes"/>
			<point x="932" y="955"/>
			<point x="1216" y="947"/>
			<point x="1216" y="1173" type="curve" smooth="yes"/>
			<point x="1216" y="1313"/>
			<point x="1093" y="1429"/>
			<point x="781" y="1429" type="curve" smooth="yes"/>
			<point x="437" y="1429"/>
			<point x="175" y="1225"/>
		</contour>
		<contour>
			<point x="191" y="894" type="line"/>
			<point x="2" y="802" type="line"/>
			<point x="2" y="752" type="line"/>
			<point x="175" y="682" type="line"/>
		</contour>
	</outline>
</glyph>
<glyph name="ae" format="2">
	<unicode hex="00E6"/>
	<advance width="1457"/>
	<outline>
		<contour>
			<point x="410" y="770" type="curve" smooth="yes"/>
			<point x="493" y="770"/>
			<point x="531" y="727"/>
			<point x="531" y="661" type="curve" smooth="yes"/>
			<point x="531" y="299" type="line" smooth="yes"/>
			<point x="531" y="204"/>
			<point x="498" y="169"/>
			<point x="450" y="169" type="curve" smooth="yes"/>
			<point x="400" y="169"/>
			<point x="371" y="199"/>
			<point x="371" y="281" type="curve" smooth="yes"/>
			<point x="371" y="350"/>
			<point x="398" y="403"/>
			<point x="567" y="444" type="curve"/>
			<point x="567" y="542" type="line"/>
			<point x="140" y="443"/>
			<point x="43" y="349"/>
			<point x="43" y="206" type="curve" smooth="yes"/>
			<point x="43" y="44"/>
			<point x="144" y="-30"/>
			<point x="291" y="-30" type="curve" smooth="yes"/>
			<point x="430" y="-30"/>
			<point x="570" y="61"/>
			<point x="582" y="304" type="curve"/>
			<point x="533" y="304" type="line"/>
			<point x="577" y="87"/>
			<point x="731" y="-30"/>
			<point x="994" y="-30" type="curve" smooth="yes"/>
			<point x="1163" y="-30"/>
			<point x="1299" y="78"/>
			<point x="1414" y="209" type="curve"/>
			<point x="1374" y="270" type="line"/>
			<point x="1296" y="218"/>
			<point x="1232" y="202"/>
			<point x="1145" y="202" type="curve" smooth="yes"/>
			<point x="973" y="202"/>
			<point x="859" y="311"/>
			<point x="859" y="517" type="curve" smooth="yes"/>
			<point x="859" y="752"/>
			<point x="914" y="797"/>
			<point x="978" y="797" type="curve" smooth="yes"/>
			<point x="1054" y="797"/>
			<point x="1092" y="717"/>
			<point x="1096" y="539" type="curve"/>
			<point x="1262" y="600" type="line"/>
			<point x="769" y="570" type="line"/>
			<point x="769" y="476" type="line"/>
			<point x="1410" y="476" type="line"/>
			<point x="1387" y="739"/>
			<point x="1256" y="902"/>
			<point x="1006" y="902" type="curve" smooth="yes"/>
			<point x="852" y="902"/>
			<point x="746" y="845"/>
			<point x="686" y="756" type="curve"/>
			<point x="843" y="756" type="line"/>
			<point x="813" y="844"/>
			<point x="729" y="902"/>
			<point x="557" y="902" type="curve" smooth="yes"/>
			<point x="307" y="902"/>
			<point x="58" y="779"/>
			<point x="58" y="650" type="curve" smooth="yes"/>
			<point x="58" y="604"/>
			<point x="95" y="581"/>
			<point x="162" y="581" type="curve" smooth="yes"/>
			<point x="211" y="581"/>
			<point x="256" y="602"/>
			<point x="278" y="627" type="curve" smooth="yes"/>
			<point x="301" y="651"/>
			<point x="314" y="689"/>
			<point x="333" y="835" type="curve"/>
			<point x="308" y="755" type="line"/>
			<point x="334" y="764"/>
			<point x="373" y="770"/>
		</contour>
	</outline>
	<anchor name="top" x="729" y="872"/>
	<anchor name="bottom" x="729" y="0"/>
</glyph>
<glyph name="ccedilla" format="2">
	<unicode hex="00E7"/>
	<advance width="938"/>
	<outline>
		<contour>
			<point x="621" y="902" type="curve" smooth="yes"/>
			<point x="260" y="902"/>
			<point x="47" y="689"/>
			<point x="47" y="411" type="curve" smooth="yes"/>
			<point x="47" y="163"/>
			<point x="219" y="-30"/>
			<point x="495" y="-30" type="curve" smooth="yes"/>
			<point x="630" y="-30"/>
			<point x="770" y="42"/>
			<point x="912" y="211" type="curve"/>
			<point x="869" y="270" type="line"/>
			<point x="793" y="218"/>
			<point x="730" y="202"/>
			<point x="643" y="202" type="curve" smooth="yes"/>
			<point x="474" y="202"/>
			<point x="366" y="308"/>
			<point x="366" y="554" type="curve" smooth="yes"/>
			<point x="366" y="723"/>
			<point x="426" y="785"/>
			<point x="499" y="785" type="curve" smooth="yes"/>
			<point x="576" y="785"/>
			<point x="643" y="617"/>
			<point x="767" y="617" type="curve" smooth="yes"/>
			<point x="844" y="617"/>
			<point x="910" y="670"/>
			<point x="910" y="749" type="curve" smooth="yes"/>
			<point x="910" y="832"/>
			<point x="829" y="902"/>
		</contour>
		<contour>
			<point x="393" y="-530" type="curve" smooth="yes"/>
			<point x="575" y="-530"/>
			<point x="681" y="-406"/>
			<point x="681" y="-291" type="curve" smooth="yes"/>
			<point x="681" y="-207"/>
			<point x="631" y="-142"/>
			<point x="426" y="-94" type="curve"/>
			<point x="417" y="-221" type="line"/>
			<point x="598" y="49" type="line"/>
			<point x="499" y="49" type="line"/>
			<point x="308" y="-239" type="line"/>
			<point x="308" y="-250" type="line"/>
			<point x="508" y="-291"/>
			<point x="536" y="-331"/>
			<point x="536" y="-374" type="curve" smooth="yes"/>
			<point x="536" y="-419"/>
			<point x="500" y="-444"/>
			<point x="451" y="-444" type="curve" smooth="yes"/>
			<point x="381" y="-444"/>
			<point x="357" y="-369"/>
			<point x="300" y="-369" type="curve" smooth="yes"/>
			<point x="259" y="-369"/>
			<point x="238" y="-400"/>
			<point x="238" y="-435" type="curve" smooth="yes"/>
			<point x="238" y="-485"/>
			<point x="291" y="-530"/>
		</contour>
	</outline>
</glyph>
<glyph name="eth" format="2">
	<unicode hex="00F0"/>
	<advance width="1096"/>
	<outline>
		<contour>
			<point x="529" y="-30" type="curve" smooth="yes"/>
			<point x="838" y="-30"/>
			<point x="1029" y="133"/>
			<point x="1029" y="524" type="curve" smooth="yes"/>
			<point x="1029" y="956"/>
			<point x="859" y="1312"/>
			<point x="152" y="1429" type="curve"/>
			<point x="119" y="1332" type="line"/>
			<point x="514" y="1233"/>
			<point x="674" y="1068"/>
			<point x="703" y="707" type="curve"/>
			<point x="787" y="714" type="line"/>
			<point x="774" y="828"/>
			<point x="672" y="902"/>
			<point x="536" y="902" type="curve" smooth="yes"/>
			<point x="251" y="902"/>
			<point x="49" y="702"/>
			<point x="49" y="421" type="curve" smooth="yes"/>
			<point x="49" y="152"/>
			<point x="224" y="-30"/>
		</contour>
		<contour>
			<point x="547" y="84" type="curve" smooth="yes"/>
			<point x="451" y="84"/>
			<point x="410" y="223"/>
			<point x="410" y="491" type="curve" smooth="yes"/>
			<point x="410" y="721"/>
			<point x="458" y="788"/>
			<point x="531" y="788" type="curve" smooth="yes"/>
			<point x="627" y="788"/>
			<point x="668" y="649"/>
			<point x="668" y="381" type="curve" smooth="yes"/>
			<point x="668" y="151"/>
			<point x="620" y="84"/>
		</contour>
		<contour>
			<point x="324" y="942" type="line"/>
			<point x="888" y="1343" type="line"/>
			<point x="823" y="1434" type="line"/>
			<point x="258" y="1033" type="line"/>
		</contour>
	</outline>
</glyph>
<glyph name="divide" format="2">
	<unicode hex="00F7"/>
	<advance width="1000"/>
	<outline>
		<contour>
			<point x="500" y="264" type="curve" smooth="yes"/>
			<point x="418" y="264"/>
			<point x="360" y="201"/>
			<point x="360" y="125" type="curve" smooth="yes"/>
			<point x="360" y="49"/>
			<point x="418" y="-14"/>
			<point x="500" y="-14" type="curve" smooth="yes"/>
			<point x="582" y="-14"/>
			<point x="640" y="49"/>
			<point x="640" y="125" type="curve" smooth="yes"/>
			<point x="640" y="201"/>
			<point x="582" y="264"/>
		</contour>
		<contour>
			<point x="500" y="886" type="curve" smooth="yes"/>
			<point x="418" y="886"/>
			<point x="360" y="823"/>
			<point x="360" y="747" type="curve" smooth="yes"/>
			<point x="360" y="671"/>
			<point x="418" y="608"/>
			<point x="500" y="608" type="curve" smooth="yes"/>
			<point x="582" y="608"/>
			<point x="640" y="671"/>
			<point x="640" y="747" type="curve" smooth="yes"/>
			<point x="640" y="823"/>
			<point x="582" y="886"/>
		</contour>
		<contour>
			<point x="113" y="508" type="line"/>
			<point x="113" y="364" type="line"/>
			<point x="887" y="364" type="line"/>
			<point x="887" y="508" type="line"/>
		</contour>
	</outline>
</glyph>
<glyph name="oslash" format="2">
	<unicode hex="00F8"/>
	<advance width="1100"/>
	<outline>
		<contour>
			<point x="40" y="0" type="line"/>
			<point x="202" y="0" type="line"/>
			<point x="311" y="111" type="line"/>
			<point x="377" y="148" type="line"/>
			<point x="807" y="665" type="line"/>
			<point x="873" y="682" type="line"/>
			<point x="1060" y="872" type="line"/>
			<point x="898" y="872" type="line"/>
			<point x="789" y="761" type="line"/>
			<point x="723" y="724" type="line"/>
			<point x="293" y="207" type="line"/>
			<point x="227" y="190" type="line"/>
		</contour>
		<contour>
			<point x="558" y="84" type="curve" smooth="yes"/>
			<point x="462" y="84"/>
			<point x="421" y="223"/>
			<point x="421" y="491" type="curve" smooth="yes"/>
			<point x="421" y="721"/>
			<point x="469" y="788"/>
			<point x="542" y="788" type="curve" smooth="yes"/>
			<point x="638" y="788"/>
			<point x="679" y="649"/>
			<point x="679" y="381" type="curve" smooth="yes"/>
			<point x="679" y="151"/>
			<point x="631" y="84"/>
		</contour>
		<contour>
			<point x="540" y="-30" type="curve" smooth="yes"/>
			<point x="838" y="-30"/>
			<point x="1040" y="170"/>
			<point x="1040" y="451" type="curve" smooth="yes"/>
			<point x="1040" y="720"/>
			<point x="865" y="902"/>
			<point x="560" y="902" type="curve" smooth="yes"/>
			<point x="262" y="902"/>
			<point x="60" y="702"/>
			<point x="60" y="421" type="curve" smooth="yes"/>
			<point x="60" y="152"/>
			<point x="235" y="-30"/>
		</contour>
	</outline>
	<anchor name="top" x="550" y="872"/>
	<anchor name="bottom" x="550" y="0"/>
</glyph>
<glyph name="thorn" format="2">
	<unicode hex="00FE"/>
	<advance width="1137"/>
	<outline>
		<contour>
			<point x="109" y="1133" type="curve"/>
			<point x="109" y="-403" type="line"/>
			<point x="3" y="-458" type="line"/>
			<point x="3" y="-500" type="line"/>
			<point x="586" y="-500" type="line"/>
			<point x="586" y="-458" type="line"/>
			<point x="457" y="-395" type="line"/>
			<point x="457" y="47" type="line"/>
			<point x="259" y="47" type="line"/>
			<point x="386" y="-8"/>
			<point x="471" y="-30"/>
			<point x="579" y="-30" type="curve" smooth="yes"/>
			<point x="854" y="-30"/>
			<point x="1087" y="159"/>
			<point x="1087" y="490" type="curve" smooth="yes"/>
			<point x="1087" y="720"/>
			<point x="958" y="902"/>
			<point x="725" y="902" type="curve" smooth="yes"/>
			<point x="615" y="902"/>
			<point x="499" y="832"/>
			<point x="372" y="756" type="curve"/>
			<point x="411" y="673" type="line"/>
			<point x="456" y="704"/>
			<point x="515" y="714"/>
			<point x="557" y="714" type="curve" smooth="yes"/>
			<point x="665" y="714"/>
			<point x="732" y="620"/>
			<point x="732" y="416" type="curve" smooth="yes"/>
			<point x="732" y="164"/>
			<point x="671" y="82"/>
			<point x="576" y="82" type="curve" smooth="yes"/>
			<point x="497" y="82"/>
			<point x="457" y="159"/>
			<point x="457" y="263" type="curve"/>
			<point x="457" y="1186" type="line"/>
			<point x="479" y="1429" type="line"/>
			<point x="440" y="1429" type="line"/>
			<point x="-41" y="1300" type="line"/>
			<point x="-41" y="1243" type="line"/>
			<point x="37" y="1206"/>
			<point x="74" y="1179"/>
		</contour>
	</outline>
</glyph>
<glyph name="Aogonek" format="2">
	<unicode hex="0104"/>
	<advance width="1570"/>
	<outline>
		<contour>
			<point x="336" y="414" type="line"/>
			<point x="1024" y="414" type="line"/>
			<point x="1024" y="548" type="line"/>
			<point x="336" y="548" type="line"/>
		</contour>
		<contour>
			<point x="1454" y="111" type="line"/>
			<point x="914" y="1340" type="line"/>
			<point x="637" y="1340" type="line"/>
			<point x="124" y="109" type="line"/>
			<point x="-29" y="46" type="line"/>
			<point x="-29" y="0" type="line"/>
			<point x="430" y="0" type="line"/>
			<point x="430" y="46" type="line"/>
			<point x="279" y="109" type="line"/>
			<point x="661" y="1056" type="line"/>
			<point x="633" y="1056" type="line"/>
			<point x="1035" y="109" type="line"/>
			<point x="874" y="46" type="line"/>
			<point x="874" y="0" type="line"/>
			<point x="1602" y="0" type="line"/>
			<point x="1602" y="46" type="line"/>
		</contour>
		<contour>
			<point x="1261" y="-34" type="curve" smooth="yes"/>
			<point x="1310" y="46" type="line"/>
			<point x="1226" y="46" type="line"/>
			<point x="1151" y="-51" type="line" smooth="yes"/>
			<point x="1020" y="-218"/>
			<point x="995" y="-284"/>
			<point x="995" y="-361" type="curve" smooth="yes"/>
			<point x="995" y="-454"/>
			<point x="1054" y="-530"/>
			<point x="1185" y="-530" type="curve" smooth="yes"/>
			<point x="1283" y="-530"/>
			<point x="1356" y="-494"/>
			<point x="1449" y="-388" type="curve"/>
			<point x="1407" y="-333" type="line"/>
			<point x="1360" y="-369"/>
			<point x="1322" y="-388"/>
			<point x="1279" y="-388" type="curve" smooth="yes"/>
			<point x="1206" y="-388"/>
			<point x="1162" y="-344"/>
			<point x="1162" y="-271" type="curve" smooth="yes"/>
			<point x="1162" y="-220"/>
			<point x="1179" y="-168"/>
		</contour>
	</outline>
</glyph>
<glyph name="aogonek" format="2">
	<unicode hex="0105"/>
	<advance width="1003"/>
	<outline>
		<contour>
			<point x="1013" y="75" type="line"/>
			<point x="1013" y="148" type="line"/>
			<point x="982" y="128"/>
			<point x="955" y="122"/>
			<point x="932" y="122" type="curve" smooth="yes"/>
			<point x="896" y="122"/>
			<point x="879" y="142"/>
			<point x="879" y="187" type="curve" smooth="yes"/>
			<point x="879" y="603" type="line" smooth="yes"/>
			<point x="879" y="772"/>
			<point x="815" y="902"/>
			<point x="557" y="902" type="curve" smooth="yes"/>
			<point x="307" y="902"/>
			<point x="58" y="779"/>
			<point x="58" y="650" type="curve" smooth="yes"/>
			<point x="58" y="604"/>
			<point x="95" y="581"/>
			<point x="162" y="581" type="curve" smooth="yes"/>
			<point x="211" y="581"/>
			<point x="256" y="602"/>
			<point x="278" y="627" type="curve" smooth="yes"/>
			<point x="301" y="651"/>
			<point x="314" y="689"/>
			<point x="333" y="835" type="curve"/>
			<point x="308" y="755" type="line"/>
			<point x="334" y="764"/>
			<point x="373" y="770"/>
			<point x="410" y="770" type="curve" smooth="yes"/>
			<point x="493" y="770"/>
			<point x="531" y="727"/>
			<point x="531" y="661" type="curve" smooth="yes"/>
			<point x="531" y="270" type="line" smooth="yes"/>
			<point x="531" y="214"/>
			<point x="496" y="169"/>
			<point x="450" y="169" type="curve" smooth="yes"/>
			<point x="400" y="169"/>
			<point x="371" y="199"/>
			<point x="371" y="281" type="curve" smooth="yes"/>
			<point x="371" y="350"/>
			<point x="398" y="403"/>
			<point x="567" y="444" type="curve"/>
			<point x="567" y="542" type="line"/>
			<point x="140" y="443"/>
			<point x="43" y="349"/>
			<point x="43" y="206" type="curve" smooth="yes"/>
			<point x="43" y="44"/>
			<point x="144" y="-30"/>
			<point x="291" y="-30" type="curve" smooth="yes"/>
			<point x="418" y="-30"/>
			<point x="512" y="37"/>
			<point x="557" y="191" type="curve"/>
			<point x="545" y="191" type="line"/>
			<point x="550" y="62"/>
			<point x="603" y="-30"/>
			<point x="761" y="-30" type="curve" smooth="yes"/>
			<point x="790" y="-30"/>
			<point x="822" y="-23"/>
			<point x="855" y="-12" type="curve"/>
			<point x="846" y="5" type="line"/>
			<point x="785" y="-53" type="line" smooth="yes"/>
			<point x="627" y="-204"/>
			<point x="596" y="-268"/>
			<point x="596" y="-361" type="curve" smooth="yes"/>
			<point x="596" y="-454"/>
			<point x="655" y="-530"/>
			<point x="786" y="-530" type="curve" smooth="yes"/>
			<point x="884" y="-530"/>
			<point x="957" y="-494"/>
			<point x="1050" y="-388" type="curve"/>
			<point x="1008" y="-333" type="line"/>
			<point x="961" y="-369"/>
			<point x="923" y="-388"/>
			<point x="880" y="-388" type="curve" smooth="yes"/>
			<point x="807" y="-388"/>
			<point x="763" y="-351"/>
			<point x="763" y="-286" type="curve" smooth="yes"/>
			<point x="763" y="-227"/>
			<point x="797" y="-156"/>
			<point x="914" y="-31" type="curve" smooth="yes"/>
		</contour>
	</outline>
</glyph>
<glyph name="Dcroat" format="2">
	<unicode hex="0110"/>
	<advance width="1591"/>
	<outline>
		<contour>
			<point x="63" y="614" type="line"/>
			<point x="833" y="614" type="line"/>
			<point x="833" y="744" type="line"/>
			<point x="63" y="744" type="line"/>
		</contour>
		<contour>
			<point x="1121" y="687" type="curve" smooth="yes"/>
			<point x="1121" y="298"/>
			<point x="957" y="138"/>
			<point x="713" y="138" type="curve" smooth="yes"/>
			<point x="418" y="138" type="line"/>
			<point x="379" y="0" type="line"/>
			<point x="747" y="0" type="line" smooth="yes"/>
			<point x="1191" y="0"/>
			<point x="1526" y="260"/>
			<point x="1526" y="710" type="curve" smooth="yes"/>
			<point x="1526" y="1134"/>
			<point x="1269" y="1340"/>
			<point x="745" y="1340" type="curve" smooth="yes"/>
			<point x="379" y="1340" type="line"/>
			<point x="418" y="1202" type="line"/>
			<point x="698" y="1202" type="line" smooth="yes"/>
			<point x="960" y="1202"/>
			<point x="1121" y="1046"/>
		</contour>
		<contour>
			<point x="63" y="0" type="line"/>
			<point x="591" y="0" type="line"/>
			<point x="591" y="1340" type="line"/>
			<point x="63" y="1340" type="line"/>
			<point x="63" y="1294" type="line"/>
			<point x="201" y="1232" type="line"/>
			<point x="201" y="108" type="line"/>
			<point x="63" y="46" type="line"/>
		</contour>
	</outline>
</glyph>
<glyph name="dcroat" format="2">
	<unicode hex="0111"/>
	<advance width="1162"/>
	<outline>
		<contour>
			<point x="680" y="609" type="curve" smooth="yes"/>
			<point x="680" y="136" type="line"/>
			<point x="716" y="-30" type="line"/>
			<point x="755" y="-30" type="line"/>
			<point x="1159" y="52" type="line"/>
			<point x="1159" y="95" type="line"/>
			<point x="1101" y="119"/>
			<point x="1063" y="145"/>
			<point x="1028" y="183" type="curve"/>
			<point x="1028" y="1186" type="line"/>
			<point x="1049" y="1429" type="line"/>
			<point x="1010" y="1429" type="line"/>
			<point x="530" y="1300" type="line"/>
			<point x="530" y="1243" type="line"/>
			<point x="608" y="1206"/>
			<point x="645" y="1179"/>
			<point x="680" y="1133" type="curve"/>
			<point x="680" y="825" type="line"/>
			<point x="896" y="825" type="line"/>
			<point x="766" y="880"/>
			<point x="679" y="902"/>
			<point x="569" y="902" type="curve" smooth="yes"/>
			<point x="314" y="902"/>
			<point x="50" y="732"/>
			<point x="50" y="392" type="curve" smooth="yes"/>
			<point x="50" y="143"/>
			<point x="178" y="-30"/>
			<point x="422" y="-30" type="curve" smooth="yes"/>
			<point x="500" y="-30"/>
			<point x="585" y="0"/>
			<point x="723" y="89" type="curve"/>
			<point x="723" y="189" type="line"/>
			<point x="678" y="160"/>
			<point x="621" y="150"/>
			<point x="580" y="150" type="curve" smooth="yes"/>
			<point x="472" y="150"/>
			<point x="405" y="247"/>
			<point x="405" y="468" type="curve" smooth="yes"/>
			<point x="405" y="708"/>
			<point x="466" y="790"/>
			<point x="561" y="790" type="curve" smooth="yes"/>
			<point x="640" y="790"/>
			<point x="680" y="713"/>
		</contour>
		<contour>
			<point x="395" y="1014" type="line"/>
			<point x="1195" y="1014" type="line"/>
			<point x="1195" y="1144" type="line"/>
			<point x="395" y="1144" type="line"/>
		</contour>
	</outline>
</glyph>
<glyph name="Eogonek" format="2">
	<unicode hex="0118"/>
	<advance width="1365"/>
	<outline>
		<contour>
			<point x="996" y="965" type="line"/>
			<point x="885" y="965" type="line"/>
			<point x="863" y="772" type="line"/>
			<point x="395" y="772" type="line"/>
			<point x="395" y="634" type="line"/>
			<point x="863" y="634" type="line"/>
			<point x="885" y="441" type="line"/>
			<point x="996" y="441" type="line"/>
			<point x="996" y="703" type="line"/>
		</contour>
		<contour>
			<point x="1283" y="945" type="line"/>
			<point x="1194" y="1416" type="line"/>
			<point x="1156" y="1416" type="line"/>
			<point x="1027" y="1340" type="line"/>
			<point x="395" y="1340" type="line"/>
			<point x="395" y="1202" type="line"/>
			<point x="1072" y="1202" type="line"/>
			<point x="975" y="1262" type="line"/>
			<point x="1220" y="929" type="line"/>
		</contour>
		<contour>
			<point x="1018" y="82" type="line"/>
			<point x="1090" y="138" type="line"/>
			<point x="395" y="138" type="line"/>
			<point x="395" y="0" type="line"/>
			<point x="1054" y="0" type="line"/>
			<point x="1199" y="-81" type="line"/>
			<point x="1242" y="-81" type="line"/>
			<point x="1333" y="444" type="line"/>
			<point x="1277" y="458" type="line"/>
		</contour>
		<contour>
			<point x="59" y="0" type="line"/>
			<point x="587" y="0" type="line"/>
			<point x="587" y="1340" type="line"/>
			<point x="59" y="1340" type="line"/>
			<point x="59" y="1294" type="line"/>
			<point x="197" y="1232" type="line"/>
			<point x="197" y="108" type="line"/>
			<point x="59" y="46" type="line"/>
		</contour>
		<contour>
			<point x="1052" y="-34" type="curve" smooth="yes"/>
			<point x="1101" y="46" type="line"/>
			<point x="1017" y="46" type="line"/>
			<point x="942" y="-51" type="line" smooth="yes"/>
			<point x="811" y="-218"/>
			<point x="786" y="-284"/>
			<point x="786" y="-361" type="curve" smooth="yes"/>
			<point x="786" y="-454"/>
			<point x="845" y="-530"/>
			<point x="976" y="-530" type="curve" smooth="yes"/>
			<point x="1074" y="-530"/>
			<point x="1147" y="-494"/>
			<point x="1240" y="-388" type="curve"/>
			<point x="1198" y="-333" type="line"/>
			<point x="1151" y="-369"/>
			<point x="1113" y="-388"/>
			<point x="1070" y="-388" type="curve" smooth="yes"/>
			<point x="997" y="-388"/>
			<point x="953" y="-344"/>
			<point x="953" y="-271" type="curve" smooth="yes"/>
			<point x="953" y="-220"/>
			<point x="970" y="-168"/>
		</contour>
	</outline>
</glyph>
<glyph name="eogonek" format="2">
	<unicode hex="0119"/>
	<advance width="968"/>
	<outline>
		<contour>
			<point x="922" y="209" type="line"/>
			<point x="882" y="270" type="line"/>
			<point x="804" y="218"/>
			<point x="740" y="202"/>
			<point x="653" y="202" type="curve" smooth="yes"/>
			<point x="481" y="202"/>
			<point x="367" y="311"/>
			<point x="367" y="517" type="curve" smooth="yes"/>
			<point x="367" y="752"/>
			<point x="422" y="797"/>
			<point x="486" y="797" type="curve" smooth="yes"/>
			<point x="562" y="797"/>
			<point x="600" y="717"/>
			<point x="604" y="539" type="curve"/>
			<point x="770" y="600" type="line"/>
			<point x="277" y="570" type="line"/>
			<point x="277" y="476" type="line"/>
			<point x="918" y="476" type="line"/>
			<point x="895" y="739"/>
			<point x="764" y="902"/>
			<point x="514" y="902" type="curve" smooth="yes"/>
			<point x="209" y="902"/>
			<point x="48" y="681"/>
			<point x="48" y="421" type="curve" smooth="yes"/>
			<point x="48" y="167"/>
			<point x="222" y="-30"/>
			<point x="502" y="-30" type="curve" smooth="yes"/>
			<point x="602" y="-30"/>
			<point x="690" y="8"/>
			<point x="769" y="65" type="curve"/>
			<point x="756" y="82" type="line"/>
			<point x="686" y="-5" type="line" smooth="yes"/>
			<point x="553" y="-170"/>
			<point x="505" y="-263"/>
			<point x="505" y="-361" type="curve" smooth="yes"/>
			<point x="505" y="-454"/>
			<point x="564" y="-530"/>
			<point x="695" y="-530" type="curve" smooth="yes"/>
			<point x="793" y="-530"/>
			<point x="866" y="-494"/>
			<point x="959" y="-388" type="curve"/>
			<point x="917" y="-333" type="line"/>
			<point x="870" y="-369"/>
			<point x="832" y="-388"/>
			<point x="789" y="-388" type="curve" smooth="yes"/>
			<point x="716" y="-388"/>
			<point x="672" y="-344"/>
			<point x="672" y="-271" type="curve" smooth="yes"/>
			<point x="672" y="-220"/>
			<point x="680" y="-145"/>
			<point x="816" y="54" type="curve" smooth="yes"/>
		</contour>
	</outline>
</glyph>
<glyph name="Hbar" format="2">
	<unicode hex="0126"/>
	<advance width="1712"/>
	<outline>
		<contour>
			<point x="589" y="108" type="line"/>
			<point x="589" y="1232" type="line"/>
			<point x="727" y="1294" type="line"/>
			<point x="727" y="1340" type="line"/>
			<point x="61" y="1340" type="line"/>
			<point x="61" y="1294" type="line"/>
			<point x="199" y="1232" type="line"/>
			<point x="199" y="108" type="line"/>
			<point x="61" y="46" type="line"/>
			<point x="61" y="0" type="line"/>
			<point x="727" y="0" type="line"/>
			<point x="727" y="46" type="line"/>
		</contour>
		<contour>
			<point x="1513" y="108" type="line"/>
			<point x="1513" y="1232" type="line"/>
			<point x="1651" y="1294" type="line"/>
			<point x="1651" y="1340" type="line"/>
			<point x="985" y="1340" type="line"/>
			<point x="985" y="1294" type="line"/>
			<point x="1123" y="1232" type="line"/>
			<point x="1123" y="108" type="line"/>
			<point x="985" y="46" type="line"/>
			<point x="985" y="0" type="line"/>
			<point x="1651" y="0" type="line"/>
			<point x="1651" y="46" type="line"/>
		</contour>
		<contour>
			<point x="61" y="944" type="line"/>
			<point x="1651" y="944" type="line"/>
			<point x="1651" y="1074" type="line"/>
			<point x="61" y="1074" type="line"/>
		</contour>
		<contour>
			<point x="380" y="616" type="line"/>
			<point x="1333" y="616" type="line"/>
			<point x="1333" y="754" type="line"/>
			<point x="380" y="754" type="line"/>
		</contour>
	</outline>
</glyph>
<glyph name="hbar" format="2">
	<unicode hex="0127"/>
	<advance width="1189"/>
	<outline>
		<contour>
			<point x="636" y="42" type="line"/>
			<point x="636" y="0" type="line"/>
			<point x="1173" y="0" type="line"/>
			<point x="1173" y="42" type="line"/>
			<point x="1065" y="97" type="line"/>
			<point x="1065" y="569" type="line" smooth="yes"/>
			<point x="1065" y="793"/>
			<point x="978" y="902"/>
			<point x="794" y="902" type="curve" smooth="yes"/>
			<point x="674" y="902"/>
			<point x="582" y="873"/>
			<point x="398" y="671" type="curve"/>
			<point x="440" y="624" type="line"/>
			<point x="481" y="651"/>
			<point x="534" y="666"/>
			<point x="601" y="666" type="curve" smooth="yes"/>
			<point x="682" y="666"/>
			<point x="717" y="639"/>
			<point x="717" y="559" type="curve" smooth="yes"/>
			<point x="717" y="87" type="line"/>
		</contour>
		<contour>
			<point x="585" y="0" type="line"/>
			<point x="585" y="42" type="line"/>
			<point x="479" y="97" type="line"/>
			<point x="479" y="1186" type="line"/>
			<point x="501" y="1429" type="line"/>
			<point x="462" y="1429" type="line"/>
			<point x="-19" y="1300" type="line"/>
			<point x="-19" y="1243" type="line"/>
			<point x="59" y="1206"/>
			<point x="96" y="1179"/>
			<point x="131" y="1133" type="curve"/>
			<point x="131" y="97" type="line"/>
			<point x="25" y="42" type="line"/>
			<point x="25" y="0" type="line"/>
		</contour>
		<contour>
			<point x="-36" y="1014" type="line"/>
			<point x="764" y="1014" type="line"/>
			<point x="764" y="1144" type="line"/>
			<point x="-36" y="1144" type="line"/>
		</contour>
	</outline>
</glyph>
<glyph name="Iogonek" format="2">
	<unicode hex="012E"/>
	<advance width="784"/>
	<outline>
		<contour>
			<point x="725" y="46" type="line"/>
			<point x="587" y="108" type="line"/>
			<point x="587" y="1232" type="line"/>
			<point x="725" y="1294" type="line"/>
			<point x="725" y="1340" type="line"/>
			<point x="59" y="1340" type="line"/>
			<point x="59" y="1294" type="line"/>
			<point x="197" y="1232" type="line"/>
			<point x="197" y="108" type="line"/>
			<point x="59" y="46" type="line"/>
			<point x="59" y="0" type="line"/>
			<point x="725" y="0" type="line"/>
		</contour>
		<contour>
			<point x="431" y="-34" type="curve" smooth="yes"/>
			<point x="480" y="46" type="line"/>
			<point x="396" y="46" type="line"/>
			<point x="321" y="-51" type="line" smooth="yes"/>
			<point x="190" y="-218"/>
			<point x="165" y="-284"/>
			<point x="165" y="-361" type="curve" smooth="yes"/>
			<point x="165" y="-454"/>
			<point x="224" y="-530"/>
			<point x="355" y="-530" type="curve" smooth="yes"/>
			<point x="453" y="-530"/>
			<point x="526" y="-494"/>
			<point x="619" y="-388" type="curve"/>
			<point x="577" y="-333" type="line"/>
			<point x="530" y="-369"/>
			<point x="492" y="-388"/>
			<point x="449" y="-388" type="curve" smooth="yes"/>
			<point x="376" y="-388"/>
			<point x="332" y="-344"/>
			<point x="332" y="-271" type="curve" smooth="yes"/>
			<point x="332" y="-220"/>
			<point x="349" y="-168"/>
		</contour>
	</outline>
</glyph>
<glyph name="iogonek" format="2">
	<unicode hex="012F"/>
	<advance width="631"/>
	<outline>
		<contour>
			<point x="324" y="1053" type="curve" smooth="yes"/>
			<point x="437" y="1053"/>
			<point x="511" y="1134"/>
			<point x="511" y="1243" type="curve" smooth="yes"/>
			<point x="511" y="1349"/>
			<point x="437" y="1429"/>
			<point x="324" y="1429" type="curve" smooth="yes"/>
			<point x="213" y="1429"/>
			<point x="138" y="1349"/>
			<point x="138" y="1243" type="curve" smooth="yes"/>
			<point x="138" y="1134"/>
			<point x="213" y="1053"/>
		</contour>
		<contour>
			<point x="513" y="902" type="line"/>
			<point x="454" y="902" type="line"/>
			<point x="29" y="798" type="line"/>
			<point x="29" y="755" type="line"/>
			<point x="78" y="729"/>
			<point x="118" y="699"/>
			<point x="150" y="653" type="curve"/>
			<point x="150" y="97" type="line"/>
			<point x="44" y="42" type="line"/>
			<point x="44" y="0" type="line"/>
			<point x="604" y="0" type="line"/>
			<point x="604" y="42" type="line"/>
			<point x="498" y="97" type="line"/>
			<point x="498" y="669" type="line"/>
		</contour>
		<contour>
			<point x="363" y="-34" type="curve" smooth="yes"/>
			<point x="412" y="46" type="line"/>
			<point x="328" y="46" type="line"/>
			<point x="253" y="-51" type="line" smooth="yes"/>
			<point x="122" y="-218"/>
			<point x="97" y="-284"/>
			<point x="97" y="-361" type="curve" smooth="yes"/>
			<point x="97" y="-454"/>
			<point x="156" y="-530"/>
			<point x="287" y="-530" type="curve" smooth="yes"/>
			<point x="385" y="-530"/>
			<point x="458" y="-494"/>
			<point x="551" y="-388" type="curve"/>
			<point x="509" y="-333" type="line"/>
			<point x="462" y="-369"/>
			<point x="424" y="-388"/>
			<point x="381" y="-388" type="curve" smooth="yes"/>
			<point x="308" y="-388"/>
			<point x="264" y="-344"/>
			<point x="264" y="-271" type="curve" smooth="yes"/>
			<point x="264" y="-220"/>
			<point x="281" y="-168"/>
		</contour>
	</outline>
</glyph>
<glyph name="dotlessi" format="2">
	<unicode hex="0131"/>
	<advance width="631"/>
	<outline>
		<contour>
			<point x="513" y="902" type="line"/>
			<point x="454" y="902" type="line"/>
			<point x="29" y="798" type="line"/>
			<point x="29" y="755" type="line"/>
			<point x="78" y="729"/>
			<point x="118" y="699"/>
			<point x="150" y="653" type="curve"/>
			<point x="150" y="97" type="line"/>
			<point x="44" y="42" type="line"/>
			<point x="44" y="0" type="line"/>
			<point x="604" y="0" type="line"/>
			<point x="604" y="42" type="line"/>
			<point x="498" y="97" type="line"/>
			<point x="498" y="669" type="line"/>
		</contour>
	</outline>
	<anchor name="top" x="311" y="872"/>
	<anchor name="bottom" x="324" y="0"/>
	<anchor name="right" x="514" y="0"/>
</glyph>
<glyph name="kgreenlandic" format="2">
	<unicode hex="0138"/>
	<advance width="1215"/>
	<outline>
		<contour>
			<point x="548" y="401" type="line"/>
			<point x="755" y="84" type="line"/>
			<point x="688" y="42" type="line"/>
			<point x="688" y="0" type="line"/>
			<point x="1242" y="0" type="line"/>
			<point x="1242" y="42" type="line"/>
			<point x="1143" y="97" type="line"/>
			<point x="783" y="637" type="line"/>
			<point x="615" y="432" type="line"/>
			<point x="1032" y="775" type="line"/>
			<point x="1171" y="824" type="line"/>
			<point x="1171" y="872" type="line"/>
			<point x="742" y="872" type="line"/>
			<point x="742" y="824" type="line"/>
			<point x="856" y="778" type="line"/>
			<point x="576" y="521" type="line"/>
			<point x="366" y="521" type="line"/>
			<point x="366" y="401" type="line"/>
		</contour>
		<contour>
			<point x="514" y="902" type="line"/>
			<point x="455" y="902" type="line"/>
			<point x="30" y="798" type="line"/>
			<point x="30" y="755" type="line"/>
			<point x="79" y="729"/>
			<point x="119" y="699"/>
			<point x="151" y="653" type="curve"/>
			<point x="151" y="97" type="line"/>
			<point x="45" y="42" type="line"/>
			<point x="45" y="0" type="line"/>
			<point x="585" y="0" type="line"/>
			<point x="585" y="42" type="line"/>
			<point x="499" y="92" type="line"/>
			<point x="499" y="669" type="line"/>
		</contour>
	</outline>
</glyph>
<glyph name="Lslash" format="2">
	<unicode hex="0141"/>
	<advance width="1338"/>
	<outline>
		<contour>
			<point x="363" y="582" type="line"/>
			<point x="459" y="591" type="line"/>
			<point x="865" y="833" type="line"/>
			<point x="865" y="977" type="line"/>
			<point x="459" y="735" type="line"/>
			<point x="363" y="726" type="line"/>
			<point x="77" y="556" type="line"/>
			<point x="77" y="412" type="line"/>
		</contour>
		<contour>
			<point x="1217" y="-92" type="line"/>
			<point x="1324" y="475" type="line"/>
			<point x="1260" y="491" type="line"/>
			<point x="971" y="88" type="line"/>
			<point x="1032" y="138" type="line"/>
			<point x="413" y="138" type="line"/>
			<point x="413" y="0" type="line"/>
			<point x="1008" y="0" type="line"/>
			<point x="1165" y="-92" type="line"/>
		</contour>
		<contour>
			<point x="605" y="1232" type="line"/>
			<point x="743" y="1294" type="line"/>
			<point x="743" y="1340" type="line"/>
			<point x="77" y="1340" type="line"/>
			<point x="77" y="1294" type="line"/>
			<point x="215" y="1232" type="line"/>
			<point x="215" y="108" type="line"/>
			<point x="77" y="46" type="line"/>
			<point x="77" y="0" type="line"/>
			<point x="605" y="0" type="line"/>
		</contour>
	</outline>
</glyph>
<glyph name="lslash" format="2">
	<unicode hex="0142"/>
	<advance width="708"/>
	<outline>
		<contour>
			<point x="300" y="518" type="line"/>
			<point x="450" y="559" type="line"/>
			<point x="688" y="751" type="line"/>
			<point x="688" y="905" type="line"/>
			<point x="450" y="713" type="line"/>
			<point x="300" y="672" type="line"/>
			<point x="47" y="468" type="line"/>
			<point x="47" y="314" type="line"/>
		</contour>
		<contour>
			<point x="528" y="97" type="line"/>
			<point x="528" y="1186" type="line"/>
			<point x="550" y="1429" type="line"/>
			<point x="511" y="1429" type="line"/>
			<point x="30" y="1300" type="line"/>
			<point x="30" y="1243" type="line"/>
			<point x="108" y="1206"/>
			<point x="145" y="1179"/>
			<point x="180" y="1133" type="curve"/>
			<point x="180" y="97" type="line"/>
			<point x="74" y="42" type="line"/>
			<point x="74" y="0" type="line"/>
			<point x="634" y="0" type="line"/>
			<point x="634" y="42" type="line"/>
		</contour>
	</outline>
</glyph>
<glyph name="Eng" format="2">
	<unicode hex="014A"/>
	<advance width="1522"/>
	<outline>
		<contour>
			<point x="1248" y="577" type="line"/>
			<point x="637" y="1340" type="line"/>
			<point x="38" y="1340" type="line"/>
			<point x="38" y="1301" type="line"/>
			<point x="201" y="1211" type="line"/>
			<point x="201" y="108" type="line"/>
			<point x="63" y="46" type="line"/>
			<point x="63" y="0" type="line"/>
			<point x="486" y="0" type="line"/>
			<point x="486" y="46" type="line"/>
			<point x="331" y="108" type="line"/>
			<point x="331" y="1230" type="line"/>
			<point x="273" y="1194" type="line"/>
			<point x="1248" y="-81" type="line"/>
		</contour>
		<contour>
			<point x="1339" y="-93" type="curve" smooth="yes"/>
			<point x="1339" y="1232" type="line"/>
			<point x="1477" y="1294" type="line"/>
			<point x="1477" y="1340" type="line"/>
			<point x="1054" y="1340" type="line"/>
			<point x="1054" y="1294" type="line"/>
			<point x="1209" y="1232" type="line"/>
			<point x="1209" y="-117" type="line" smooth="yes"/>
			<point x="1209" y="-303"/>
			<point x="1124" y="-387"/>
			<point x="998" y="-387" type="curve" smooth="yes"/>
			<point x="940" y="-387"/>
			<point x="849" y="-262"/>
			<point x="797" y="-262" type="curve" smooth="yes"/>
			<point x="735" y="-262"/>
			<point x="693" y="-316"/>
			<point x="693" y="-374" type="curve" smooth="yes"/>
			<point x="693" y="-471"/>
			<point x="770" y="-530"/>
			<point x="943" y="-530" type="curve" smooth="yes"/>
			<point x="1203" y="-530"/>
			<point x="1339" y="-391"/>
		</contour>
	</outline>
</glyph>
<glyph name="eng" format="2">
	<unicode hex="014B"/>
	<advance width="1182"/>
	<outline>
		<contour>
			<point x="499" y="689" type="line"/>
			<point x="435" y="902" type="line"/>
			<point x="396" y="902" type="line"/>
			<point x="29" y="778" type="line"/>
			<point x="29" y="735" type="line"/>
			<point x="77" y="714"/>
			<point x="115" y="686"/>
			<point x="151" y="633" type="curve"/>
			<point x="151" y="97" type="line"/>
			<point x="45" y="42" type="line"/>
			<point x="45" y="0" type="line"/>
			<point x="580" y="0" type="line"/>
			<point x="580" y="42" type="line"/>
			<point x="499" y="87" type="line"/>
		</contour>
		<contour>
			<point x="737" y="-98" type="line" smooth="yes"/>
			<point x="737" y="-258"/>
			<point x="726" y="-297"/>
			<point x="573" y="-473" type="curve"/>
			<point x="619" y="-530" type="line"/>
			<point x="1040" y="-275"/>
			<point x="1085" y="-209"/>
			<point x="1085" y="48" type="curve" smooth="yes"/>
			<point x="1085" y="569" type="line" smooth="yes"/>
			<point x="1085" y="793"/>
			<point x="998" y="902"/>
			<point x="814" y="902" type="curve" smooth="yes"/>
			<point x="694" y="902"/>
			<point x="602" y="873"/>
			<point x="418" y="671" type="curve"/>
			<point x="460" y="624" type="line"/>
			<point x="501" y="651"/>
			<point x="554" y="666"/>
			<point x="621" y="666" type="curve" smooth="yes"/>
			<point x="702" y="666"/>
			<point x="737" y="639"/>
			<point x="737" y="559" type="curve" smooth="yes"/>
		</contour>
	</outline>
</glyph>
<glyph name="OE" format="2">
	<unicode hex="0152"/>
	<advance width="2189"/>
	<outline>
		<contour>
			<point x="1820" y="965" type="line"/>
			<point x="1709" y="965" type="line"/>
			<point x="1687" y="772" type="line"/>
			<point x="1219" y="772" type="line"/>
			<point x="1219" y="634" type="line"/>
			<point x="1687" y="634" type="line"/>
			<point x="1709" y="441" type="line"/>
			<point x="1820" y="441" type="line"/>
			<point x="1820" y="703" type="line"/>
		</contour>
		<contour>
			<point x="1021" y="1340" type="line"/>
			<point x="1021" y="0" type="line"/>
			<point x="1411" y="0" type="line"/>
			<point x="1411" y="1340" type="line"/>
		</contour>
		<contour>
			<point x="847" y="0" type="curve" smooth="yes"/>
			<point x="1878" y="0" type="line"/>
			<point x="2023" y="-81" type="line"/>
			<point x="2066" y="-81" type="line"/>
			<point x="2157" y="444" type="line"/>
			<point x="2101" y="458" type="line"/>
			<point x="1842" y="82" type="line"/>
			<point x="1914" y="138" type="line"/>
			<point x="894" y="138" type="line" smooth="yes"/>
			<point x="632" y="138"/>
			<point x="471" y="314"/>
			<point x="471" y="673" type="curve" smooth="yes"/>
			<point x="471" y="1062"/>
			<point x="635" y="1202"/>
			<point x="879" y="1202" type="curve" smooth="yes"/>
			<point x="1896" y="1202" type="line"/>
			<point x="1799" y="1262" type="line"/>
			<point x="2044" y="929" type="line"/>
			<point x="2107" y="945" type="line"/>
			<point x="2018" y="1416" type="line"/>
			<point x="1980" y="1416" type="line"/>
			<point x="1851" y="1340" type="line"/>
			<point x="845" y="1340" type="line" smooth="yes"/>
			<point x="401" y="1340"/>
			<point x="66" y="1110"/>
			<point x="66" y="660" type="curve" smooth="yes"/>
			<point x="66" y="236"/>
			<point x="323" y="0"/>
		</contour>
	</outline>
</glyph>
<glyph name="oe" format="2">
	<unicode hex="0153"/>
	<advance width="1584"/>
	<outline>
		<contour>
			<point x="546" y="84" type="curve" smooth="yes"/>
			<point x="450" y="84"/>
			<point x="409" y="223"/>
			<point x="409" y="491" type="curve" smooth="yes"/>
			<point x="409" y="721"/>
			<point x="457" y="788"/>
			<point x="530" y="788" type="curve" smooth="yes"/>
			<point x="626" y="788"/>
			<point x="667" y="649"/>
			<point x="667" y="381" type="curve" smooth="yes"/>
			<point x="667" y="151"/>
			<point x="619" y="84"/>
		</contour>
		<contour>
			<point x="944" y="209" type="curve"/>
			<point x="736" y="209" type="line"/>
			<point x="811" y="60"/>
			<point x="945" y="-30"/>
			<point x="1121" y="-30" type="curve" smooth="yes"/>
			<point x="1290" y="-30"/>
			<point x="1426" y="78"/>
			<point x="1541" y="209" type="curve"/>
			<point x="1501" y="270" type="line"/>
			<point x="1423" y="218"/>
			<point x="1359" y="202"/>
			<point x="1272" y="202" type="curve" smooth="yes"/>
			<point x="1100" y="202"/>
			<point x="986" y="311"/>
			<point x="986" y="517" type="curve" smooth="yes"/>
			<point x="986" y="752"/>
			<point x="1041" y="797"/>
			<point x="1105" y="797" type="curve" smooth="yes"/>
			<point x="1181" y="797"/>
			<point x="1219" y="717"/>
			<point x="1223" y="539" type="curve"/>
			<point x="1389" y="600" type="line"/>
			<point x="896" y="570" type="line"/>
			<point x="896" y="476" type="line"/>
			<point x="1537" y="476" type="line"/>
			<point x="1514" y="739"/>
			<point x="1383" y="902"/>
			<point x="1133" y="902" type="curve" smooth="yes"/>
			<point x="955" y="902"/>
			<point x="841" y="815"/>
			<point x="764" y="692" type="curve"/>
			<point x="942" y="692" type="line"/>
			<point x="862" y="819"/>
			<point x="738" y="902"/>
			<point x="548" y="902" type="curve" smooth="yes"/>
			<point x="250" y="902"/>
			<point x="48" y="702"/>
			<point x="48" y="421" type="curve" smooth="yes"/>
			<point x="48" y="152"/>
			<point x="223" y="-30"/>
			<point x="528" y="-30" type="curve" smooth="yes"/>
			<point x="711" y="-30"/>
			<point x="858" y="57"/>
		</contour>
	</outline>
	<anchor name="top" x="794" y="872"/>
	<anchor name="bottom" x="794" y="0"/>
</glyph>
<glyph name="Scedilla" format="2">
	<unicode hex="015E"/>
	<advance width="1203"/>
	<outline>
		<contour>
			<point x="986" y="1292" type="line"/>
			<point x="865" y="1349"/>
			<point x="759" y="1370"/>
			<point x="626" y="1370" type="curve" smooth="yes"/>
			<point x="292" y="1370"/>
			<point x="77" y="1208"/>
			<point x="77" y="958" type="curve" smooth="yes"/>
			<point x="77" y="709"/>
			<point x="233" y="617"/>
			<point x="402" y="556" type="curve" smooth="yes"/>
			<point x="571" y="495"/>
			<point x="782" y="464"/>
			<point x="782" y="303" type="curve" smooth="yes"/>
			<point x="782" y="187"/>
			<point x="700" y="120"/>
			<point x="487" y="120" type="curve" smooth="yes"/>
			<point x="392" y="120"/>
			<point x="314" y="140"/>
			<point x="208" y="195" type="curve"/>
			<point x="471" y="31" type="line"/>
			<point x="138" y="439" type="line"/>
			<point x="72" y="439" type="line"/>
			<point x="159" y="30" type="line"/>
			<point x="292" y="-16"/>
			<point x="403" y="-30"/>
			<point x="555" y="-30" type="curve" smooth="yes"/>
			<point x="882" y="-30"/>
			<point x="1141" y="124"/>
			<point x="1141" y="430" type="curve" smooth="yes"/>
			<point x="1141" y="696"/>
			<point x="940" y="793"/>
			<point x="762" y="854" type="curve" smooth="yes"/>
			<point x="584" y="915"/>
			<point x="411" y="950"/>
			<point x="411" y="1080" type="curve" smooth="yes"/>
			<point x="411" y="1170"/>
			<point x="469" y="1228"/>
			<point x="630" y="1228" type="curve" smooth="yes"/>
			<point x="709" y="1228"/>
			<point x="791" y="1197"/>
			<point x="860" y="1147" type="curve"/>
			<point x="772" y="1243" type="line"/>
			<point x="1010" y="916" type="line"/>
			<point x="1083" y="934" type="line"/>
			<point x="995" y="1418" type="line"/>
			<point x="949" y="1418" type="line"/>
			<point x="819" y="1312" type="line"/>
		</contour>
		<contour>
			<point x="494" y="-530" type="curve" smooth="yes"/>
			<point x="676" y="-530"/>
			<point x="782" y="-406"/>
			<point x="782" y="-291" type="curve" smooth="yes"/>
			<point x="782" y="-207"/>
			<point x="732" y="-142"/>
			<point x="527" y="-94" type="curve"/>
			<point x="518" y="-221" type="line"/>
			<point x="699" y="49" type="line"/>
			<point x="600" y="49" type="line"/>
			<point x="409" y="-239" type="line"/>
			<point x="409" y="-250" type="line"/>
			<point x="609" y="-291"/>
			<point x="637" y="-331"/>
			<point x="637" y="-374" type="curve" smooth="yes"/>
			<point x="637" y="-419"/>
			<point x="601" y="-444"/>
			<point x="552" y="-444" type="curve" smooth="yes"/>
			<point x="482" y="-444"/>
			<point x="458" y="-369"/>
			<point x="401" y="-369" type="curve" smooth="yes"/>
			<point x="360" y="-369"/>
			<point x="339" y="-400"/>
			<point x="339" y="-435" type="curve" smooth="yes"/>
			<point x="339" y="-485"/>
			<point x="392" y="-530"/>
		</contour>
	</outline>
</glyph>
<glyph name="scedilla" format="2">
	<unicode hex="015F"/>
	<advance width="833"/>
	<outline>
		<contour>
			<point x="442" y="902" type="curve" smooth="yes"/>
			<point x="247" y="902"/>
			<point x="63" y="799"/>
			<point x="63" y="603" type="curve" smooth="yes"/>
			<point x="63" y="477"/>
			<point x="117" y="371"/>
			<point x="297" y="321" type="curve" smooth="yes"/>
			<point x="477" y="270"/>
			<point x="515" y="239"/>
			<point x="515" y="180" type="curve" smooth="yes"/>
			<point x="515" y="103"/>
			<point x="443" y="68"/>
			<point x="335" y="68" type="curve" smooth="yes"/>
			<point x="274" y="68"/>
			<point x="206" y="77"/>
			<point x="137" y="101" type="curve"/>
			<point x="285" y="17" type="line"/>
			<point x="132" y="280" type="line"/>
			<point x="63" y="280" type="line"/>
			<point x="83" y="23" type="line"/>
			<point x="163" y="-12"/>
			<point x="265" y="-30"/>
			<point x="371" y="-30" type="curve" smooth="yes"/>
			<point x="604" y="-30"/>
			<point x="785" y="71"/>
			<point x="785" y="287" type="curve" smooth="yes"/>
			<point x="785" y="429"/>
			<point x="713" y="526"/>
			<point x="524" y="580" type="curve" smooth="yes"/>
			<point x="335" y="634"/>
			<point x="313" y="667"/>
			<point x="313" y="721" type="curve" smooth="yes"/>
			<point x="313" y="777"/>
			<point x="362" y="808"/>
			<point x="458" y="808" type="curve" smooth="yes"/>
			<point x="503" y="808"/>
			<point x="556" y="794"/>
			<point x="606" y="766" type="curve"/>
			<point x="519" y="848" type="line"/>
			<point x="652" y="610" type="line"/>
			<point x="730" y="610" type="line"/>
			<point x="723" y="850" type="line"/>
			<point x="634" y="884"/>
			<point x="563" y="902"/>
		</contour>
		<contour>
			<point x="304" y="-530" type="curve" smooth="yes"/>
			<point x="486" y="-530"/>
			<point x="592" y="-406"/>
			<point x="592" y="-291" type="curve" smooth="yes"/>
			<point x="592" y="-207"/>
			<point x="542" y="-142"/>
			<point x="337" y="-94" type="curve"/>
			<point x="328" y="-221" type="line"/>
			<point x="509" y="49" type="line"/>
			<point x="410" y="49" type="line"/>
			<point x="219" y="-239" type="line"/>
			<point x="219" y="-250" type="line"/>
			<point x="419" y="-291"/>
			<point x="447" y="-331"/>
			<point x="447" y="-374" type="curve" smooth="yes"/>
			<point x="447" y="-419"/>
			<point x="411" y="-444"/>
			<point x="362" y="-444" type="curve" smooth="yes"/>
			<point x="292" y="-444"/>
			<point x="268" y="-369"/>
			<point x="211" y="-369" type="curve" smooth="yes"/>
			<point x="170" y="-369"/>
			<point x="149" y="-400"/>
			<point x="149" y="-435" type="curve" smooth="yes"/>
			<point x="149" y="-485"/>
			<point x="202" y="-530"/>
		</contour>
	</outline>
</glyph>
<glyph name="uni0162" format="2">
	<unicode hex="0162"/>
	<advance width="1428"/>
	<outline>
		<contour>
			<point x="511" y="1272" type="line"/>
			<point x="511" y="108" type="line"/>
			<point x="373" y="46" type="line"/>
			<point x="373" y="0" type="line"/>
			<point x="1039" y="0" type="line"/>
			<point x="1039" y="46" type="line"/>
			<point x="901" y="108" type="line"/>
			<point x="901" y="1272" type="line"/>
		</contour>
		<contour>
			<point x="1223" y="1202" type="line"/>
			<point x="1134" y="1244" type="line"/>
			<point x="1330" y="914" type="line"/>
			<point x="1402" y="929" type="line"/>
			<point x="1358" y="1415" type="line"/>
			<point x="1312" y="1415" type="line"/>
			<point x="1125" y="1312" type="line"/>
			<point x="1200" y="1340" type="line"/>
			<point x="172" y="1340" type="line"/>
			<point x="303" y="1312" type="line"/>
			<point x="116" y="1415" type="line"/>
			<point x="70" y="1415" type="line"/>
			<point x="26" y="929" type="line"/>
			<point x="98" y="914" type="line"/>
			<point x="294" y="1244" type="line"/>
			<point x="149" y="1202" type="line"/>
		</contour>
		<contour>
			<point x="601" y="-530" type="curve" smooth="yes"/>
			<point x="783" y="-530"/>
			<point x="889" y="-406"/>
			<point x="889" y="-291" type="curve" smooth="yes"/>
			<point x="889" y="-207"/>
			<point x="839" y="-142"/>
			<point x="634" y="-94" type="curve"/>
			<point x="625" y="-221" type="line"/>
			<point x="806" y="49" type="line"/>
			<point x="707" y="49" type="line"/>
			<point x="516" y="-239" type="line"/>
			<point x="516" y="-250" type="line"/>
			<point x="716" y="-291"/>
			<point x="744" y="-331"/>
			<point x="744" y="-374" type="curve" smooth="yes"/>
			<point x="744" y="-419"/>
			<point x="708" y="-444"/>
			<point x="659" y="-444" type="curve" smooth="yes"/>
			<point x="589" y="-444"/>
			<point x="565" y="-369"/>
			<point x="508" y="-369" type="curve" smooth="yes"/>
			<point x="467" y="-369"/>
			<point x="446" y="-400"/>
			<point x="446" y="-435" type="curve" smooth="yes"/>
			<point x="446" y="-485"/>
			<point x="499" y="-530"/>
		</contour>
	</outline>
</glyph>
<glyph name="uni0163" format="2">
	<unicode hex="0163"/>
	<advance width="814"/>
	<outline>
		<contour>
			<point x="487" y="281" type="curve" smooth="yes"/>
			<point x="487" y="852" type="line"/>
			<point x="487" y="1083" type="line"/>
			<point x="398" y="1083" type="line"/>
			<point x="296" y="1020"/>
			<point x="105" y="905"/>
			<point x="-4" y="840" type="curve"/>
			<point x="-4" y="786" type="line"/>
			<point x="140" y="672" type="line"/>
			<point x="140" y="256" type="line" smooth="yes"/>
			<point x="140" y="53"/>
			<point x="271" y="-30"/>
			<point x="455" y="-30" type="curve" smooth="yes"/>
			<point x="544" y="-30"/>
			<point x="676" y="27"/>
			<point x="824" y="149" type="curve"/>
			<point x="824" y="215" type="line"/>
			<point x="752" y="189"/>
			<point x="690" y="177"/>
			<point x="639" y="177" type="curve" smooth="yes"/>
			<point x="542" y="177"/>
			<point x="487" y="218"/>
		</contour>
		<contour>
			<point x="343" y="722" type="line"/>
			<point x="763" y="722" type="line"/>
			<point x="785" y="872" type="line"/>
			<point x="343" y="872" type="line"/>
		</contour>
		<contour>
			<point x="367" y="-530" type="curve" smooth="yes"/>
			<point x="549" y="-530"/>
			<point x="655" y="-406"/>
			<point x="655" y="-291" type="curve" smooth="yes"/>
			<point x="655" y="-207"/>
			<point x="605" y="-142"/>
			<point x="400" y="-94" type="curve"/>
			<point x="391" y="-221" type="line"/>
			<point x="572" y="49" type="line"/>
			<point x="473" y="49" type="line"/>
			<point x="282" y="-239" type="line"/>
			<point x="282" y="-250" type="line"/>
			<point x="482" y="-291"/>
			<point x="510" y="-331"/>
			<point x="510" y="-374" type="curve" smooth="yes"/>
			<point x="510" y="-419"/>
			<point x="474" y="-444"/>
			<point x="425" y="-444" type="curve" smooth="yes"/>
			<point x="355" y="-444"/>
			<point x="331" y="-369"/>
			<point x="274" y="-369" type="curve" smooth="yes"/>
			<point x="233" y="-369"/>
			<point x="212" y="-400"/>
			<point x="212" y="-435" type="curve" smooth="yes"/>
			<point x="212" y="-485"/>
			<point x="265" y="-530"/>
		</contour>
	</outline>
</glyph>
<glyph name="Tbar" format="2">
	<unicode hex="0166"/>
	<advance width="1431"/>
	<outline>
		<contour>
			<point x="271" y="594" type="line"/>
			<point x="1145" y="594" type="line"/>
			<point x="1145" y="724" type="line"/>
			<point x="271" y="724" type="line"/>
		</contour>
		<contour>
			<point x="513" y="1272" type="line"/>
			<point x="513" y="108" type="line"/>
			<point x="375" y="46" type="line"/>
			<point x="375" y="0" type="line"/>
			<point x="1041" y="0" type="line"/>
			<point x="1041" y="46" type="line"/>
			<point x="903" y="108" type="line"/>
			<point x="903" y="1272" type="line"/>
		</contour>
		<contour>
			<point x="1225" y="1202" type="line"/>
			<point x="1136" y="1244" type="line"/>
			<point x="1332" y="914" type="line"/>
			<point x="1404" y="929" type="line"/>
			<point x="1360" y="1415" type="line"/>
			<point x="1314" y="1415" type="line"/>
			<point x="1127" y="1312" type="line"/>
			<point x="1202" y="1340" type="line"/>
			<point x="174" y="1340" type="line"/>
			<point x="305" y="1312" type="line"/>
			<point x="118" y="1415" type="line"/>
			<point x="72" y="1415" type="line"/>
			<point x="28" y="929" type="line"/>
			<point x="100" y="914" type="line"/>
			<point x="296" y="1244" type="line"/>
			<point x="151" y="1202" type="line"/>
		</contour>
	</outline>
</glyph>
<glyph name="tbar" format="2">
	<unicode hex="0167"/>
	<advance width="831"/>
	<outline>
		<contour>
			<point x="13" y="412" type="line"/>
			<point x="753" y="412" type="line"/>
			<point x="753" y="542" type="line"/>
			<point x="13" y="542" type="line"/>
		</contour>
		<contour>
			<point x="503" y="281" type="curve" smooth="yes"/>
			<point x="503" y="852" type="line"/>
			<point x="503" y="1083" type="line"/>
			<point x="414" y="1083" type="line"/>
			<point x="312" y="1020"/>
			<point x="121" y="905"/>
			<point x="12" y="840" type="curve"/>
			<point x="12" y="786" type="line"/>
			<point x="156" y="672" type="line"/>
			<point x="156" y="256" type="line" smooth="yes"/>
			<point x="156" y="53"/>
			<point x="287" y="-30"/>
			<point x="471" y="-30" type="curve" smooth="yes"/>
			<point x="560" y="-30"/>
			<point x="692" y="27"/>
			<point x="840" y="149" type="curve"/>
			<point x="840" y="215" type="line"/>
			<point x="768" y="189"/>
			<point x="706" y="177"/>
			<point x="655" y="177" type="curve" smooth="yes"/>
			<point x="558" y="177"/>
			<point x="503" y="218"/>
		</contour>
		<contour>
			<point x="359" y="722" type="line"/>
			<point x="779" y="722" type="line"/>
			<point x="801" y="872" type="line"/>
			<point x="359" y="872" type="line"/>
		</contour>
	</outline>
</glyph>
<glyph name="Uogonek" format="2">
  <advance width="1566.0"/>
  <unicode hex="0172"/>
  <outline>
    <contour>
      <point x="1270.0" y="557.0" type="line" smooth="yes"/>
      <point x="1270.0" y="322.0"/>
      <point x="1133.0" y="204.0"/>
      <point x="904.0" y="204.0" type="curve" smooth="yes"/>
      <point x="672.0" y="204.0"/>
      <point x="556.0" y="322.0"/>
      <point x="556.0" y="551.0" type="curve" smooth="yes"/>
      <point x="556.0" y="1232.0" type="line"/>
      <point x="694.0" y="1294.0" type="line"/>
      <point x="694.0" y="1340.0" type="line"/>
      <point x="28.0" y="1340.0" type="line"/>
      <point x="28.0" y="1294.0" type="line"/>
      <point x="166.0" y="1232.0" type="line"/>
      <point x="166.0" y="547.0" type="line" smooth="yes"/>
      <point x="166.0" y="158.0"/>
      <point x="385.0" y="-30.0"/>
      <point x="808.0" y="-30.0" type="curve" smooth="yes"/>
      <point x="1193.0" y="-30.0"/>
      <point x="1400.0" y="166.0"/>
      <point x="1400.0" y="557.0" type="curve" smooth="yes"/>
      <point x="1400.0" y="1232.0" type="line"/>
      <point x="1538.0" y="1294.0" type="line"/>
      <point x="1538.0" y="1340.0" type="line"/>
      <point x="1115.0" y="1340.0" type="line"/>
      <point x="1115.0" y="1294.0" type="line"/>
      <point x="1270.0" y="1232.0" type="line"/>
    </contour>
    <contour>
      <point x="907.0" y="-34.0" type="curve" smooth="yes"/>
      <point x="956.0" y="46.0" type="line"/>
      <point x="872.0" y="46.0" type="line"/>
      <point x="797.0" y="-51.0" type="line" smooth="yes"/>
      <point x="666.0" y="-218.0"/>
      <point x="641.0" y="-284.0"/>
      <point x="641.0" y="-361.0" type="curve" smooth="yes"/>
      <point x="641.0" y="-454.0"/>
      <point x="700.0" y="-530.0"/>
      <point x="831.0" y="-530.0" type="curve" smooth="yes"/>
      <point x="929.0" y="-530.0"/>
      <point x="1002.0" y="-494.0"/>
      <point x="1095.0" y="-388.0" type="curve"/>
      <point x="1053.0" y="-333.0" type="line"/>
      <point x="1006.0" y="-369.0"/>
      <point x="968.0" y="-388.0"/>
      <point x="925.0" y="-388.0" type="curve" smooth="yes"/>
      <point x="852.0" y="-388.0"/>
      <point x="808.0" y="-344.0"/>
      <point x="808.0" y="-271.0" type="curve" smooth="yes"/>
      <point x="808.0" y="-220.0"/>
      <point x="825.0" y="-168.0"/>
    </contour>
  </outline>
</glyph>
<glyph name="uogonek" format="2">
	<unicode hex="0173"/>
	<advance width="1174"/>
	<outline>
		<contour>
			<point x="477" y="305" type="curve" smooth="yes"/>
			<point x="477" y="745" type="line"/>
			<point x="492" y="892" type="line"/>
			<point x="12" y="848" type="line"/>
			<point x="12" y="792" type="line"/>
			<point x="130" y="727" type="line"/>
			<point x="130" y="293" type="line" smooth="yes"/>
			<point x="130" y="76"/>
			<point x="214" y="-30"/>
			<point x="392" y="-30" type="curve" smooth="yes"/>
			<point x="509" y="-30"/>
			<point x="598" y="-2"/>
			<point x="776" y="194" type="curve"/>
			<point x="735" y="244" type="line"/>
			<point x="698" y="219"/>
			<point x="648" y="206"/>
			<point x="585" y="206" type="curve" smooth="yes"/>
			<point x="510" y="206"/>
			<point x="477" y="231"/>
		</contour>
		<contour>
			<point x="710" y="-20" type="line"/>
			<point x="749" y="-20" type="line"/>
			<point x="1163" y="52" type="line"/>
			<point x="1163" y="95" type="line"/>
			<point x="1105" y="119"/>
			<point x="1067" y="145"/>
			<point x="1032" y="183" type="curve"/>
			<point x="1032" y="735" type="line"/>
			<point x="1051" y="892" type="line"/>
			<point x="595" y="848" type="line"/>
			<point x="595" y="792" type="line"/>
			<point x="684" y="737" type="line"/>
			<point x="684" y="193" type="line"/>
		</contour>
		<contour>
			<point x="794" y="-34" type="curve" smooth="yes"/>
			<point x="843" y="46" type="line"/>
			<point x="759" y="46" type="line"/>
			<point x="684" y="-51" type="line" smooth="yes"/>
			<point x="553" y="-218"/>
			<point x="528" y="-284"/>
			<point x="528" y="-361" type="curve" smooth="yes"/>
			<point x="528" y="-454"/>
			<point x="587" y="-530"/>
			<point x="718" y="-530" type="curve" smooth="yes"/>
			<point x="816" y="-530"/>
			<point x="889" y="-494"/>
			<point x="982" y="-388" type="curve"/>
			<point x="940" y="-333" type="line"/>
			<point x="893" y="-369"/>
			<point x="855" y="-388"/>
			<point x="812" y="-388" type="curve" smooth="yes"/>
			<point x="739" y="-388"/>
			<point x="695" y="-344"/>
			<point x="695" y="-271" type="curve" smooth="yes"/>
			<point x="695" y="-220"/>
			<point x="712" y="-168"/>
		</contour>
	</outline>
</glyph>
<glyph name="uni018F" format="2">
	<unicode hex="018F"/>
	<advance width="1429"/>
	<outline>
		<contour>
			<point x="282" y="470" type="line"/>
			<point x="1123" y="470" type="line"/>
			<point x="1123" y="608" type="line"/>
			<point x="58" y="608" type="line"/>
			<point x="93" y="213"/>
			<point x="292" y="-30"/>
			<point x="668" y="-30" type="curve" smooth="yes"/>
			<point x="1123" y="-30"/>
			<point x="1365" y="302"/>
			<point x="1365" y="691" type="curve" smooth="yes"/>
			<point x="1365" y="1085"/>
			<point x="1106" y="1370"/>
			<point x="685" y="1370" type="curve" smooth="yes"/>
			<point x="454" y="1370"/>
			<point x="250" y="1258"/>
			<point x="53" y="1060" type="curve"/>
			<point x="123" y="969" type="line"/>
			<point x="268" y="1077"/>
			<point x="400" y="1112"/>
			<point x="582" y="1112" type="curve" smooth="yes"/>
			<point x="843" y="1112"/>
			<point x="1016" y="929"/>
			<point x="1016" y="590" type="curve" smooth="yes"/>
			<point x="1016" y="193"/>
			<point x="870" y="118"/>
			<point x="684" y="118" type="curve" smooth="yes"/>
			<point x="502" y="118"/>
			<point x="406" y="253"/>
			<point x="390" y="553" type="curve"/>
		</contour>
	</outline>
</glyph>
<glyph name="Ohorn" format="2">
	<unicode hex="01A0"/>
	<advance width="1586"/>
	<outline>
		<contour>
			<point x="799" y="124" type="curve" smooth="yes"/>
			<point x="604" y="124"/>
			<point x="468" y="324"/>
			<point x="468" y="743" type="curve" smooth="yes"/>
			<point x="468" y="1078"/>
			<point x="605" y="1216"/>
			<point x="778" y="1216" type="curve" smooth="yes"/>
			<point x="973" y="1216"/>
			<point x="1109" y="1016"/>
			<point x="1109" y="597" type="curve" smooth="yes"/>
			<point x="1109" y="262"/>
			<point x="972" y="124"/>
		</contour>
		<contour>
			<point x="810" y="1370" type="curve" smooth="yes"/>
			<point x="371" y="1370"/>
			<point x="64" y="1087"/>
			<point x="64" y="668" type="curve" smooth="yes"/>
			<point x="64" y="243"/>
			<point x="341" y="-30"/>
			<point x="767" y="-30" type="curve" smooth="yes"/>
			<point x="1206" y="-30"/>
			<point x="1513" y="253"/>
			<point x="1513" y="672" type="curve" smooth="yes"/>
			<point x="1513" y="915"/>
			<point x="1420" y="1126"/>
			<point x="1240" y="1245" type="curve"/>
			<point x="1240" y="1230" type="line"/>
			<point x="1436" y="1222"/>
			<point x="1519" y="1332"/>
			<point x="1519" y="1480" type="curve" smooth="yes"/>
			<point x="1519" y="1572"/>
			<point x="1468" y="1630"/>
			<point x="1384" y="1630" type="curve" smooth="yes"/>
			<point x="1319" y="1630"/>
			<point x="1258" y="1592"/>
			<point x="1257" y="1546" type="curve" smooth="yes"/>
			<point x="1256" y="1529"/>
			<point x="1293" y="1468"/>
			<point x="1293" y="1405" type="curve" smooth="yes"/>
			<point x="1293" y="1357"/>
			<point x="1264" y="1334"/>
			<point x="1182" y="1334" type="curve" smooth="yes"/>
			<point x="1066" y="1334"/>
			<point x="964" y="1370"/>
		</contour>
	</outline>
	<anchor name="UCtop" x="789" y="1340"/>
	<anchor name="bottom" x="789" y="0"/>
</glyph>
<glyph name="ohorn" format="2">
	<unicode hex="01A1"/>
	<advance width="1096"/>
	<outline>
		<contour>
			<point x="546" y="84" type="curve" smooth="yes"/>
			<point x="450" y="84"/>
			<point x="409" y="223"/>
			<point x="409" y="491" type="curve" smooth="yes"/>
			<point x="409" y="721"/>
			<point x="457" y="788"/>
			<point x="530" y="788" type="curve" smooth="yes"/>
			<point x="626" y="788"/>
			<point x="667" y="649"/>
			<point x="667" y="381" type="curve" smooth="yes"/>
			<point x="667" y="151"/>
			<point x="619" y="84"/>
		</contour>
		<contour>
			<point x="1114" y="1012" type="curve" smooth="yes"/>
			<point x="1114" y="1104"/>
			<point x="1063" y="1162"/>
			<point x="979" y="1162" type="curve" smooth="yes"/>
			<point x="914" y="1162"/>
			<point x="853" y="1124"/>
			<point x="852" y="1078" type="curve" smooth="yes"/>
			<point x="851" y="1061"/>
			<point x="888" y="1000"/>
			<point x="888" y="937" type="curve" smooth="yes"/>
			<point x="888" y="895.064516129"/>
			<point x="867" y="872"/>
			<point x="799" y="872" type="curve" smooth="yes"/>
			<point x="736" y="872"/>
			<point x="662" y="902"/>
			<point x="548" y="902" type="curve" smooth="yes"/>
			<point x="250" y="902"/>
			<point x="48" y="702"/>
			<point x="48" y="421" type="curve" smooth="yes"/>
			<point x="48" y="152"/>
			<point x="223" y="-30"/>
			<point x="528" y="-30" type="curve" smooth="yes"/>
			<point x="826" y="-30"/>
			<point x="1028" y="170"/>
			<point x="1028" y="451" type="curve" smooth="yes"/>
			<point x="1028" y="594.6022099448"/>
			<point x="974" y="733"/>
			<point x="859" y="812" type="curve"/>
			<point x="859" y="792" type="line"/>
			<point x="1017" y="793"/>
			<point x="1114" y="882"/>
		</contour>
	</outline>
	<anchor name="top" x="538" y="872"/>
	<anchor name="bottom" x="538" y="0"/>
</glyph>
<glyph name="Uhorn" format="2">
	<unicode hex="01AF"/>
	<advance width="1599"/>
	<outline>
		<contour>
			<point x="1510" y="1405" type="curve" smooth="yes"/>
			<point x="1510" y="1359"/>
			<point x="1488" y="1340"/>
			<point x="1318" y="1340" type="curve" smooth="yes"/>
			<point x="1115" y="1340" type="line"/>
			<point x="1115" y="1294" type="line"/>
			<point x="1270" y="1232" type="line"/>
			<point x="1270" y="557" type="line" smooth="yes"/>
			<point x="1270" y="322"/>
			<point x="1133" y="204"/>
			<point x="904" y="204" type="curve" smooth="yes"/>
			<point x="672" y="204"/>
			<point x="556" y="322"/>
			<point x="556" y="551" type="curve" smooth="yes"/>
			<point x="556" y="1232" type="line"/>
			<point x="694" y="1294" type="line"/>
			<point x="694" y="1340" type="line"/>
			<point x="28" y="1340" type="line"/>
			<point x="28" y="1294" type="line"/>
			<point x="166" y="1232" type="line"/>
			<point x="166" y="547" type="line" smooth="yes"/>
			<point x="166" y="158"/>
			<point x="385" y="-30"/>
			<point x="808" y="-30" type="curve" smooth="yes"/>
			<point x="1193" y="-30"/>
			<point x="1400" y="166"/>
			<point x="1400" y="557" type="curve" smooth="yes"/>
			<point x="1400" y="1232" type="line"/>
			<point x="1628" y="1241"/>
			<point x="1736" y="1328"/>
			<point x="1736" y="1480" type="curve" smooth="yes"/>
			<point x="1736" y="1572"/>
			<point x="1685" y="1630"/>
			<point x="1601" y="1630" type="curve" smooth="yes"/>
			<point x="1536" y="1630"/>
			<point x="1475" y="1592"/>
			<point x="1474" y="1546" type="curve" smooth="yes"/>
			<point x="1473" y="1529"/>
			<point x="1510" y="1468"/>
		</contour>
	</outline>
	<anchor name="UCtop" x="863" y="1340"/>
	<anchor name="bottom" x="863" y="0"/>
</glyph>
